<mxfile host="Electron" modified="2023-07-12T06:52:24.991Z" agent="Mozilla/5.0 (X11; Linux x86_64) AppleWebKit/537.36 (KHTML, like Gecko) draw.io/21.6.1 Chrome/112.0.5615.204 Electron/24.6.1 Safari/537.36" etag="ozuVCq5Dk7wSOx8QiVHH" version="21.6.1" type="device" pages="3">
  <diagram id="gzdOGFv04tb9wT1JTErt" name="Architecture">
    <mxGraphModel dx="2049" dy="1243" grid="1" gridSize="10" guides="1" tooltips="1" connect="1" arrows="1" fold="1" page="1" pageScale="1" pageWidth="850" pageHeight="1100" math="1" shadow="0">
      <root>
        <mxCell id="0" />
        <mxCell id="1" value="Architecture" style="locked=1;" parent="0" />
        <mxCell id="73IZ8mgDGRezHLraqpfd-1" value="&lt;font style=&quot;font-size: 16px&quot;&gt;&lt;b&gt;DRAM&lt;/b&gt;&lt;/font&gt;" style="rounded=1;whiteSpace=wrap;html=1;fillColor=#ffff88;strokeWidth=3;" vertex="1" parent="1">
          <mxGeometry x="510" y="922.1800000000003" width="93" height="40" as="geometry" />
        </mxCell>
        <mxCell id="73IZ8mgDGRezHLraqpfd-2" value="" style="endArrow=classic;startArrow=classic;html=1;strokeWidth=3;entryX=0.5;entryY=1;entryDx=0;entryDy=0;exitX=0.151;exitY=-0.055;exitDx=0;exitDy=0;exitPerimeter=0;" edge="1" parent="1" source="73IZ8mgDGRezHLraqpfd-3" target="73IZ8mgDGRezHLraqpfd-14">
          <mxGeometry width="50" height="50" relative="1" as="geometry">
            <mxPoint x="232" y="920" as="sourcePoint" />
            <mxPoint x="231.5" y="866" as="targetPoint" />
          </mxGeometry>
        </mxCell>
        <mxCell id="73IZ8mgDGRezHLraqpfd-3" value="&lt;font style=&quot;font-size: 16px&quot;&gt;Memory&lt;br&gt;Controller&lt;/font&gt;" style="whiteSpace=wrap;html=1;fillColor=none;strokeWidth=4;fontSize=16;fontStyle=1" vertex="1" parent="1">
          <mxGeometry x="176" y="922.1800000000003" width="299" height="40" as="geometry" />
        </mxCell>
        <mxCell id="73IZ8mgDGRezHLraqpfd-4" value="" style="endArrow=classic;html=1;rounded=0;strokeWidth=3;entryX=0;entryY=0.5;entryDx=0;entryDy=0;exitX=1;exitY=0.5;exitDx=0;exitDy=0;" edge="1" parent="1" source="73IZ8mgDGRezHLraqpfd-3" target="73IZ8mgDGRezHLraqpfd-1">
          <mxGeometry width="50" height="50" relative="1" as="geometry">
            <mxPoint x="475" y="982.1800000000003" as="sourcePoint" />
            <mxPoint x="510" y="982.1800000000003" as="targetPoint" />
          </mxGeometry>
        </mxCell>
        <mxCell id="73IZ8mgDGRezHLraqpfd-5" value="" style="endArrow=classic;html=1;strokeWidth=3;exitX=1;exitY=0.5;exitDx=0;exitDy=0;entryX=0;entryY=0.5;entryDx=0;entryDy=0;" edge="1" parent="1" source="73IZ8mgDGRezHLraqpfd-14" target="73IZ8mgDGRezHLraqpfd-55">
          <mxGeometry width="50" height="50" relative="1" as="geometry">
            <mxPoint x="273.0000000000002" y="846" as="sourcePoint" />
            <mxPoint x="377" y="846" as="targetPoint" />
          </mxGeometry>
        </mxCell>
        <mxCell id="73IZ8mgDGRezHLraqpfd-6" style="edgeStyle=orthogonalEdgeStyle;rounded=0;orthogonalLoop=1;jettySize=auto;html=1;entryX=1;entryY=0.5;entryDx=0;entryDy=0;strokeWidth=3;exitX=0;exitY=0.5;exitDx=0;exitDy=0;" edge="1" parent="1" source="73IZ8mgDGRezHLraqpfd-64" target="73IZ8mgDGRezHLraqpfd-13">
          <mxGeometry relative="1" as="geometry">
            <Array as="points">
              <mxPoint x="310" y="775" />
              <mxPoint x="310" y="520" />
            </Array>
            <mxPoint x="375" y="775" as="sourcePoint" />
            <mxPoint x="270" y="520" as="targetPoint" />
          </mxGeometry>
        </mxCell>
        <mxCell id="73IZ8mgDGRezHLraqpfd-7" value="" style="rounded=0;whiteSpace=wrap;html=1;strokeColor=#000000;strokeWidth=3;fillColor=none;dashed=1;" vertex="1" parent="1">
          <mxGeometry x="40" y="455" width="250" height="430" as="geometry" />
        </mxCell>
        <mxCell id="73IZ8mgDGRezHLraqpfd-8" value="" style="rounded=1;whiteSpace=wrap;html=1;dashed=1;strokeColor=#000000;strokeWidth=3;fillColor=none;" vertex="1" parent="1">
          <mxGeometry x="60" y="610" width="210" height="95" as="geometry" />
        </mxCell>
        <mxCell id="73IZ8mgDGRezHLraqpfd-9" value="&lt;b style=&quot;font-size: 16px&quot;&gt;Interconnection&lt;br&gt;Network&lt;/b&gt;" style="rounded=1;whiteSpace=wrap;html=1;strokeColor=#000000;strokeWidth=3;rotation=0;" vertex="1" parent="1">
          <mxGeometry x="60" y="750" width="220" height="40" as="geometry" />
        </mxCell>
        <mxCell id="73IZ8mgDGRezHLraqpfd-10" value="" style="endArrow=classic;startArrow=classic;html=1;strokeWidth=3;entryX=0.5;entryY=1;entryDx=0;entryDy=0;" edge="1" parent="1" target="73IZ8mgDGRezHLraqpfd-18">
          <mxGeometry width="50" height="50" relative="1" as="geometry">
            <mxPoint x="205" y="750" as="sourcePoint" />
            <mxPoint x="205" y="665" as="targetPoint" />
          </mxGeometry>
        </mxCell>
        <mxCell id="73IZ8mgDGRezHLraqpfd-11" value="" style="endArrow=classic;startArrow=classic;html=1;strokeWidth=3;entryX=0.5;entryY=1;entryDx=0;entryDy=0;" edge="1" parent="1" target="73IZ8mgDGRezHLraqpfd-17">
          <mxGeometry width="50" height="50" relative="1" as="geometry">
            <mxPoint x="195" y="750" as="sourcePoint" />
            <mxPoint x="190" y="688" as="targetPoint" />
          </mxGeometry>
        </mxCell>
        <mxCell id="73IZ8mgDGRezHLraqpfd-12" value="&lt;span style=&quot;font-family: &amp;#34;calibri&amp;#34; ; font-weight: bold&quot;&gt;&lt;font style=&quot;font-size: 20px&quot;&gt;GPU&lt;/font&gt;&lt;/span&gt;" style="text;html=1;strokeColor=none;fillColor=none;align=center;verticalAlign=middle;whiteSpace=wrap;rounded=0;dashed=1;dashPattern=1 2;" vertex="1" parent="1">
          <mxGeometry x="40" y="465" width="250" height="20" as="geometry" />
        </mxCell>
        <mxCell id="73IZ8mgDGRezHLraqpfd-13" value="Command Queue" style="rounded=1;whiteSpace=wrap;html=1;strokeWidth=4;fontSize=16;fontStyle=1" vertex="1" parent="1">
          <mxGeometry x="60" y="495" width="210" height="50" as="geometry" />
        </mxCell>
        <mxCell id="73IZ8mgDGRezHLraqpfd-14" value="&lt;font style=&quot;font-size: 16px&quot;&gt;&lt;b&gt;GMMU&lt;/b&gt;&lt;/font&gt;" style="whiteSpace=wrap;html=1;fillColor=#b1ddf0;strokeWidth=3;" vertex="1" parent="1">
          <mxGeometry x="179" y="826" width="83" height="40" as="geometry" />
        </mxCell>
        <mxCell id="73IZ8mgDGRezHLraqpfd-15" value="&lt;font style=&quot;font-size: 16px&quot;&gt;&lt;b&gt;MSHRs&lt;/b&gt;&lt;/font&gt;" style="whiteSpace=wrap;html=1;fillColor=#fad7ac;strokeWidth=3;" vertex="1" parent="1">
          <mxGeometry x="60" y="826" width="80" height="40" as="geometry" />
        </mxCell>
        <mxCell id="73IZ8mgDGRezHLraqpfd-16" value="" style="endArrow=classic;startArrow=classic;html=1;exitX=0;exitY=0.5;exitDx=0;exitDy=0;entryX=1;entryY=0.5;entryDx=0;entryDy=0;strokeWidth=3;" edge="1" parent="1" source="73IZ8mgDGRezHLraqpfd-14" target="73IZ8mgDGRezHLraqpfd-15">
          <mxGeometry width="50" height="50" relative="1" as="geometry">
            <mxPoint x="330" y="815" as="sourcePoint" />
            <mxPoint x="380" y="765" as="targetPoint" />
          </mxGeometry>
        </mxCell>
        <mxCell id="73IZ8mgDGRezHLraqpfd-17" value="&lt;font style=&quot;font-size: 16px&quot;&gt;&lt;b&gt;SM&lt;/b&gt;&lt;/font&gt;" style="whiteSpace=wrap;html=1;fillColor=#bac8d3;strokeWidth=3;" vertex="1" parent="1">
          <mxGeometry x="170" y="628" width="50" height="30" as="geometry" />
        </mxCell>
        <mxCell id="73IZ8mgDGRezHLraqpfd-18" value="&lt;font style=&quot;font-size: 16px&quot;&gt;&lt;b&gt;SM&lt;/b&gt;&lt;/font&gt;" style="whiteSpace=wrap;html=1;fillColor=#bac8d3;strokeWidth=3;" vertex="1" parent="1">
          <mxGeometry x="180" y="638" width="50" height="30" as="geometry" />
        </mxCell>
        <mxCell id="73IZ8mgDGRezHLraqpfd-19" value="&lt;font style=&quot;font-size: 16px&quot;&gt;&lt;b&gt;SM&lt;/b&gt;&lt;/font&gt;" style="whiteSpace=wrap;html=1;fillColor=#bac8d3;strokeWidth=3;" vertex="1" parent="1">
          <mxGeometry x="190" y="648" width="50" height="30" as="geometry" />
        </mxCell>
        <mxCell id="73IZ8mgDGRezHLraqpfd-20" value="" style="endArrow=classic;startArrow=classic;html=1;strokeWidth=3;entryX=0.731;entryY=1.02;entryDx=0;entryDy=0;exitX=0.5;exitY=0;exitDx=0;exitDy=0;entryPerimeter=0;" edge="1" parent="1" source="73IZ8mgDGRezHLraqpfd-14" target="73IZ8mgDGRezHLraqpfd-9">
          <mxGeometry width="50" height="50" relative="1" as="geometry">
            <mxPoint x="231" y="830" as="sourcePoint" />
            <mxPoint x="231.21000000000004" y="790" as="targetPoint" />
          </mxGeometry>
        </mxCell>
        <mxCell id="73IZ8mgDGRezHLraqpfd-21" value="" style="endArrow=classic;startArrow=classic;html=1;strokeWidth=3;entryX=0.5;entryY=1;entryDx=0;entryDy=0;" edge="1" parent="1" target="73IZ8mgDGRezHLraqpfd-23">
          <mxGeometry width="50" height="50" relative="1" as="geometry">
            <mxPoint x="225" y="750" as="sourcePoint" />
            <mxPoint x="224.71000000000004" y="688" as="targetPoint" />
          </mxGeometry>
        </mxCell>
        <mxCell id="73IZ8mgDGRezHLraqpfd-22" value="" style="endArrow=classic;startArrow=classic;html=1;strokeWidth=3;entryX=0.5;entryY=1;entryDx=0;entryDy=0;" edge="1" parent="1" target="73IZ8mgDGRezHLraqpfd-19">
          <mxGeometry width="50" height="50" relative="1" as="geometry">
            <mxPoint x="215" y="750" as="sourcePoint" />
            <mxPoint x="215" y="678" as="targetPoint" />
          </mxGeometry>
        </mxCell>
        <mxCell id="73IZ8mgDGRezHLraqpfd-23" value="&lt;font style=&quot;font-size: 16px&quot;&gt;&lt;b&gt;SM&lt;/b&gt;&lt;/font&gt;" style="whiteSpace=wrap;html=1;fillColor=#bac8d3;strokeWidth=3;" vertex="1" parent="1">
          <mxGeometry x="200" y="658" width="50" height="30" as="geometry" />
        </mxCell>
        <mxCell id="73IZ8mgDGRezHLraqpfd-24" value="" style="endArrow=classic;startArrow=classic;html=1;strokeWidth=3;entryX=0.5;entryY=1;entryDx=0;entryDy=0;" edge="1" parent="1" target="73IZ8mgDGRezHLraqpfd-27">
          <mxGeometry width="50" height="50" relative="1" as="geometry">
            <mxPoint x="115" y="750" as="sourcePoint" />
            <mxPoint x="115" y="665" as="targetPoint" />
          </mxGeometry>
        </mxCell>
        <mxCell id="73IZ8mgDGRezHLraqpfd-25" value="" style="endArrow=classic;startArrow=classic;html=1;strokeWidth=3;entryX=0.5;entryY=1;entryDx=0;entryDy=0;" edge="1" parent="1" target="73IZ8mgDGRezHLraqpfd-26">
          <mxGeometry width="50" height="50" relative="1" as="geometry">
            <mxPoint x="105" y="750" as="sourcePoint" />
            <mxPoint x="100" y="688" as="targetPoint" />
          </mxGeometry>
        </mxCell>
        <mxCell id="73IZ8mgDGRezHLraqpfd-26" value="&lt;font style=&quot;font-size: 16px&quot;&gt;&lt;b&gt;SM&lt;/b&gt;&lt;/font&gt;" style="whiteSpace=wrap;html=1;fillColor=#bac8d3;strokeWidth=3;" vertex="1" parent="1">
          <mxGeometry x="80" y="628" width="50" height="30" as="geometry" />
        </mxCell>
        <mxCell id="73IZ8mgDGRezHLraqpfd-27" value="&lt;font style=&quot;font-size: 16px&quot;&gt;&lt;b&gt;SM&lt;/b&gt;&lt;/font&gt;" style="whiteSpace=wrap;html=1;fillColor=#bac8d3;strokeWidth=3;" vertex="1" parent="1">
          <mxGeometry x="90" y="638" width="50" height="30" as="geometry" />
        </mxCell>
        <mxCell id="73IZ8mgDGRezHLraqpfd-28" value="&lt;font style=&quot;font-size: 16px&quot;&gt;&lt;b&gt;SM&lt;/b&gt;&lt;/font&gt;" style="whiteSpace=wrap;html=1;fillColor=#bac8d3;strokeWidth=3;" vertex="1" parent="1">
          <mxGeometry x="100" y="648" width="50" height="30" as="geometry" />
        </mxCell>
        <mxCell id="73IZ8mgDGRezHLraqpfd-29" value="" style="endArrow=classic;startArrow=classic;html=1;strokeWidth=3;entryX=0.5;entryY=1;entryDx=0;entryDy=0;" edge="1" parent="1" target="73IZ8mgDGRezHLraqpfd-31">
          <mxGeometry width="50" height="50" relative="1" as="geometry">
            <mxPoint x="135" y="750" as="sourcePoint" />
            <mxPoint x="134.71000000000004" y="688" as="targetPoint" />
          </mxGeometry>
        </mxCell>
        <mxCell id="73IZ8mgDGRezHLraqpfd-30" value="" style="endArrow=classic;startArrow=classic;html=1;strokeWidth=3;entryX=0.5;entryY=1;entryDx=0;entryDy=0;" edge="1" parent="1" target="73IZ8mgDGRezHLraqpfd-28">
          <mxGeometry width="50" height="50" relative="1" as="geometry">
            <mxPoint x="125" y="750" as="sourcePoint" />
            <mxPoint x="125" y="678" as="targetPoint" />
          </mxGeometry>
        </mxCell>
        <mxCell id="73IZ8mgDGRezHLraqpfd-31" value="&lt;font style=&quot;font-size: 16px&quot;&gt;&lt;b&gt;SM&lt;/b&gt;&lt;/font&gt;" style="whiteSpace=wrap;html=1;fillColor=#bac8d3;strokeWidth=3;" vertex="1" parent="1">
          <mxGeometry x="110" y="658" width="50" height="30" as="geometry" />
        </mxCell>
        <mxCell id="73IZ8mgDGRezHLraqpfd-32" value="&lt;b&gt;&lt;font style=&quot;font-size: 16px&quot;&gt;VRAM&lt;/font&gt;&lt;/b&gt;" style="rounded=1;whiteSpace=wrap;html=1;fillColor=#bac8d3;strokeWidth=3;" vertex="1" parent="1">
          <mxGeometry x="50" y="922.1800000000003" width="95" height="40" as="geometry" />
        </mxCell>
        <mxCell id="73IZ8mgDGRezHLraqpfd-33" value="" style="endArrow=classic;startArrow=classic;html=1;strokeWidth=3;exitX=0.5;exitY=0;exitDx=0;exitDy=0;entryX=0.231;entryY=1.002;entryDx=0;entryDy=0;entryPerimeter=0;" edge="1" parent="1" source="73IZ8mgDGRezHLraqpfd-32">
          <mxGeometry width="50" height="50" relative="1" as="geometry">
            <mxPoint x="98" y="922.1800000000003" as="sourcePoint" />
            <mxPoint x="97.75" y="888" as="targetPoint" />
          </mxGeometry>
        </mxCell>
        <mxCell id="73IZ8mgDGRezHLraqpfd-34" value="&lt;b&gt;&lt;font style=&quot;font-size: 14px;&quot;&gt;Controller&lt;/font&gt;&lt;/b&gt;" style="rounded=1;whiteSpace=wrap;html=1;strokeWidth=3;fontSize=16;fillColor=#d5e8d4;strokeColor=#000000;" vertex="1" parent="1">
          <mxGeometry x="75" y="560" width="180" height="30" as="geometry" />
        </mxCell>
        <mxCell id="73IZ8mgDGRezHLraqpfd-35" value="" style="rounded=0;whiteSpace=wrap;html=1;strokeColor=#000000;strokeWidth=3;fillColor=none;dashed=1;" vertex="1" parent="1">
          <mxGeometry x="330" y="455" width="270" height="430" as="geometry" />
        </mxCell>
        <mxCell id="73IZ8mgDGRezHLraqpfd-36" value="" style="rounded=1;whiteSpace=wrap;html=1;fillColor=none;strokeWidth=3;dashed=1;" vertex="1" parent="1">
          <mxGeometry x="350" y="495" width="227" height="200" as="geometry" />
        </mxCell>
        <mxCell id="73IZ8mgDGRezHLraqpfd-37" value="" style="whiteSpace=wrap;html=1;strokeColor=#000000;strokeWidth=4;fontSize=12;fillColor=none;" vertex="1" parent="1">
          <mxGeometry x="380" y="557" width="40" height="118" as="geometry" />
        </mxCell>
        <mxCell id="73IZ8mgDGRezHLraqpfd-38" value="$$A_1$$" style="text;html=1;align=center;verticalAlign=middle;resizable=0;points=[];autosize=1;fontSize=18;" vertex="1" parent="1">
          <mxGeometry x="331.5" y="527" width="90" height="30" as="geometry" />
        </mxCell>
        <mxCell id="73IZ8mgDGRezHLraqpfd-39" value="$$K_{3,1}$$" style="whiteSpace=wrap;html=1;strokeWidth=4;fontSize=16;fillColor=#dae8fc;" vertex="1" parent="1">
          <mxGeometry x="380" y="600" width="40" height="25" as="geometry" />
        </mxCell>
        <mxCell id="73IZ8mgDGRezHLraqpfd-40" value="" style="endArrow=none;dashed=1;html=1;dashPattern=1 3;strokeWidth=2;exitX=0.5;exitY=1;exitDx=0;exitDy=0;entryX=0.5;entryY=1;entryDx=0;entryDy=0;fontSize=16;" edge="1" parent="1" source="73IZ8mgDGRezHLraqpfd-50">
          <mxGeometry x="125" y="1625" width="50" height="50" as="geometry">
            <mxPoint x="280" y="715" as="sourcePoint" />
            <mxPoint x="400" y="655" as="targetPoint" />
          </mxGeometry>
        </mxCell>
        <mxCell id="73IZ8mgDGRezHLraqpfd-41" value="" style="whiteSpace=wrap;html=1;strokeColor=#000000;strokeWidth=4;fontSize=12;fillColor=none;" vertex="1" parent="1">
          <mxGeometry x="440" y="557" width="40" height="118" as="geometry" />
        </mxCell>
        <mxCell id="73IZ8mgDGRezHLraqpfd-42" value="$$A_2$$" style="text;html=1;align=center;verticalAlign=middle;resizable=0;points=[];autosize=1;fontSize=18;" vertex="1" parent="1">
          <mxGeometry x="395" y="527" width="90" height="30" as="geometry" />
        </mxCell>
        <mxCell id="73IZ8mgDGRezHLraqpfd-43" value="$$K_{2,2}$$" style="whiteSpace=wrap;html=1;strokeWidth=4;fontSize=16;fillColor=#dae8fc;" vertex="1" parent="1">
          <mxGeometry x="440" y="625" width="40" height="25" as="geometry" />
        </mxCell>
        <mxCell id="73IZ8mgDGRezHLraqpfd-44" value="$$K_{3,2}$$" style="whiteSpace=wrap;html=1;strokeWidth=4;fontSize=16;fillColor=#dae8fc;" vertex="1" parent="1">
          <mxGeometry x="440" y="600" width="40" height="25" as="geometry" />
        </mxCell>
        <mxCell id="73IZ8mgDGRezHLraqpfd-45" value="" style="endArrow=none;dashed=1;html=1;dashPattern=1 3;strokeWidth=2;exitX=1;exitY=0.5;exitDx=0;exitDy=0;entryX=0;entryY=0.5;entryDx=0;entryDy=0;fontSize=16;" edge="1" parent="1">
          <mxGeometry width="50" height="50" relative="1" as="geometry">
            <mxPoint x="480" y="615" as="sourcePoint" />
            <mxPoint x="510" y="615" as="targetPoint" />
          </mxGeometry>
        </mxCell>
        <mxCell id="73IZ8mgDGRezHLraqpfd-46" value="" style="whiteSpace=wrap;html=1;strokeColor=#000000;strokeWidth=4;fontSize=12;fillColor=none;" vertex="1" parent="1">
          <mxGeometry x="510" y="557" width="40" height="118" as="geometry" />
        </mxCell>
        <mxCell id="73IZ8mgDGRezHLraqpfd-47" value="$$A_N$$" style="text;html=1;align=center;verticalAlign=middle;resizable=0;points=[];autosize=1;fontSize=18;" vertex="1" parent="1">
          <mxGeometry x="465" y="527" width="90" height="30" as="geometry" />
        </mxCell>
        <mxCell id="73IZ8mgDGRezHLraqpfd-48" value="$$K_{2,N}$$" style="whiteSpace=wrap;html=1;strokeWidth=4;fontSize=16;fillColor=#dae8fc;" vertex="1" parent="1">
          <mxGeometry x="510" y="625" width="40" height="25" as="geometry" />
        </mxCell>
        <mxCell id="73IZ8mgDGRezHLraqpfd-49" value="$$K_{3,N}$$" style="whiteSpace=wrap;html=1;strokeWidth=4;fontSize=16;fillColor=#dae8fc;" vertex="1" parent="1">
          <mxGeometry x="510" y="600" width="40" height="25" as="geometry" />
        </mxCell>
        <mxCell id="73IZ8mgDGRezHLraqpfd-50" value="$$K_{2,1}$$" style="whiteSpace=wrap;html=1;strokeWidth=4;fontSize=16;fillColor=#dae8fc;" vertex="1" parent="1">
          <mxGeometry x="380" y="625" width="40" height="25" as="geometry" />
        </mxCell>
        <mxCell id="73IZ8mgDGRezHLraqpfd-51" value="" style="endArrow=none;dashed=1;html=1;dashPattern=1 3;strokeWidth=2;entryX=0.5;entryY=0;entryDx=0;entryDy=0;exitX=0.5;exitY=0;exitDx=0;exitDy=0;" edge="1" parent="1" source="73IZ8mgDGRezHLraqpfd-39">
          <mxGeometry x="125" y="1627" width="50" height="50" as="geometry">
            <mxPoint x="400" y="615" as="sourcePoint" />
            <mxPoint x="400" y="557" as="targetPoint" />
          </mxGeometry>
        </mxCell>
        <mxCell id="73IZ8mgDGRezHLraqpfd-52" value="" style="endArrow=none;dashed=1;html=1;dashPattern=1 3;strokeWidth=2;entryX=0.5;entryY=0;entryDx=0;entryDy=0;exitX=0.495;exitY=-0.13;exitDx=0;exitDy=0;exitPerimeter=0;" edge="1" parent="1" source="73IZ8mgDGRezHLraqpfd-49" target="73IZ8mgDGRezHLraqpfd-46">
          <mxGeometry x="335" y="1651" width="50" height="50" as="geometry">
            <mxPoint x="610" y="639" as="sourcePoint" />
            <mxPoint x="610" y="581" as="targetPoint" />
          </mxGeometry>
        </mxCell>
        <mxCell id="73IZ8mgDGRezHLraqpfd-53" value="" style="endArrow=none;dashed=1;html=1;dashPattern=1 3;strokeWidth=2;entryX=0.5;entryY=0;entryDx=0;entryDy=0;exitX=0.5;exitY=0;exitDx=0;exitDy=0;" edge="1" parent="1" source="73IZ8mgDGRezHLraqpfd-44">
          <mxGeometry x="185" y="1627" width="50" height="50" as="geometry">
            <mxPoint x="460" y="615" as="sourcePoint" />
            <mxPoint x="460" y="557" as="targetPoint" />
          </mxGeometry>
        </mxCell>
        <mxCell id="73IZ8mgDGRezHLraqpfd-54" value="&lt;font style=&quot;font-size: 18px;&quot;&gt;AI Applications&lt;/font&gt;" style="text;html=1;strokeColor=none;fillColor=none;align=center;verticalAlign=middle;whiteSpace=wrap;rounded=0;strokeWidth=4;fontStyle=1;fontSize=20;" vertex="1" parent="1">
          <mxGeometry x="382" y="505" width="160" height="20" as="geometry" />
        </mxCell>
        <mxCell id="73IZ8mgDGRezHLraqpfd-55" value="&lt;b&gt;GPU page fault runtime/driver&lt;/b&gt;" style="rounded=1;whiteSpace=wrap;html=1;strokeWidth=4;fontSize=16;fillColor=#e1d5e7;" vertex="1" parent="1">
          <mxGeometry x="377" y="820" width="170" height="52" as="geometry" />
        </mxCell>
        <mxCell id="73IZ8mgDGRezHLraqpfd-56" value="&lt;span style=&quot;font-family: &amp;#34;calibri&amp;#34; ; font-weight: bold&quot;&gt;&lt;font style=&quot;font-size: 20px&quot;&gt;CPU&lt;/font&gt;&lt;/span&gt;" style="text;html=1;strokeColor=none;fillColor=none;align=center;verticalAlign=middle;whiteSpace=wrap;rounded=0;dashed=1;dashPattern=1 2;" vertex="1" parent="1">
          <mxGeometry x="360" y="465" width="210" height="20" as="geometry" />
        </mxCell>
        <mxCell id="73IZ8mgDGRezHLraqpfd-57" style="edgeStyle=orthogonalEdgeStyle;rounded=0;orthogonalLoop=1;jettySize=auto;html=1;strokeWidth=3;entryX=0.144;entryY=0;entryDx=0;entryDy=0;entryPerimeter=0;" edge="1" parent="1">
          <mxGeometry relative="1" as="geometry">
            <mxPoint x="399.91200000000003" y="750" as="targetPoint" />
            <mxPoint x="399.8800000000001" y="675" as="sourcePoint" />
          </mxGeometry>
        </mxCell>
        <mxCell id="73IZ8mgDGRezHLraqpfd-58" style="edgeStyle=orthogonalEdgeStyle;rounded=0;orthogonalLoop=1;jettySize=auto;html=1;strokeWidth=3;entryX=0.895;entryY=0;entryDx=0;entryDy=0;entryPerimeter=0;" edge="1" parent="1">
          <mxGeometry relative="1" as="geometry">
            <mxPoint x="529.835" y="750" as="targetPoint" />
            <mxPoint x="529.8800000000001" y="675" as="sourcePoint" />
          </mxGeometry>
        </mxCell>
        <mxCell id="73IZ8mgDGRezHLraqpfd-59" style="edgeStyle=orthogonalEdgeStyle;rounded=0;orthogonalLoop=1;jettySize=auto;html=1;strokeWidth=3;entryX=0.481;entryY=0.686;entryDx=0;entryDy=0;entryPerimeter=0;" edge="1" parent="1" source="73IZ8mgDGRezHLraqpfd-41" target="73IZ8mgDGRezHLraqpfd-35">
          <mxGeometry relative="1" as="geometry">
            <mxPoint x="460" y="725" as="targetPoint" />
          </mxGeometry>
        </mxCell>
        <mxCell id="73IZ8mgDGRezHLraqpfd-60" value="$$K_{1,1}$$" style="whiteSpace=wrap;html=1;strokeWidth=4;fontSize=16;fillColor=#dae8fc;" vertex="1" parent="1">
          <mxGeometry x="380" y="650" width="40" height="25" as="geometry" />
        </mxCell>
        <mxCell id="73IZ8mgDGRezHLraqpfd-61" value="$$K_{1,2}$$" style="whiteSpace=wrap;html=1;strokeWidth=4;fontSize=16;fillColor=#dae8fc;" vertex="1" parent="1">
          <mxGeometry x="440" y="650" width="40" height="25" as="geometry" />
        </mxCell>
        <mxCell id="73IZ8mgDGRezHLraqpfd-62" value="$$K_{1,N}$$" style="whiteSpace=wrap;html=1;strokeWidth=4;fontSize=16;fillColor=#dae8fc;" vertex="1" parent="1">
          <mxGeometry x="510" y="650" width="40" height="25" as="geometry" />
        </mxCell>
        <mxCell id="73IZ8mgDGRezHLraqpfd-63" value="" style="endArrow=classic;startArrow=classic;html=1;strokeWidth=3;entryX=0.5;entryY=1;entryDx=0;entryDy=0;exitX=0.95;exitY=-0.035;exitDx=0;exitDy=0;exitPerimeter=0;" edge="1" parent="1" source="73IZ8mgDGRezHLraqpfd-3">
          <mxGeometry width="50" height="50" relative="1" as="geometry">
            <mxPoint x="460" y="933" as="sourcePoint" />
            <mxPoint x="459.79999999999995" y="885" as="targetPoint" />
          </mxGeometry>
        </mxCell>
        <mxCell id="73IZ8mgDGRezHLraqpfd-64" value="&lt;b&gt;GPU Driver&lt;/b&gt;" style="rounded=1;whiteSpace=wrap;html=1;strokeWidth=4;fontSize=16;fillColor=#d5e8d4;" vertex="1" parent="1">
          <mxGeometry x="375" y="750" width="173" height="50" as="geometry" />
        </mxCell>
        <mxCell id="73IZ8mgDGRezHLraqpfd-65" value="" style="endArrow=none;html=1;strokeWidth=2;fontSize=16;exitX=1;exitY=1;exitDx=0;exitDy=0;entryX=0;entryY=0.75;entryDx=0;entryDy=0;fontStyle=1;dashed=1;" edge="1" parent="1" source="73IZ8mgDGRezHLraqpfd-62" target="73IZ8mgDGRezHLraqpfd-68">
          <mxGeometry width="50" height="50" relative="1" as="geometry">
            <mxPoint x="550" y="675" as="sourcePoint" />
            <mxPoint x="625" y="616.25" as="targetPoint" />
          </mxGeometry>
        </mxCell>
        <mxCell id="73IZ8mgDGRezHLraqpfd-66" value="" style="endArrow=none;html=1;strokeWidth=2;fontSize=16;exitX=1;exitY=0;exitDx=0;exitDy=0;entryX=0;entryY=0.25;entryDx=0;entryDy=0;fontStyle=1;dashed=1;" edge="1" parent="1" source="73IZ8mgDGRezHLraqpfd-46" target="73IZ8mgDGRezHLraqpfd-68">
          <mxGeometry width="50" height="50" relative="1" as="geometry">
            <mxPoint x="550" y="557" as="sourcePoint" />
            <mxPoint x="625" y="528.75" as="targetPoint" />
          </mxGeometry>
        </mxCell>
        <mxCell id="73IZ8mgDGRezHLraqpfd-67" value="" style="group" vertex="1" connectable="0" parent="1">
          <mxGeometry x="625" y="485" width="325" height="175" as="geometry" />
        </mxCell>
        <mxCell id="73IZ8mgDGRezHLraqpfd-68" value="" style="rounded=1;whiteSpace=wrap;html=1;fillColor=none;fontStyle=1;strokeColor=#000000;strokeWidth=2;dashed=1;arcSize=12;" vertex="1" parent="73IZ8mgDGRezHLraqpfd-67">
          <mxGeometry width="325" height="175" as="geometry" />
        </mxCell>
        <mxCell id="73IZ8mgDGRezHLraqpfd-69" value="&lt;span&gt;&lt;font style=&quot;font-size: 16px;&quot;&gt;AI Model&lt;/font&gt;&lt;/span&gt;" style="text;html=1;strokeColor=none;fillColor=none;align=center;verticalAlign=middle;whiteSpace=wrap;rounded=0;fontSize=18;fontStyle=1" vertex="1" parent="73IZ8mgDGRezHLraqpfd-67">
          <mxGeometry x="99.47999999999998" width="126.04" height="30" as="geometry" />
        </mxCell>
        <mxCell id="73IZ8mgDGRezHLraqpfd-70" value="" style="group" vertex="1" connectable="0" parent="73IZ8mgDGRezHLraqpfd-67">
          <mxGeometry x="5.32" y="135" width="305" height="25" as="geometry" />
        </mxCell>
        <mxCell id="73IZ8mgDGRezHLraqpfd-71" value="" style="rounded=0;whiteSpace=wrap;html=1;fontStyle=1" vertex="1" parent="73IZ8mgDGRezHLraqpfd-70">
          <mxGeometry x="40" width="265" height="25" as="geometry" />
        </mxCell>
        <mxCell id="73IZ8mgDGRezHLraqpfd-72" value="" style="endArrow=none;dashed=1;html=1;dashPattern=1 3;strokeWidth=2;fontSize=16;fontStyle=1" edge="1" parent="73IZ8mgDGRezHLraqpfd-70">
          <mxGeometry width="50" height="50" relative="1" as="geometry">
            <mxPoint x="210" y="12.3900000000001" as="sourcePoint" />
            <mxPoint x="190.00000000000006" y="12.3900000000001" as="targetPoint" />
          </mxGeometry>
        </mxCell>
        <mxCell id="73IZ8mgDGRezHLraqpfd-73" value="$$K_{1,N}$$" style="text;html=1;strokeColor=none;fillColor=none;align=center;verticalAlign=middle;whiteSpace=wrap;rounded=0;fontStyle=1" vertex="1" parent="73IZ8mgDGRezHLraqpfd-70">
          <mxGeometry x="1.32" y="5" width="38.68" height="15" as="geometry" />
        </mxCell>
        <mxCell id="73IZ8mgDGRezHLraqpfd-74" value="$$Request_{1,1}$$" style="rounded=1;whiteSpace=wrap;html=1;fillColor=#b1ddf0;fontStyle=1;fontSize=11;strokeColor=#000000;" vertex="1" parent="73IZ8mgDGRezHLraqpfd-70">
          <mxGeometry x="45" y="5" width="65" height="15" as="geometry" />
        </mxCell>
        <mxCell id="73IZ8mgDGRezHLraqpfd-75" value="$$Request_{2,1}$$" style="rounded=1;whiteSpace=wrap;html=1;fillColor=#b1ddf0;fontStyle=1;fontSize=11;strokeColor=#000000;" vertex="1" parent="73IZ8mgDGRezHLraqpfd-70">
          <mxGeometry x="125" y="5" width="65" height="15" as="geometry" />
        </mxCell>
        <mxCell id="73IZ8mgDGRezHLraqpfd-76" value="$$Request_{i,1}$$" style="rounded=1;whiteSpace=wrap;html=1;fillColor=#b1ddf0;fontStyle=1;fontSize=11;strokeColor=#000000;" vertex="1" parent="73IZ8mgDGRezHLraqpfd-70">
          <mxGeometry x="229.68" y="5" width="70.32" height="15" as="geometry" />
        </mxCell>
        <mxCell id="73IZ8mgDGRezHLraqpfd-77" value="" style="edgeStyle=orthogonalEdgeStyle;rounded=0;orthogonalLoop=1;jettySize=auto;html=1;" edge="1" parent="73IZ8mgDGRezHLraqpfd-70">
          <mxGeometry relative="1" as="geometry">
            <mxPoint x="214.68" y="12.3900000000001" as="sourcePoint" />
            <mxPoint x="229.68" y="12.3900000000001" as="targetPoint" />
          </mxGeometry>
        </mxCell>
        <mxCell id="73IZ8mgDGRezHLraqpfd-78" value="" style="edgeStyle=orthogonalEdgeStyle;rounded=0;orthogonalLoop=1;jettySize=auto;html=1;" edge="1" parent="73IZ8mgDGRezHLraqpfd-70">
          <mxGeometry relative="1" as="geometry">
            <mxPoint x="110" y="12.450000000000045" as="sourcePoint" />
            <mxPoint x="125" y="12.450000000000045" as="targetPoint" />
          </mxGeometry>
        </mxCell>
        <mxCell id="73IZ8mgDGRezHLraqpfd-79" value="" style="group" vertex="1" connectable="0" parent="73IZ8mgDGRezHLraqpfd-67">
          <mxGeometry x="5.32" y="106" width="305" height="25" as="geometry" />
        </mxCell>
        <mxCell id="73IZ8mgDGRezHLraqpfd-80" value="" style="rounded=0;whiteSpace=wrap;html=1;fontStyle=1" vertex="1" parent="73IZ8mgDGRezHLraqpfd-79">
          <mxGeometry x="40" width="265" height="25" as="geometry" />
        </mxCell>
        <mxCell id="73IZ8mgDGRezHLraqpfd-81" value="" style="endArrow=none;dashed=1;html=1;dashPattern=1 3;strokeWidth=2;fontSize=16;fontStyle=1" edge="1" parent="73IZ8mgDGRezHLraqpfd-79">
          <mxGeometry width="50" height="50" relative="1" as="geometry">
            <mxPoint x="210" y="12.3900000000001" as="sourcePoint" />
            <mxPoint x="190.00000000000006" y="12.3900000000001" as="targetPoint" />
          </mxGeometry>
        </mxCell>
        <mxCell id="73IZ8mgDGRezHLraqpfd-82" value="$$K_{2,N}$$" style="text;html=1;strokeColor=none;fillColor=none;align=center;verticalAlign=middle;whiteSpace=wrap;rounded=0;fontStyle=1" vertex="1" parent="73IZ8mgDGRezHLraqpfd-79">
          <mxGeometry x="1.32" y="5" width="38.68" height="15" as="geometry" />
        </mxCell>
        <mxCell id="73IZ8mgDGRezHLraqpfd-83" value="$$Request_{1,2}$$" style="rounded=1;whiteSpace=wrap;html=1;fillColor=#b1ddf0;fontStyle=1;fontSize=11;strokeColor=#000000;" vertex="1" parent="73IZ8mgDGRezHLraqpfd-79">
          <mxGeometry x="45" y="5" width="65" height="15" as="geometry" />
        </mxCell>
        <mxCell id="73IZ8mgDGRezHLraqpfd-84" value="$$Request_{2,2}$$" style="rounded=1;whiteSpace=wrap;html=1;fillColor=#b1ddf0;fontStyle=1;fontSize=11;strokeColor=#000000;" vertex="1" parent="73IZ8mgDGRezHLraqpfd-79">
          <mxGeometry x="125" y="5" width="65" height="15" as="geometry" />
        </mxCell>
        <mxCell id="73IZ8mgDGRezHLraqpfd-85" value="$$Request_{i,2}$$" style="rounded=1;whiteSpace=wrap;html=1;fillColor=#b1ddf0;fontStyle=1;fontSize=11;strokeColor=#000000;" vertex="1" parent="73IZ8mgDGRezHLraqpfd-79">
          <mxGeometry x="229.68" y="5" width="70.32" height="15" as="geometry" />
        </mxCell>
        <mxCell id="73IZ8mgDGRezHLraqpfd-86" value="" style="edgeStyle=orthogonalEdgeStyle;rounded=0;orthogonalLoop=1;jettySize=auto;html=1;" edge="1" parent="73IZ8mgDGRezHLraqpfd-79">
          <mxGeometry relative="1" as="geometry">
            <mxPoint x="214.68" y="12.3900000000001" as="sourcePoint" />
            <mxPoint x="229.68" y="12.3900000000001" as="targetPoint" />
          </mxGeometry>
        </mxCell>
        <mxCell id="73IZ8mgDGRezHLraqpfd-87" value="" style="edgeStyle=orthogonalEdgeStyle;rounded=0;orthogonalLoop=1;jettySize=auto;html=1;" edge="1" parent="73IZ8mgDGRezHLraqpfd-79">
          <mxGeometry relative="1" as="geometry">
            <mxPoint x="110" y="12.450000000000045" as="sourcePoint" />
            <mxPoint x="125" y="12.450000000000045" as="targetPoint" />
          </mxGeometry>
        </mxCell>
        <mxCell id="73IZ8mgDGRezHLraqpfd-88" value="" style="group" vertex="1" connectable="0" parent="73IZ8mgDGRezHLraqpfd-67">
          <mxGeometry x="5.32" y="75" width="305" height="25" as="geometry" />
        </mxCell>
        <mxCell id="73IZ8mgDGRezHLraqpfd-89" value="" style="rounded=0;whiteSpace=wrap;html=1;fontStyle=1" vertex="1" parent="73IZ8mgDGRezHLraqpfd-88">
          <mxGeometry x="40" width="265" height="25" as="geometry" />
        </mxCell>
        <mxCell id="73IZ8mgDGRezHLraqpfd-90" value="" style="endArrow=none;dashed=1;html=1;dashPattern=1 3;strokeWidth=2;fontSize=16;fontStyle=1" edge="1" parent="73IZ8mgDGRezHLraqpfd-88">
          <mxGeometry width="50" height="50" relative="1" as="geometry">
            <mxPoint x="210" y="12.3900000000001" as="sourcePoint" />
            <mxPoint x="190.00000000000006" y="12.3900000000001" as="targetPoint" />
          </mxGeometry>
        </mxCell>
        <mxCell id="73IZ8mgDGRezHLraqpfd-91" value="$$K_{3,N}$$" style="text;html=1;strokeColor=none;fillColor=none;align=center;verticalAlign=middle;whiteSpace=wrap;rounded=0;fontStyle=1" vertex="1" parent="73IZ8mgDGRezHLraqpfd-88">
          <mxGeometry x="1.32" y="5" width="38.68" height="15" as="geometry" />
        </mxCell>
        <mxCell id="73IZ8mgDGRezHLraqpfd-92" value="$$Request_{1,3}$$" style="rounded=1;whiteSpace=wrap;html=1;fillColor=#b1ddf0;fontStyle=1;fontSize=11;strokeColor=#000000;" vertex="1" parent="73IZ8mgDGRezHLraqpfd-88">
          <mxGeometry x="45" y="5" width="65" height="15" as="geometry" />
        </mxCell>
        <mxCell id="73IZ8mgDGRezHLraqpfd-93" value="$$Request_{2,3}$$" style="rounded=1;whiteSpace=wrap;html=1;fillColor=#b1ddf0;fontStyle=1;fontSize=11;strokeColor=#000000;" vertex="1" parent="73IZ8mgDGRezHLraqpfd-88">
          <mxGeometry x="125" y="5" width="65" height="15" as="geometry" />
        </mxCell>
        <mxCell id="73IZ8mgDGRezHLraqpfd-94" value="$$Request_{i,3}$$" style="rounded=1;whiteSpace=wrap;html=1;fillColor=#b1ddf0;fontStyle=1;fontSize=11;strokeColor=#000000;" vertex="1" parent="73IZ8mgDGRezHLraqpfd-88">
          <mxGeometry x="229.68" y="5" width="70.32" height="15" as="geometry" />
        </mxCell>
        <mxCell id="73IZ8mgDGRezHLraqpfd-95" value="" style="edgeStyle=orthogonalEdgeStyle;rounded=0;orthogonalLoop=1;jettySize=auto;html=1;" edge="1" parent="73IZ8mgDGRezHLraqpfd-88">
          <mxGeometry relative="1" as="geometry">
            <mxPoint x="214.68" y="12.3900000000001" as="sourcePoint" />
            <mxPoint x="229.68" y="12.3900000000001" as="targetPoint" />
          </mxGeometry>
        </mxCell>
        <mxCell id="73IZ8mgDGRezHLraqpfd-96" value="" style="edgeStyle=orthogonalEdgeStyle;rounded=0;orthogonalLoop=1;jettySize=auto;html=1;" edge="1" parent="73IZ8mgDGRezHLraqpfd-88">
          <mxGeometry relative="1" as="geometry">
            <mxPoint x="110" y="12.450000000000045" as="sourcePoint" />
            <mxPoint x="125" y="12.450000000000045" as="targetPoint" />
          </mxGeometry>
        </mxCell>
        <mxCell id="73IZ8mgDGRezHLraqpfd-97" value="" style="endArrow=none;dashed=1;html=1;dashPattern=1 3;strokeWidth=2;" edge="1" parent="73IZ8mgDGRezHLraqpfd-67">
          <mxGeometry x="-183.68" y="164" width="50" height="50" as="geometry">
            <mxPoint x="26.32" y="75" as="sourcePoint" />
            <mxPoint x="26.32" y="55" as="targetPoint" />
          </mxGeometry>
        </mxCell>
        <mxCell id="73IZ8mgDGRezHLraqpfd-98" value="" style="group" vertex="1" connectable="0" parent="73IZ8mgDGRezHLraqpfd-67">
          <mxGeometry x="5.32" y="30" width="305" height="25" as="geometry" />
        </mxCell>
        <mxCell id="73IZ8mgDGRezHLraqpfd-99" value="" style="rounded=0;whiteSpace=wrap;html=1;fontStyle=1" vertex="1" parent="73IZ8mgDGRezHLraqpfd-98">
          <mxGeometry x="40" width="265" height="25" as="geometry" />
        </mxCell>
        <mxCell id="73IZ8mgDGRezHLraqpfd-100" value="" style="endArrow=none;dashed=1;html=1;dashPattern=1 3;strokeWidth=2;fontSize=16;fontStyle=1" edge="1" parent="73IZ8mgDGRezHLraqpfd-98">
          <mxGeometry width="50" height="50" relative="1" as="geometry">
            <mxPoint x="210" y="12.3900000000001" as="sourcePoint" />
            <mxPoint x="190.00000000000006" y="12.3900000000001" as="targetPoint" />
          </mxGeometry>
        </mxCell>
        <mxCell id="73IZ8mgDGRezHLraqpfd-101" value="$$K_{M,N}$$" style="text;html=1;strokeColor=none;fillColor=none;align=center;verticalAlign=middle;whiteSpace=wrap;rounded=0;fontStyle=1" vertex="1" parent="73IZ8mgDGRezHLraqpfd-98">
          <mxGeometry x="1.32" y="5" width="38.68" height="15" as="geometry" />
        </mxCell>
        <mxCell id="73IZ8mgDGRezHLraqpfd-102" value="$$Request_{1,M}$$" style="rounded=1;whiteSpace=wrap;html=1;fillColor=#b1ddf0;fontStyle=1;fontSize=11;strokeColor=#000000;" vertex="1" parent="73IZ8mgDGRezHLraqpfd-98">
          <mxGeometry x="45" y="5" width="65" height="15" as="geometry" />
        </mxCell>
        <mxCell id="73IZ8mgDGRezHLraqpfd-103" value="$$Request_{2,M}$$" style="rounded=1;whiteSpace=wrap;html=1;fillColor=#b1ddf0;fontStyle=1;fontSize=11;strokeColor=#000000;" vertex="1" parent="73IZ8mgDGRezHLraqpfd-98">
          <mxGeometry x="125" y="5" width="65" height="15" as="geometry" />
        </mxCell>
        <mxCell id="73IZ8mgDGRezHLraqpfd-104" value="$$Request_{i,M}$$" style="rounded=1;whiteSpace=wrap;html=1;fillColor=#b1ddf0;fontStyle=1;fontSize=11;strokeColor=#000000;" vertex="1" parent="73IZ8mgDGRezHLraqpfd-98">
          <mxGeometry x="229.68" y="5" width="70.32" height="15" as="geometry" />
        </mxCell>
        <mxCell id="73IZ8mgDGRezHLraqpfd-105" value="" style="edgeStyle=orthogonalEdgeStyle;rounded=0;orthogonalLoop=1;jettySize=auto;html=1;" edge="1" parent="73IZ8mgDGRezHLraqpfd-98">
          <mxGeometry relative="1" as="geometry">
            <mxPoint x="214.68" y="12.3900000000001" as="sourcePoint" />
            <mxPoint x="229.68" y="12.3900000000001" as="targetPoint" />
          </mxGeometry>
        </mxCell>
        <mxCell id="73IZ8mgDGRezHLraqpfd-106" value="" style="edgeStyle=orthogonalEdgeStyle;rounded=0;orthogonalLoop=1;jettySize=auto;html=1;" edge="1" parent="73IZ8mgDGRezHLraqpfd-98">
          <mxGeometry relative="1" as="geometry">
            <mxPoint x="110" y="12.450000000000045" as="sourcePoint" />
            <mxPoint x="125" y="12.450000000000045" as="targetPoint" />
          </mxGeometry>
        </mxCell>
        <mxCell id="73IZ8mgDGRezHLraqpfd-107" value="" style="endArrow=none;dashed=1;html=1;dashPattern=1 3;strokeWidth=2;" edge="1" parent="73IZ8mgDGRezHLraqpfd-67">
          <mxGeometry x="-43.09" y="164" width="50" height="50" as="geometry">
            <mxPoint x="166.91" y="70" as="sourcePoint" />
            <mxPoint x="166.91" y="55" as="targetPoint" />
          </mxGeometry>
        </mxCell>
        <mxCell id="73IZ8mgDGRezHLraqpfd-108" value="&lt;b&gt;Request&lt;/b&gt;" style="swimlane;fontStyle=0;childLayout=stackLayout;horizontal=1;startSize=20;fillColor=none;horizontalStack=0;resizeParent=1;resizeParentMax=0;resizeLast=0;collapsible=1;marginBottom=0;whiteSpace=wrap;html=1;" vertex="1" parent="1">
          <mxGeometry x="670" y="675" width="100" height="104" as="geometry" />
        </mxCell>
        <mxCell id="73IZ8mgDGRezHLraqpfd-109" value="+ Op" style="text;strokeColor=none;fillColor=none;align=left;verticalAlign=top;spacingLeft=4;spacingRight=4;overflow=hidden;rotatable=0;points=[[0,0.5],[1,0.5]];portConstraint=eastwest;whiteSpace=wrap;html=1;fontSize=10;fontStyle=1" vertex="1" parent="73IZ8mgDGRezHLraqpfd-108">
          <mxGeometry y="20" width="100" height="21" as="geometry" />
        </mxCell>
        <mxCell id="73IZ8mgDGRezHLraqpfd-110" value="+ Read Pages" style="text;strokeColor=none;fillColor=none;align=left;verticalAlign=top;spacingLeft=4;spacingRight=4;overflow=hidden;rotatable=0;points=[[0,0.5],[1,0.5]];portConstraint=eastwest;whiteSpace=wrap;html=1;fontSize=10;fontStyle=1" vertex="1" parent="73IZ8mgDGRezHLraqpfd-108">
          <mxGeometry y="41" width="100" height="21" as="geometry" />
        </mxCell>
        <mxCell id="73IZ8mgDGRezHLraqpfd-111" value="+ Write Pages" style="text;strokeColor=none;fillColor=none;align=left;verticalAlign=top;spacingLeft=4;spacingRight=4;overflow=hidden;rotatable=0;points=[[0,0.5],[1,0.5]];portConstraint=eastwest;whiteSpace=wrap;html=1;fontSize=10;fontStyle=1" vertex="1" parent="73IZ8mgDGRezHLraqpfd-108">
          <mxGeometry y="62" width="100" height="21" as="geometry" />
        </mxCell>
        <mxCell id="73IZ8mgDGRezHLraqpfd-112" value="+ Num of Cycle" style="text;strokeColor=none;fillColor=none;align=left;verticalAlign=top;spacingLeft=4;spacingRight=4;overflow=hidden;rotatable=0;points=[[0,0.5],[1,0.5]];portConstraint=eastwest;whiteSpace=wrap;html=1;fontSize=10;fontStyle=1" vertex="1" parent="73IZ8mgDGRezHLraqpfd-108">
          <mxGeometry y="83" width="100" height="21" as="geometry" />
        </mxCell>
        <mxCell id="73IZ8mgDGRezHLraqpfd-113" value="" style="endArrow=none;html=1;strokeWidth=2;fontSize=16;exitX=0;exitY=0;exitDx=0;exitDy=0;entryX=0.094;entryY=1.098;entryDx=0;entryDy=0;fontStyle=1;dashed=1;entryPerimeter=0;" edge="1" parent="1" source="73IZ8mgDGRezHLraqpfd-108" target="73IZ8mgDGRezHLraqpfd-74">
          <mxGeometry width="50" height="50" relative="1" as="geometry">
            <mxPoint x="1311" y="625" as="sourcePoint" />
            <mxPoint x="1291.3200000000002" y="465" as="targetPoint" />
          </mxGeometry>
        </mxCell>
        <mxCell id="73IZ8mgDGRezHLraqpfd-114" value="" style="endArrow=none;html=1;strokeWidth=2;fontSize=16;exitX=1;exitY=0;exitDx=0;exitDy=0;entryX=0.918;entryY=1;entryDx=0;entryDy=0;fontStyle=1;dashed=1;entryPerimeter=0;" edge="1" parent="1" source="73IZ8mgDGRezHLraqpfd-108" target="73IZ8mgDGRezHLraqpfd-74">
          <mxGeometry width="50" height="50" relative="1" as="geometry">
            <mxPoint x="1311" y="625" as="sourcePoint" />
            <mxPoint x="1291.3200000000002" y="465" as="targetPoint" />
          </mxGeometry>
        </mxCell>
        <mxCell id="73IZ8mgDGRezHLraqpfd-115" value="" style="rounded=0;whiteSpace=wrap;html=1;strokeColor=default;fontFamily=Helvetica;fontSize=12;fontColor=default;fillColor=none;dashed=1;strokeWidth=3;" vertex="1" parent="1">
          <mxGeometry x="40" y="340" width="560" height="95" as="geometry" />
        </mxCell>
        <mxCell id="73IZ8mgDGRezHLraqpfd-116" value="&lt;span style=&quot;font-family: &amp;quot;calibri&amp;quot; ; font-weight: bold&quot;&gt;&lt;font style=&quot;font-size: 20px&quot;&gt;Applications&lt;/font&gt;&lt;/span&gt;" style="text;html=1;strokeColor=none;fillColor=none;align=center;verticalAlign=middle;whiteSpace=wrap;rounded=0;dashed=1;dashPattern=1 2;" vertex="1" parent="1">
          <mxGeometry x="215" y="345" width="210" height="20" as="geometry" />
        </mxCell>
        <mxCell id="73IZ8mgDGRezHLraqpfd-117" value="" style="rounded=1;whiteSpace=wrap;html=1;strokeColor=default;fontFamily=Helvetica;fontSize=12;fontColor=default;fillColor=none;strokeWidth=2;" vertex="1" parent="1">
          <mxGeometry x="75" y="374" width="160" height="50" as="geometry" />
        </mxCell>
        <mxCell id="73IZ8mgDGRezHLraqpfd-118" value="$$A_1$$" style="text;html=1;align=center;verticalAlign=middle;resizable=1;points=[];autosize=1;fontSize=18;movable=1;rotatable=1;deletable=1;editable=1;locked=0;connectable=1;" vertex="1" parent="1">
          <mxGeometry x="202.12" y="374" width="30" height="30" as="geometry" />
        </mxCell>
        <mxCell id="73IZ8mgDGRezHLraqpfd-119" value="" style="group" vertex="1" connectable="0" parent="1">
          <mxGeometry x="90" y="378.31999999999994" width="117.12" height="41.36" as="geometry" />
        </mxCell>
        <mxCell id="73IZ8mgDGRezHLraqpfd-120" value="" style="rounded=0;whiteSpace=wrap;html=1;strokeWidth=2;" vertex="1" parent="73IZ8mgDGRezHLraqpfd-119">
          <mxGeometry width="36.06137515078402" height="33.293816319063396" as="geometry" />
        </mxCell>
        <mxCell id="73IZ8mgDGRezHLraqpfd-121" value="" style="rounded=0;whiteSpace=wrap;html=1;strokeWidth=2;" vertex="1" parent="73IZ8mgDGRezHLraqpfd-119">
          <mxGeometry x="2.8306186455282347" y="3.2789364556653333" width="36.06137515078402" height="33.293816319063396" as="geometry" />
        </mxCell>
        <mxCell id="73IZ8mgDGRezHLraqpfd-122" value="" style="rounded=0;whiteSpace=wrap;html=1;strokeWidth=2;" vertex="1" parent="73IZ8mgDGRezHLraqpfd-119">
          <mxGeometry x="6.327265207651187" y="7.0623246737407195" width="36.06137515078402" height="33.293816319063396" as="geometry" />
        </mxCell>
        <mxCell id="73IZ8mgDGRezHLraqpfd-123" value="" style="rounded=0;whiteSpace=wrap;html=1;strokeWidth=2;" vertex="1" parent="73IZ8mgDGRezHLraqpfd-119">
          <mxGeometry x="48.94296053765263" y="9.831764849371792" width="25.046686196794724" height="21.69142578363221" as="geometry" />
        </mxCell>
        <mxCell id="73IZ8mgDGRezHLraqpfd-124" value="" style="rounded=0;whiteSpace=wrap;html=1;strokeWidth=2;" vertex="1" parent="73IZ8mgDGRezHLraqpfd-119">
          <mxGeometry x="51.859355505772896" y="12.606249542627072" width="25.046686196794724" height="21.69142578363221" as="geometry" />
        </mxCell>
        <mxCell id="73IZ8mgDGRezHLraqpfd-125" value="" style="rounded=0;whiteSpace=wrap;html=1;strokeWidth=2;" vertex="1" parent="73IZ8mgDGRezHLraqpfd-119">
          <mxGeometry x="54.412462519386054" y="15.128508354677331" width="25.046686196794724" height="21.69142578363221" as="geometry" />
        </mxCell>
        <mxCell id="73IZ8mgDGRezHLraqpfd-126" value="" style="rounded=0;whiteSpace=wrap;html=1;strokeWidth=2;" vertex="1" parent="73IZ8mgDGRezHLraqpfd-119">
          <mxGeometry x="56.905021540582005" y="18.39735577509447" width="25.046686196794724" height="21.69142578363221" as="geometry" />
        </mxCell>
        <mxCell id="73IZ8mgDGRezHLraqpfd-127" value="" style="rounded=0;whiteSpace=wrap;html=1;strokeWidth=2;" vertex="1" parent="73IZ8mgDGRezHLraqpfd-119">
          <mxGeometry x="89.55048078580032" y="15.128508354677331" width="13.885672927795946" height="12.611294060251284" as="geometry" />
        </mxCell>
        <mxCell id="73IZ8mgDGRezHLraqpfd-128" value="" style="rounded=0;whiteSpace=wrap;html=1;strokeWidth=2;" vertex="1" parent="73IZ8mgDGRezHLraqpfd-119">
          <mxGeometry x="92.28523177666715" y="17.90299304793261" width="13.885672927795946" height="12.611294060251284" as="geometry" />
        </mxCell>
        <mxCell id="73IZ8mgDGRezHLraqpfd-129" value="" style="rounded=0;whiteSpace=wrap;html=1;strokeWidth=2;" vertex="1" parent="73IZ8mgDGRezHLraqpfd-119">
          <mxGeometry x="95.54473203515414" y="20.91961458714473" width="13.885672927795946" height="12.611294060251284" as="geometry" />
        </mxCell>
        <mxCell id="73IZ8mgDGRezHLraqpfd-130" value="" style="rounded=0;whiteSpace=wrap;html=1;strokeWidth=2;" vertex="1" parent="73IZ8mgDGRezHLraqpfd-119">
          <mxGeometry x="98.30975702222979" y="23.69409928040001" width="13.885672927795946" height="12.611294060251284" as="geometry" />
        </mxCell>
        <mxCell id="73IZ8mgDGRezHLraqpfd-131" value="" style="rounded=0;whiteSpace=wrap;html=1;strokeWidth=2;" vertex="1" parent="73IZ8mgDGRezHLraqpfd-119">
          <mxGeometry x="100.71149405479927" y="26.22644712769846" width="13.885672927795946" height="12.611294060251284" as="geometry" />
        </mxCell>
        <mxCell id="73IZ8mgDGRezHLraqpfd-132" value="" style="rounded=0;whiteSpace=wrap;html=1;strokeWidth=2;" vertex="1" parent="73IZ8mgDGRezHLraqpfd-119">
          <mxGeometry x="103.23432707220405" y="28.748705939748717" width="13.885672927795946" height="12.611294060251284" as="geometry" />
        </mxCell>
        <mxCell id="73IZ8mgDGRezHLraqpfd-133" value="" style="rounded=0;whiteSpace=wrap;html=1;strokeWidth=2;dashed=1;dashPattern=1 1;" vertex="1" parent="73IZ8mgDGRezHLraqpfd-119">
          <mxGeometry x="22.998145786661997" y="15.996165386022748" width="9.728044115112858" height="8.8329503598" as="geometry" />
        </mxCell>
        <mxCell id="73IZ8mgDGRezHLraqpfd-134" value="" style="rounded=0;whiteSpace=wrap;html=1;strokeWidth=2;dashed=1;dashPattern=1 1;" vertex="1" parent="73IZ8mgDGRezHLraqpfd-119">
          <mxGeometry x="64.58957091159724" y="24.82911574582263" width="6.5190005169739695" height="6.951345286010507" as="geometry" />
        </mxCell>
        <mxCell id="73IZ8mgDGRezHLraqpfd-135" value="" style="rounded=0;whiteSpace=wrap;html=1;strokeWidth=2;dashed=1;dashPattern=1 1;" vertex="1" parent="73IZ8mgDGRezHLraqpfd-119">
          <mxGeometry x="106.91766327761492" y="32.03268691303826" width="6.5190005169739695" height="6.951345286010507" as="geometry" />
        </mxCell>
        <mxCell id="73IZ8mgDGRezHLraqpfd-136" value="" style="endArrow=none;html=1;strokeWidth=2;exitX=1;exitY=0;exitDx=0;exitDy=0;entryX=0;entryY=0.5;entryDx=0;entryDy=0;" edge="1" parent="73IZ8mgDGRezHLraqpfd-119" source="73IZ8mgDGRezHLraqpfd-133" target="73IZ8mgDGRezHLraqpfd-134">
          <mxGeometry width="50" height="50" relative="1" as="geometry">
            <mxPoint x="31.787696019300316" y="21.186974021222156" as="sourcePoint" />
            <mxPoint x="57.016026193348175" y="-4.035614099280411" as="targetPoint" />
          </mxGeometry>
        </mxCell>
        <mxCell id="73IZ8mgDGRezHLraqpfd-137" value="" style="endArrow=none;html=1;strokeWidth=2;exitX=1;exitY=1;exitDx=0;exitDy=0;entryX=0;entryY=0.5;entryDx=0;entryDy=0;" edge="1" parent="73IZ8mgDGRezHLraqpfd-119" source="73IZ8mgDGRezHLraqpfd-133" target="73IZ8mgDGRezHLraqpfd-134">
          <mxGeometry width="50" height="50" relative="1" as="geometry">
            <mxPoint x="28.084177149750012" y="23.96650323210165" as="sourcePoint" />
            <mxPoint x="64.89231087368577" y="33.662066105622735" as="targetPoint" />
          </mxGeometry>
        </mxCell>
        <mxCell id="73IZ8mgDGRezHLraqpfd-138" value="" style="endArrow=none;html=1;strokeWidth=2;entryX=0;entryY=0.5;entryDx=0;entryDy=0;" edge="1" parent="73IZ8mgDGRezHLraqpfd-119" target="73IZ8mgDGRezHLraqpfd-135">
          <mxGeometry width="50" height="50" relative="1" as="geometry">
            <mxPoint x="71.64845769429594" y="24.718136358092522" as="sourcePoint" />
            <mxPoint x="103.56606952266065" y="35.49604084400531" as="targetPoint" />
          </mxGeometry>
        </mxCell>
        <mxCell id="73IZ8mgDGRezHLraqpfd-139" value="" style="endArrow=none;html=1;strokeWidth=2;entryX=0;entryY=0.5;entryDx=0;entryDy=0;exitX=1.016;exitY=0.909;exitDx=0;exitDy=0;exitPerimeter=0;" edge="1" parent="73IZ8mgDGRezHLraqpfd-119" source="73IZ8mgDGRezHLraqpfd-134" target="73IZ8mgDGRezHLraqpfd-135">
          <mxGeometry width="50" height="50" relative="1" as="geometry">
            <mxPoint x="72.15302429777691" y="31.27600926942318" as="sourcePoint" />
            <mxPoint x="106.91766327761466" y="42.5303280887914" as="targetPoint" />
          </mxGeometry>
        </mxCell>
        <mxCell id="73IZ8mgDGRezHLraqpfd-140" value="" style="rounded=1;whiteSpace=wrap;html=1;strokeColor=default;fontFamily=Helvetica;fontSize=12;fontColor=default;fillColor=none;strokeWidth=2;" vertex="1" parent="1">
          <mxGeometry x="245.5" y="374" width="160" height="50" as="geometry" />
        </mxCell>
        <mxCell id="73IZ8mgDGRezHLraqpfd-141" value="$$A_2$$" style="text;html=1;align=center;verticalAlign=middle;resizable=1;points=[];autosize=1;fontSize=18;movable=1;rotatable=1;deletable=1;editable=1;locked=0;connectable=1;" vertex="1" parent="1">
          <mxGeometry x="340.62" y="369" width="95" height="40" as="geometry" />
        </mxCell>
        <mxCell id="73IZ8mgDGRezHLraqpfd-142" value="" style="rounded=1;whiteSpace=wrap;html=1;strokeColor=default;fontFamily=Helvetica;fontSize=12;fontColor=default;fillColor=none;strokeWidth=2;" vertex="1" parent="1">
          <mxGeometry x="414" y="374" width="160" height="50" as="geometry" />
        </mxCell>
        <mxCell id="73IZ8mgDGRezHLraqpfd-143" value="$$A_3$$" style="text;html=1;align=center;verticalAlign=middle;resizable=1;points=[];autosize=1;fontSize=18;movable=1;rotatable=1;deletable=1;editable=1;locked=0;connectable=1;" vertex="1" parent="1">
          <mxGeometry x="509.12" y="369" width="95" height="40" as="geometry" />
        </mxCell>
        <mxCell id="73IZ8mgDGRezHLraqpfd-144" value="" style="group" vertex="1" connectable="0" parent="1">
          <mxGeometry x="260" y="380" width="114.01" height="40" as="geometry" />
        </mxCell>
        <mxCell id="73IZ8mgDGRezHLraqpfd-145" value="" style="rounded=0;whiteSpace=wrap;html=1;strokeWidth=2;" vertex="1" parent="73IZ8mgDGRezHLraqpfd-144">
          <mxGeometry x="91.24501623376607" y="0.4999999999998863" width="14.1484271284271" height="12.5" as="geometry" />
        </mxCell>
        <mxCell id="73IZ8mgDGRezHLraqpfd-146" value="" style="rounded=0;whiteSpace=wrap;html=1;strokeWidth=2;" vertex="1" parent="73IZ8mgDGRezHLraqpfd-144">
          <mxGeometry x="94.03151605339092" y="3.2499999999998863" width="14.1484271284271" height="12.5" as="geometry" />
        </mxCell>
        <mxCell id="73IZ8mgDGRezHLraqpfd-147" value="" style="rounded=0;whiteSpace=wrap;html=1;strokeWidth=2;" vertex="1" parent="73IZ8mgDGRezHLraqpfd-144">
          <mxGeometry x="97.35269480519469" y="6.239999999999895" width="14.1484271284271" height="12.5" as="geometry" />
        </mxCell>
        <mxCell id="73IZ8mgDGRezHLraqpfd-148" value="" style="rounded=0;whiteSpace=wrap;html=1;strokeWidth=2;" vertex="1" parent="73IZ8mgDGRezHLraqpfd-144">
          <mxGeometry x="49.86909271284238" y="0.4999999999998863" width="25.520636724386673" height="21.5" as="geometry" />
        </mxCell>
        <mxCell id="73IZ8mgDGRezHLraqpfd-149" value="" style="rounded=0;whiteSpace=wrap;html=1;strokeWidth=2;" vertex="1" parent="73IZ8mgDGRezHLraqpfd-144">
          <mxGeometry x="52.8406737012987" y="3.2499999999998863" width="25.520636724386673" height="21.5" as="geometry" />
        </mxCell>
        <mxCell id="73IZ8mgDGRezHLraqpfd-150" value="" style="endArrow=none;html=1;strokeWidth=2;entryX=0;entryY=0.5;entryDx=0;entryDy=0;" edge="1" parent="73IZ8mgDGRezHLraqpfd-144" target="73IZ8mgDGRezHLraqpfd-167">
          <mxGeometry width="50" height="50" relative="1" as="geometry">
            <mxPoint x="65.60099206349194" y="9.110000000000014" as="sourcePoint" />
            <mxPoint x="98.12257077380946" y="19.792789999999854" as="targetPoint" />
          </mxGeometry>
        </mxCell>
        <mxCell id="73IZ8mgDGRezHLraqpfd-151" value="" style="rounded=0;whiteSpace=wrap;html=1;strokeWidth=2;dashed=1;dashPattern=1 1;" vertex="1" parent="73IZ8mgDGRezHLraqpfd-144">
          <mxGeometry x="58.408532196969475" y="9.219999999999914" width="6.64235750360749" height="6.89" as="geometry" />
        </mxCell>
        <mxCell id="73IZ8mgDGRezHLraqpfd-152" value="" style="rounded=0;whiteSpace=wrap;html=1;strokeWidth=2;" vertex="1" parent="73IZ8mgDGRezHLraqpfd-144">
          <mxGeometry width="36.74375315656559" height="33" as="geometry" />
        </mxCell>
        <mxCell id="73IZ8mgDGRezHLraqpfd-153" value="" style="rounded=0;whiteSpace=wrap;html=1;strokeWidth=2;" vertex="1" parent="73IZ8mgDGRezHLraqpfd-144">
          <mxGeometry x="2.8841815476191073" y="3.25" width="36.74375315656559" height="33" as="geometry" />
        </mxCell>
        <mxCell id="73IZ8mgDGRezHLraqpfd-154" value="" style="rounded=0;whiteSpace=wrap;html=1;strokeWidth=2;" vertex="1" parent="73IZ8mgDGRezHLraqpfd-144">
          <mxGeometry x="6.4469940476190155" y="7" width="36.74375315656559" height="33" as="geometry" />
        </mxCell>
        <mxCell id="73IZ8mgDGRezHLraqpfd-155" value="" style="rounded=0;whiteSpace=wrap;html=1;strokeWidth=2;" vertex="1" parent="73IZ8mgDGRezHLraqpfd-144">
          <mxGeometry x="55.44209235209185" y="14.99499999999989" width="25.520636724386673" height="21.5" as="geometry" />
        </mxCell>
        <mxCell id="73IZ8mgDGRezHLraqpfd-156" value="" style="rounded=0;whiteSpace=wrap;html=1;strokeWidth=2;" vertex="1" parent="73IZ8mgDGRezHLraqpfd-144">
          <mxGeometry x="57.98181727994181" y="18.2349999999999" width="25.520636724386673" height="21.5" as="geometry" />
        </mxCell>
        <mxCell id="73IZ8mgDGRezHLraqpfd-157" value="" style="rounded=0;whiteSpace=wrap;html=1;strokeWidth=2;" vertex="1" parent="73IZ8mgDGRezHLraqpfd-144">
          <mxGeometry x="94.84381673881667" y="22.489999999999895" width="14.1484271284271" height="12.5" as="geometry" />
        </mxCell>
        <mxCell id="73IZ8mgDGRezHLraqpfd-158" value="" style="rounded=0;whiteSpace=wrap;html=1;strokeWidth=2;" vertex="1" parent="73IZ8mgDGRezHLraqpfd-144">
          <mxGeometry x="97.29100108225113" y="24.999999999999886" width="14.1484271284271" height="12.5" as="geometry" />
        </mxCell>
        <mxCell id="73IZ8mgDGRezHLraqpfd-159" value="" style="rounded=0;whiteSpace=wrap;html=1;strokeWidth=2;" vertex="1" parent="73IZ8mgDGRezHLraqpfd-144">
          <mxGeometry x="99.86157287157292" y="27.499999999999886" width="14.1484271284271" height="12.5" as="geometry" />
        </mxCell>
        <mxCell id="73IZ8mgDGRezHLraqpfd-160" value="" style="rounded=0;whiteSpace=wrap;html=1;strokeWidth=2;dashed=1;dashPattern=1 1;" vertex="1" parent="73IZ8mgDGRezHLraqpfd-144">
          <mxGeometry x="23.433332431457348" y="15.855000000000018" width="9.9121248196248" height="8.755" as="geometry" />
        </mxCell>
        <mxCell id="73IZ8mgDGRezHLraqpfd-161" value="" style="rounded=0;whiteSpace=wrap;html=1;strokeWidth=2;dashed=1;dashPattern=1 1;" vertex="1" parent="73IZ8mgDGRezHLraqpfd-144">
          <mxGeometry x="65.81177895021621" y="24.6099999999999" width="6.64235750360749" height="6.89" as="geometry" />
        </mxCell>
        <mxCell id="73IZ8mgDGRezHLraqpfd-162" value="" style="rounded=0;whiteSpace=wrap;html=1;strokeWidth=2;dashed=1;dashPattern=1 1;" vertex="1" parent="73IZ8mgDGRezHLraqpfd-144">
          <mxGeometry x="103.61460768398257" y="30.754999999999995" width="6.64235750360749" height="6.89" as="geometry" />
        </mxCell>
        <mxCell id="73IZ8mgDGRezHLraqpfd-163" value="" style="endArrow=none;html=1;strokeWidth=2;exitX=1;exitY=0;exitDx=0;exitDy=0;entryX=0;entryY=0.5;entryDx=0;entryDy=0;" edge="1" parent="73IZ8mgDGRezHLraqpfd-144" source="73IZ8mgDGRezHLraqpfd-160" target="73IZ8mgDGRezHLraqpfd-161">
          <mxGeometry width="50" height="50" relative="1" as="geometry">
            <mxPoint x="32.38920454545448" y="21" as="sourcePoint" />
            <mxPoint x="58.09492243867233" y="-4" as="targetPoint" />
          </mxGeometry>
        </mxCell>
        <mxCell id="73IZ8mgDGRezHLraqpfd-164" value="" style="endArrow=none;html=1;strokeWidth=2;exitX=1;exitY=1;exitDx=0;exitDy=0;entryX=0;entryY=0.5;entryDx=0;entryDy=0;" edge="1" parent="73IZ8mgDGRezHLraqpfd-144" source="73IZ8mgDGRezHLraqpfd-160" target="73IZ8mgDGRezHLraqpfd-161">
          <mxGeometry width="50" height="50" relative="1" as="geometry">
            <mxPoint x="28.61560515873003" y="23.75500000000011" as="sourcePoint" />
            <mxPoint x="66.12024756493477" y="33.36500000000001" as="targetPoint" />
          </mxGeometry>
        </mxCell>
        <mxCell id="73IZ8mgDGRezHLraqpfd-165" value="" style="endArrow=none;html=1;strokeWidth=2;entryX=0;entryY=0.5;entryDx=0;entryDy=0;" edge="1" parent="73IZ8mgDGRezHLraqpfd-144" target="73IZ8mgDGRezHLraqpfd-162">
          <mxGeometry width="50" height="50" relative="1" as="geometry">
            <mxPoint x="73.00423881673868" y="24.5" as="sourcePoint" />
            <mxPoint x="105.52581752705618" y="35.18278999999984" as="targetPoint" />
          </mxGeometry>
        </mxCell>
        <mxCell id="73IZ8mgDGRezHLraqpfd-166" value="" style="endArrow=none;html=1;strokeWidth=2;entryX=0;entryY=0.5;entryDx=0;entryDy=0;exitX=1.016;exitY=0.909;exitDx=0;exitDy=0;exitPerimeter=0;" edge="1" parent="73IZ8mgDGRezHLraqpfd-144" source="73IZ8mgDGRezHLraqpfd-161" target="73IZ8mgDGRezHLraqpfd-162">
          <mxGeometry width="50" height="50" relative="1" as="geometry">
            <mxPoint x="73.51835317460304" y="31" as="sourcePoint" />
            <mxPoint x="108.94083243145704" y="42.15499999999997" as="targetPoint" />
          </mxGeometry>
        </mxCell>
        <mxCell id="73IZ8mgDGRezHLraqpfd-167" value="" style="rounded=0;whiteSpace=wrap;html=1;strokeWidth=2;dashed=1;dashPattern=1 1;" vertex="1" parent="73IZ8mgDGRezHLraqpfd-144">
          <mxGeometry x="101.53758567821053" y="8.860000000000014" width="6.64235750360749" height="6.89" as="geometry" />
        </mxCell>
        <mxCell id="73IZ8mgDGRezHLraqpfd-168" value="" style="endArrow=none;html=1;strokeWidth=2;exitX=1;exitY=0;exitDx=0;exitDy=0;entryX=0;entryY=0.5;entryDx=0;entryDy=0;" edge="1" parent="73IZ8mgDGRezHLraqpfd-144" source="73IZ8mgDGRezHLraqpfd-160" target="73IZ8mgDGRezHLraqpfd-151">
          <mxGeometry width="50" height="50" relative="1" as="geometry">
            <mxPoint x="32.38920454545448" y="21" as="sourcePoint" />
            <mxPoint x="58.09492243867233" y="-4" as="targetPoint" />
          </mxGeometry>
        </mxCell>
        <mxCell id="73IZ8mgDGRezHLraqpfd-169" value="" style="endArrow=none;html=1;strokeWidth=2;entryX=0;entryY=0.5;entryDx=0;entryDy=0;exitX=1.016;exitY=0.909;exitDx=0;exitDy=0;exitPerimeter=0;" edge="1" parent="73IZ8mgDGRezHLraqpfd-144" source="73IZ8mgDGRezHLraqpfd-151" target="73IZ8mgDGRezHLraqpfd-167">
          <mxGeometry width="50" height="50" relative="1" as="geometry">
            <mxPoint x="66.1151064213563" y="15.610000000000014" as="sourcePoint" />
            <mxPoint x="101.5375856782103" y="26.764999999999986" as="targetPoint" />
          </mxGeometry>
        </mxCell>
        <mxCell id="73IZ8mgDGRezHLraqpfd-170" value="" style="endArrow=none;html=1;strokeWidth=2;exitX=1;exitY=1;exitDx=0;exitDy=0;entryX=0;entryY=0.5;entryDx=0;entryDy=0;" edge="1" parent="73IZ8mgDGRezHLraqpfd-144" source="73IZ8mgDGRezHLraqpfd-160" target="73IZ8mgDGRezHLraqpfd-151">
          <mxGeometry width="50" height="50" relative="1" as="geometry">
            <mxPoint x="28.61560515873003" y="23.75500000000011" as="sourcePoint" />
            <mxPoint x="66.12024756493477" y="33.36500000000001" as="targetPoint" />
          </mxGeometry>
        </mxCell>
        <mxCell id="73IZ8mgDGRezHLraqpfd-171" value="" style="group" vertex="1" connectable="0" parent="1">
          <mxGeometry x="430" y="380" width="109" height="39.15" as="geometry" />
        </mxCell>
        <mxCell id="73IZ8mgDGRezHLraqpfd-172" value="" style="rounded=0;whiteSpace=wrap;html=1;strokeWidth=2;" vertex="1" parent="73IZ8mgDGRezHLraqpfd-171">
          <mxGeometry x="89.17455877685805" y="10.403024999999884" width="13.847617828955986" height="12.234375" as="geometry" />
        </mxCell>
        <mxCell id="73IZ8mgDGRezHLraqpfd-173" value="" style="rounded=0;whiteSpace=wrap;html=1;strokeWidth=2;" vertex="1" parent="73IZ8mgDGRezHLraqpfd-171">
          <mxGeometry x="91.90181490450857" y="13.094587499999886" width="13.847617828955986" height="12.234375" as="geometry" />
        </mxCell>
        <mxCell id="73IZ8mgDGRezHLraqpfd-174" value="" style="rounded=0;whiteSpace=wrap;html=1;strokeWidth=2;" vertex="1" parent="73IZ8mgDGRezHLraqpfd-171">
          <mxGeometry x="95.15238217104402" y="16.021049999999867" width="13.847617828955986" height="12.234375" as="geometry" />
        </mxCell>
        <mxCell id="73IZ8mgDGRezHLraqpfd-175" value="" style="rounded=0;whiteSpace=wrap;html=1;strokeWidth=2;" vertex="1" parent="73IZ8mgDGRezHLraqpfd-171">
          <mxGeometry x="48.8088273767705" y="0.48937499999990114" width="24.978043206009268" height="21.043125" as="geometry" />
        </mxCell>
        <mxCell id="73IZ8mgDGRezHLraqpfd-176" value="" style="rounded=0;whiteSpace=wrap;html=1;strokeWidth=2;" vertex="1" parent="73IZ8mgDGRezHLraqpfd-171">
          <mxGeometry x="51.717229667881526" y="3.1809374999999007" width="24.978043206009268" height="21.043125" as="geometry" />
        </mxCell>
        <mxCell id="73IZ8mgDGRezHLraqpfd-177" value="" style="endArrow=none;html=1;strokeWidth=2;entryX=0;entryY=0.5;entryDx=0;entryDy=0;" edge="1" parent="73IZ8mgDGRezHLraqpfd-171" target="73IZ8mgDGRezHLraqpfd-190">
          <mxGeometry width="50" height="50" relative="1" as="geometry">
            <mxPoint x="64.20625127088603" y="8.916412500000026" as="sourcePoint" />
            <mxPoint x="96.03638963799472" y="19.37219321249987" as="targetPoint" />
          </mxGeometry>
        </mxCell>
        <mxCell id="73IZ8mgDGRezHLraqpfd-178" value="" style="rounded=0;whiteSpace=wrap;html=1;strokeWidth=2;dashed=1;dashPattern=1 1;" vertex="1" parent="73IZ8mgDGRezHLraqpfd-171">
          <mxGeometry x="57.16671008530835" y="9.024074999999902" width="6.501134533070907" height="6.743587499999999" as="geometry" />
        </mxCell>
        <mxCell id="73IZ8mgDGRezHLraqpfd-179" value="" style="rounded=0;whiteSpace=wrap;html=1;strokeWidth=2;" vertex="1" parent="73IZ8mgDGRezHLraqpfd-171">
          <mxGeometry width="35.962545284719646" height="32.298750000000005" as="geometry" />
        </mxCell>
        <mxCell id="73IZ8mgDGRezHLraqpfd-180" value="" style="rounded=0;whiteSpace=wrap;html=1;strokeWidth=2;" vertex="1" parent="73IZ8mgDGRezHLraqpfd-171">
          <mxGeometry x="2.822861047254541" y="3.1809375" width="35.962545284719646" height="32.298750000000005" as="geometry" />
        </mxCell>
        <mxCell id="73IZ8mgDGRezHLraqpfd-181" value="" style="rounded=0;whiteSpace=wrap;html=1;strokeWidth=2;" vertex="1" parent="73IZ8mgDGRezHLraqpfd-171">
          <mxGeometry x="6.309924693862921" y="6.85125" width="35.962545284719646" height="32.298750000000005" as="geometry" />
        </mxCell>
        <mxCell id="73IZ8mgDGRezHLraqpfd-182" value="" style="rounded=0;whiteSpace=wrap;html=1;strokeWidth=2;" vertex="1" parent="73IZ8mgDGRezHLraqpfd-171">
          <mxGeometry x="54.26333963207135" y="14.676356249999893" width="24.978043206009268" height="21.043125" as="geometry" />
        </mxCell>
        <mxCell id="73IZ8mgDGRezHLraqpfd-183" value="" style="rounded=0;whiteSpace=wrap;html=1;strokeWidth=2;" vertex="1" parent="73IZ8mgDGRezHLraqpfd-171">
          <mxGeometry x="56.74906754177494" y="17.847506249999878" width="24.978043206009268" height="21.043125" as="geometry" />
        </mxCell>
        <mxCell id="73IZ8mgDGRezHLraqpfd-184" value="" style="rounded=0;whiteSpace=wrap;html=1;strokeWidth=2;dashed=1;dashPattern=1 1;" vertex="1" parent="73IZ8mgDGRezHLraqpfd-171">
          <mxGeometry x="22.935117029208325" y="15.518081250000012" width="9.701383420867423" height="8.56895625" as="geometry" />
        </mxCell>
        <mxCell id="73IZ8mgDGRezHLraqpfd-185" value="" style="rounded=0;whiteSpace=wrap;html=1;strokeWidth=2;dashed=1;dashPattern=1 1;" vertex="1" parent="73IZ8mgDGRezHLraqpfd-171">
          <mxGeometry x="64.41255662371557" y="24.087037499999877" width="6.501134533070907" height="6.743587499999999" as="geometry" />
        </mxCell>
        <mxCell id="73IZ8mgDGRezHLraqpfd-186" value="" style="endArrow=none;html=1;strokeWidth=2;exitX=1;exitY=0;exitDx=0;exitDy=0;entryX=0;entryY=0.5;entryDx=0;entryDy=0;" edge="1" parent="73IZ8mgDGRezHLraqpfd-171" source="73IZ8mgDGRezHLraqpfd-184" target="73IZ8mgDGRezHLraqpfd-185">
          <mxGeometry width="50" height="50" relative="1" as="geometry">
            <mxPoint x="31.7005786055315" y="20.55375" as="sourcePoint" />
            <mxPoint x="56.85976797500097" y="-3.9149999999999996" as="targetPoint" />
          </mxGeometry>
        </mxCell>
        <mxCell id="73IZ8mgDGRezHLraqpfd-187" value="" style="endArrow=none;html=1;strokeWidth=2;exitX=1;exitY=1;exitDx=0;exitDy=0;entryX=0;entryY=0.5;entryDx=0;entryDy=0;" edge="1" parent="73IZ8mgDGRezHLraqpfd-171" source="73IZ8mgDGRezHLraqpfd-184" target="73IZ8mgDGRezHLraqpfd-185">
          <mxGeometry width="50" height="50" relative="1" as="geometry">
            <mxPoint x="28.007209606093316" y="23.250206250000108" as="sourcePoint" />
            <mxPoint x="64.71446689614916" y="32.65599374999998" as="targetPoint" />
          </mxGeometry>
        </mxCell>
        <mxCell id="73IZ8mgDGRezHLraqpfd-188" value="" style="endArrow=none;html=1;strokeWidth=2;entryX=0;entryY=0.5;entryDx=0;entryDy=0;" edge="1" parent="73IZ8mgDGRezHLraqpfd-171" target="73IZ8mgDGRezHLraqpfd-190">
          <mxGeometry width="50" height="50" relative="1" as="geometry">
            <mxPoint x="71.45209780929325" y="23.979374999999997" as="sourcePoint" />
            <mxPoint x="103.28223617640188" y="34.43515571249984" as="targetPoint" />
          </mxGeometry>
        </mxCell>
        <mxCell id="73IZ8mgDGRezHLraqpfd-189" value="" style="endArrow=none;html=1;strokeWidth=2;entryX=0;entryY=0.5;entryDx=0;entryDy=0;exitX=1.016;exitY=0.909;exitDx=0;exitDy=0;exitPerimeter=0;" edge="1" parent="73IZ8mgDGRezHLraqpfd-171" source="73IZ8mgDGRezHLraqpfd-185" target="73IZ8mgDGRezHLraqpfd-190">
          <mxGeometry width="50" height="50" relative="1" as="geometry">
            <mxPoint x="71.95528159668264" y="30.341249999999995" as="sourcePoint" />
            <mxPoint x="106.62464454781134" y="41.25920624999995" as="targetPoint" />
          </mxGeometry>
        </mxCell>
        <mxCell id="73IZ8mgDGRezHLraqpfd-190" value="" style="rounded=0;whiteSpace=wrap;html=1;strokeWidth=2;dashed=1;dashPattern=1 1;" vertex="1" parent="73IZ8mgDGRezHLraqpfd-171">
          <mxGeometry x="99.24829820039368" y="18.58537500000001" width="6.501134533070907" height="6.743587499999999" as="geometry" />
        </mxCell>
        <mxCell id="73IZ8mgDGRezHLraqpfd-191" value="" style="endArrow=none;html=1;strokeWidth=2;exitX=1;exitY=0;exitDx=0;exitDy=0;entryX=0;entryY=0.5;entryDx=0;entryDy=0;" edge="1" parent="73IZ8mgDGRezHLraqpfd-171" source="73IZ8mgDGRezHLraqpfd-184" target="73IZ8mgDGRezHLraqpfd-178">
          <mxGeometry width="50" height="50" relative="1" as="geometry">
            <mxPoint x="31.7005786055315" y="20.55375" as="sourcePoint" />
            <mxPoint x="56.85976797500097" y="-3.9149999999999996" as="targetPoint" />
          </mxGeometry>
        </mxCell>
        <mxCell id="73IZ8mgDGRezHLraqpfd-192" value="" style="endArrow=none;html=1;strokeWidth=2;entryX=0;entryY=0.5;entryDx=0;entryDy=0;exitX=1.016;exitY=0.909;exitDx=0;exitDy=0;exitPerimeter=0;" edge="1" parent="73IZ8mgDGRezHLraqpfd-171" source="73IZ8mgDGRezHLraqpfd-178" target="73IZ8mgDGRezHLraqpfd-190">
          <mxGeometry width="50" height="50" relative="1" as="geometry">
            <mxPoint x="64.70943505827542" y="15.278287500000026" as="sourcePoint" />
            <mxPoint x="99.37879800940418" y="26.196243749999976" as="targetPoint" />
          </mxGeometry>
        </mxCell>
        <mxCell id="73IZ8mgDGRezHLraqpfd-193" value="" style="endArrow=none;html=1;strokeWidth=2;exitX=1;exitY=1;exitDx=0;exitDy=0;entryX=0;entryY=0.5;entryDx=0;entryDy=0;" edge="1" parent="73IZ8mgDGRezHLraqpfd-171" source="73IZ8mgDGRezHLraqpfd-184" target="73IZ8mgDGRezHLraqpfd-178">
          <mxGeometry width="50" height="50" relative="1" as="geometry">
            <mxPoint x="28.007209606093316" y="23.250206250000108" as="sourcePoint" />
            <mxPoint x="64.71446689614916" y="32.65599374999998" as="targetPoint" />
          </mxGeometry>
        </mxCell>
      </root>
    </mxGraphModel>
  </diagram>
  <diagram id="yCPR1JiKiQFRWe1a3uUh" name="UML">
    <mxGraphModel dx="2390" dy="1450" grid="1" gridSize="10" guides="1" tooltips="1" connect="1" arrows="1" fold="1" page="1" pageScale="1" pageWidth="827" pageHeight="1169" math="0" shadow="0">
      <root>
        <mxCell id="0" />
        <mxCell id="SqEzRoBcsGHss-kbt-hw-676" value="Interface" style="locked=1;" parent="0" />
        <mxCell id="SqEzRoBcsGHss-kbt-hw-677" value="Kernel" style="swimlane;fontStyle=1;align=center;verticalAlign=top;childLayout=stackLayout;horizontal=1;startSize=26;horizontalStack=0;resizeParent=1;resizeParentMax=0;resizeLast=0;collapsible=1;marginBottom=0;whiteSpace=wrap;html=1;" parent="SqEzRoBcsGHss-kbt-hw-676" vertex="1">
          <mxGeometry x="2070" y="330" width="380" height="398" as="geometry" />
        </mxCell>
        <mxCell id="SqEzRoBcsGHss-kbt-hw-678" value="+ appID: const int" style="text;strokeColor=none;fillColor=none;align=left;verticalAlign=top;spacingLeft=4;spacingRight=4;overflow=hidden;rotatable=0;points=[[0,0.5],[1,0.5]];portConstraint=eastwest;whiteSpace=wrap;html=1;" parent="SqEzRoBcsGHss-kbt-hw-677" vertex="1">
          <mxGeometry y="26" width="380" height="26" as="geometry" />
        </mxCell>
        <mxCell id="SqEzRoBcsGHss-kbt-hw-679" value="+ modelID: const int" style="text;strokeColor=none;fillColor=none;align=left;verticalAlign=top;spacingLeft=4;spacingRight=4;overflow=hidden;rotatable=0;points=[[0,0.5],[1,0.5]];portConstraint=eastwest;whiteSpace=wrap;html=1;" parent="SqEzRoBcsGHss-kbt-hw-677" vertex="1">
          <mxGeometry y="52" width="380" height="26" as="geometry" />
        </mxCell>
        <mxCell id="SqEzRoBcsGHss-kbt-hw-680" value="+ kernelID: const int" style="text;strokeColor=none;fillColor=none;align=left;verticalAlign=top;spacingLeft=4;spacingRight=4;overflow=hidden;rotatable=0;points=[[0,0.5],[1,0.5]];portConstraint=eastwest;whiteSpace=wrap;html=1;" parent="SqEzRoBcsGHss-kbt-hw-677" vertex="1">
          <mxGeometry y="78" width="380" height="26" as="geometry" />
        </mxCell>
        <mxCell id="SqEzRoBcsGHss-kbt-hw-681" value="+ isFinish: bool" style="text;strokeColor=none;fillColor=none;align=left;verticalAlign=top;spacingLeft=4;spacingRight=4;overflow=hidden;rotatable=0;points=[[0,0.5],[1,0.5]];portConstraint=eastwest;whiteSpace=wrap;html=1;" parent="SqEzRoBcsGHss-kbt-hw-677" vertex="1">
          <mxGeometry y="104" width="380" height="26" as="geometry" />
        </mxCell>
        <mxCell id="SqEzRoBcsGHss-kbt-hw-682" value="+ isRunning: bool" style="text;strokeColor=none;fillColor=none;align=left;verticalAlign=top;spacingLeft=4;spacingRight=4;overflow=hidden;rotatable=0;points=[[0,0.5],[1,0.5]];portConstraint=eastwest;whiteSpace=wrap;html=1;" parent="SqEzRoBcsGHss-kbt-hw-677" vertex="1">
          <mxGeometry y="130" width="380" height="26" as="geometry" />
        </mxCell>
        <mxCell id="SqEzRoBcsGHss-kbt-hw-683" value="+ srcLayer: Layer*" style="text;strokeColor=none;fillColor=none;align=left;verticalAlign=top;spacingLeft=4;spacingRight=4;overflow=hidden;rotatable=0;points=[[0,0.5],[1,0.5]];portConstraint=eastwest;whiteSpace=wrap;html=1;" parent="SqEzRoBcsGHss-kbt-hw-677" vertex="1">
          <mxGeometry y="156" width="380" height="26" as="geometry" />
        </mxCell>
        <mxCell id="SqEzRoBcsGHss-kbt-hw-684" value="+ SM_List: list&amp;lt;int&amp;gt;*" style="text;strokeColor=none;fillColor=none;align=left;verticalAlign=top;spacingLeft=4;spacingRight=4;overflow=hidden;rotatable=0;points=[[0,0.5],[1,0.5]];portConstraint=eastwest;whiteSpace=wrap;html=1;" parent="SqEzRoBcsGHss-kbt-hw-677" vertex="1">
          <mxGeometry y="182" width="380" height="26" as="geometry" />
        </mxCell>
        <mxCell id="SqEzRoBcsGHss-kbt-hw-685" value="+ block_record: list&amp;lt;BlockRecord&amp;gt;" style="text;strokeColor=none;fillColor=none;align=left;verticalAlign=top;spacingLeft=4;spacingRight=4;overflow=hidden;rotatable=0;points=[[0,0.5],[1,0.5]];portConstraint=eastwest;whiteSpace=wrap;html=1;" parent="SqEzRoBcsGHss-kbt-hw-677" vertex="1">
          <mxGeometry y="208" width="380" height="26" as="geometry" />
        </mxCell>
        <mxCell id="SqEzRoBcsGHss-kbt-hw-686" value="+ requests: queue&amp;lt;Request*&amp;gt;" style="text;strokeColor=none;fillColor=none;align=left;verticalAlign=top;spacingLeft=4;spacingRight=4;overflow=hidden;rotatable=0;points=[[0,0.5],[1,0.5]];portConstraint=eastwest;whiteSpace=wrap;html=1;" parent="SqEzRoBcsGHss-kbt-hw-677" vertex="1">
          <mxGeometry y="234" width="380" height="26" as="geometry" />
        </mxCell>
        <mxCell id="SqEzRoBcsGHss-kbt-hw-687" value="+ dependencyKernels: vector&amp;lt;Kernel*&amp;gt;" style="text;strokeColor=none;fillColor=none;align=left;verticalAlign=top;spacingLeft=4;spacingRight=4;overflow=hidden;rotatable=0;points=[[0,0.5],[1,0.5]];portConstraint=eastwest;whiteSpace=wrap;html=1;" parent="SqEzRoBcsGHss-kbt-hw-677" vertex="1">
          <mxGeometry y="260" width="380" height="26" as="geometry" />
        </mxCell>
        <mxCell id="SqEzRoBcsGHss-kbt-hw-688" value="" style="line;strokeWidth=1;fillColor=none;align=left;verticalAlign=middle;spacingTop=-1;spacingLeft=3;spacingRight=3;rotatable=0;labelPosition=right;points=[];portConstraint=eastwest;strokeColor=inherit;" parent="SqEzRoBcsGHss-kbt-hw-677" vertex="1">
          <mxGeometry y="286" width="380" height="8" as="geometry" />
        </mxCell>
        <mxCell id="SqEzRoBcsGHss-kbt-hw-689" value="+ compileRequest (mmu: MMU*): bool" style="text;strokeColor=none;fillColor=none;align=left;verticalAlign=top;spacingLeft=4;spacingRight=4;overflow=hidden;rotatable=0;points=[[0,0.5],[1,0.5]];portConstraint=eastwest;whiteSpace=wrap;html=1;" parent="SqEzRoBcsGHss-kbt-hw-677" vertex="1">
          <mxGeometry y="294" width="380" height="26" as="geometry" />
        </mxCell>
        <mxCell id="SqEzRoBcsGHss-kbt-hw-690" value="+ addRequest (request: Request*): void" style="text;strokeColor=none;fillColor=none;align=left;verticalAlign=top;spacingLeft=4;spacingRight=4;overflow=hidden;rotatable=0;points=[[0,0.5],[1,0.5]];portConstraint=eastwest;whiteSpace=wrap;html=1;" parent="SqEzRoBcsGHss-kbt-hw-677" vertex="1">
          <mxGeometry y="320" width="380" height="26" as="geometry" />
        </mxCell>
        <mxCell id="SqEzRoBcsGHss-kbt-hw-691" value="+ accessRequest (): Request*" style="text;strokeColor=none;fillColor=none;align=left;verticalAlign=top;spacingLeft=4;spacingRight=4;overflow=hidden;rotatable=0;points=[[0,0.5],[1,0.5]];portConstraint=eastwest;whiteSpace=wrap;html=1;" parent="SqEzRoBcsGHss-kbt-hw-677" vertex="1">
          <mxGeometry y="346" width="380" height="26" as="geometry" />
        </mxCell>
        <mxCell id="SqEzRoBcsGHss-kbt-hw-692" value="+ memoryRelease (mmu: MMU" style="text;strokeColor=none;fillColor=none;align=left;verticalAlign=top;spacingLeft=4;spacingRight=4;overflow=hidden;rotatable=0;points=[[0,0.5],[1,0.5]];portConstraint=eastwest;whiteSpace=wrap;html=1;" parent="SqEzRoBcsGHss-kbt-hw-677" vertex="1">
          <mxGeometry y="372" width="380" height="26" as="geometry" />
        </mxCell>
        <mxCell id="SqEzRoBcsGHss-kbt-hw-693" value="template&amp;lt;Key, Value&amp;gt; TLB" style="swimlane;fontStyle=1;align=center;verticalAlign=top;childLayout=stackLayout;horizontal=1;startSize=26;horizontalStack=0;resizeParent=1;resizeParentMax=0;resizeLast=0;collapsible=1;marginBottom=0;whiteSpace=wrap;html=1;" parent="SqEzRoBcsGHss-kbt-hw-676" vertex="1">
          <mxGeometry x="1280" y="330" width="340" height="216" as="geometry" />
        </mxCell>
        <mxCell id="SqEzRoBcsGHss-kbt-hw-694" value="- capacity: unsigned" style="text;strokeColor=none;fillColor=none;align=left;verticalAlign=top;spacingLeft=4;spacingRight=4;overflow=hidden;rotatable=0;points=[[0,0.5],[1,0.5]];portConstraint=eastwest;whiteSpace=wrap;html=1;" parent="SqEzRoBcsGHss-kbt-hw-693" vertex="1">
          <mxGeometry y="26" width="340" height="26" as="geometry" />
        </mxCell>
        <mxCell id="SqEzRoBcsGHss-kbt-hw-695" value="- history: list&amp;lt;pair&amp;lt;Key, Value&amp;gt;&amp;gt;" style="text;strokeColor=none;fillColor=none;align=left;verticalAlign=top;spacingLeft=4;spacingRight=4;overflow=hidden;rotatable=0;points=[[0,0.5],[1,0.5]];portConstraint=eastwest;whiteSpace=wrap;html=1;" parent="SqEzRoBcsGHss-kbt-hw-693" vertex="1">
          <mxGeometry y="52" width="340" height="26" as="geometry" />
        </mxCell>
        <mxCell id="SqEzRoBcsGHss-kbt-hw-696" value="- table: unordered_map&amp;lt;key, list&amp;lt;pair&amp;lt;Key, Value&amp;gt;&amp;gt;::iterator&amp;gt;" style="text;strokeColor=none;fillColor=none;align=left;verticalAlign=top;spacingLeft=4;spacingRight=4;overflow=hidden;rotatable=0;points=[[0,0.5],[1,0.5]];portConstraint=eastwest;whiteSpace=wrap;html=1;" parent="SqEzRoBcsGHss-kbt-hw-693" vertex="1">
          <mxGeometry y="78" width="340" height="26" as="geometry" />
        </mxCell>
        <mxCell id="SqEzRoBcsGHss-kbt-hw-697" value="" style="line;strokeWidth=1;fillColor=none;align=left;verticalAlign=middle;spacingTop=-1;spacingLeft=3;spacingRight=3;rotatable=0;labelPosition=right;points=[];portConstraint=eastwest;strokeColor=inherit;" parent="SqEzRoBcsGHss-kbt-hw-693" vertex="1">
          <mxGeometry y="104" width="340" height="8" as="geometry" />
        </mxCell>
        <mxCell id="SqEzRoBcsGHss-kbt-hw-698" value="+ lookup (key: Key; value: Value&amp;amp;): bool" style="text;strokeColor=none;fillColor=none;align=left;verticalAlign=top;spacingLeft=4;spacingRight=4;overflow=hidden;rotatable=0;points=[[0,0.5],[1,0.5]];portConstraint=eastwest;whiteSpace=wrap;html=1;" parent="SqEzRoBcsGHss-kbt-hw-693" vertex="1">
          <mxGeometry y="112" width="340" height="26" as="geometry" />
        </mxCell>
        <mxCell id="SqEzRoBcsGHss-kbt-hw-699" value="+ insert (key: Key; value: Value): Value" style="text;strokeColor=none;fillColor=none;align=left;verticalAlign=top;spacingLeft=4;spacingRight=4;overflow=hidden;rotatable=0;points=[[0,0.5],[1,0.5]];portConstraint=eastwest;whiteSpace=wrap;html=1;" parent="SqEzRoBcsGHss-kbt-hw-693" vertex="1">
          <mxGeometry y="138" width="340" height="26" as="geometry" />
        </mxCell>
        <mxCell id="SqEzRoBcsGHss-kbt-hw-700" value="+ erase (key: Key): bool" style="text;strokeColor=none;fillColor=none;align=left;verticalAlign=top;spacingLeft=4;spacingRight=4;overflow=hidden;rotatable=0;points=[[0,0.5],[1,0.5]];portConstraint=eastwest;whiteSpace=wrap;html=1;" parent="SqEzRoBcsGHss-kbt-hw-693" vertex="1">
          <mxGeometry y="164" width="340" height="26" as="geometry" />
        </mxCell>
        <mxCell id="SqEzRoBcsGHss-kbt-hw-701" value="+ resize (new_capacity: unsigned): bool" style="text;strokeColor=none;fillColor=none;align=left;verticalAlign=top;spacingLeft=4;spacingRight=4;overflow=hidden;rotatable=0;points=[[0,0.5],[1,0.5]];portConstraint=eastwest;whiteSpace=wrap;html=1;" parent="SqEzRoBcsGHss-kbt-hw-693" vertex="1">
          <mxGeometry y="190" width="340" height="26" as="geometry" />
        </mxCell>
        <mxCell id="UBFY9NKoFfWOAkmvo0KO-5" value="Application" style="locked=1;" parent="0" />
        <mxCell id="SqEzRoBcsGHss-kbt-hw-567" value="Layer" style="swimlane;fontStyle=1;align=center;verticalAlign=top;childLayout=stackLayout;horizontal=1;startSize=26;horizontalStack=0;resizeParent=1;resizeParentMax=0;resizeLast=0;collapsible=1;marginBottom=0;whiteSpace=wrap;html=1;" parent="UBFY9NKoFfWOAkmvo0KO-5" vertex="1">
          <mxGeometry x="2600" y="330" width="670" height="424" as="geometry" />
        </mxCell>
        <mxCell id="SqEzRoBcsGHss-kbt-hw-568" value="+ layerID: const int" style="text;strokeColor=none;fillColor=none;align=left;verticalAlign=top;spacingLeft=4;spacingRight=4;overflow=hidden;rotatable=0;points=[[0,0.5],[1,0.5]];portConstraint=eastwest;whiteSpace=wrap;html=1;" parent="SqEzRoBcsGHss-kbt-hw-567" vertex="1">
          <mxGeometry y="26" width="670" height="26" as="geometry" />
        </mxCell>
        <mxCell id="SqEzRoBcsGHss-kbt-hw-569" value="&lt;span style=&quot;color: rgb(0, 0, 0); font-family: Helvetica; font-size: 12px; font-style: normal; font-variant-ligatures: normal; font-variant-caps: normal; font-weight: 400; letter-spacing: normal; orphans: 2; text-align: left; text-indent: 0px; text-transform: none; widows: 2; word-spacing: 0px; -webkit-text-stroke-width: 0px; background-color: rgb(251, 251, 251); text-decoration-thickness: initial; text-decoration-style: initial; text-decoration-color: initial; float: none; display: inline !important;&quot;&gt;+ layerType: const char*&lt;/span&gt;" style="text;strokeColor=none;fillColor=none;align=left;verticalAlign=top;spacingLeft=4;spacingRight=4;overflow=hidden;rotatable=0;points=[[0,0.5],[1,0.5]];portConstraint=eastwest;whiteSpace=wrap;html=1;" parent="SqEzRoBcsGHss-kbt-hw-567" vertex="1">
          <mxGeometry y="52" width="670" height="26" as="geometry" />
        </mxCell>
        <mxCell id="SqEzRoBcsGHss-kbt-hw-570" value="+ activationType: const char*" style="text;strokeColor=none;fillColor=none;align=left;verticalAlign=top;spacingLeft=4;spacingRight=4;overflow=hidden;rotatable=0;points=[[0,0.5],[1,0.5]];portConstraint=eastwest;whiteSpace=wrap;html=1;" parent="SqEzRoBcsGHss-kbt-hw-567" vertex="1">
          <mxGeometry y="78" width="670" height="26" as="geometry" />
        </mxCell>
        <mxCell id="SqEzRoBcsGHss-kbt-hw-571" value="# iFMapSize: vector&amp;lt;int&amp;gt;" style="text;strokeColor=none;fillColor=none;align=left;verticalAlign=top;spacingLeft=4;spacingRight=4;overflow=hidden;rotatable=0;points=[[0,0.5],[1,0.5]];portConstraint=eastwest;whiteSpace=wrap;html=1;" parent="SqEzRoBcsGHss-kbt-hw-567" vertex="1">
          <mxGeometry y="104" width="670" height="26" as="geometry" />
        </mxCell>
        <mxCell id="SqEzRoBcsGHss-kbt-hw-572" value="# oFMapSize: vector&amp;lt;int&amp;gt;" style="text;strokeColor=none;fillColor=none;align=left;verticalAlign=top;spacingLeft=4;spacingRight=4;overflow=hidden;rotatable=0;points=[[0,0.5],[1,0.5]];portConstraint=eastwest;whiteSpace=wrap;html=1;" parent="SqEzRoBcsGHss-kbt-hw-567" vertex="1">
          <mxGeometry y="130" width="670" height="26" as="geometry" />
        </mxCell>
        <mxCell id="SqEzRoBcsGHss-kbt-hw-573" value="# filterSize: vector&amp;lt;int&amp;gt;" style="text;strokeColor=none;fillColor=none;align=left;verticalAlign=top;spacingLeft=4;spacingRight=4;overflow=hidden;rotatable=0;points=[[0,0.5],[1,0.5]];portConstraint=eastwest;whiteSpace=wrap;html=1;" parent="SqEzRoBcsGHss-kbt-hw-567" vertex="1">
          <mxGeometry y="156" width="670" height="26" as="geometry" />
        </mxCell>
        <mxCell id="SqEzRoBcsGHss-kbt-hw-574" value="# iFMap: pair&amp;lt;int, vector&amp;lt;unsigned char&amp;gt;*&amp;gt;&amp;nbsp; &amp;lt;virtual addr, data stream&amp;gt;" style="text;strokeColor=none;fillColor=none;align=left;verticalAlign=top;spacingLeft=4;spacingRight=4;overflow=hidden;rotatable=0;points=[[0,0.5],[1,0.5]];portConstraint=eastwest;whiteSpace=wrap;html=1;" parent="SqEzRoBcsGHss-kbt-hw-567" vertex="1">
          <mxGeometry y="182" width="670" height="26" as="geometry" />
        </mxCell>
        <mxCell id="SqEzRoBcsGHss-kbt-hw-575" value="# oFMap: pair&amp;lt;int, vector&amp;lt;unsigned char&amp;gt;*&amp;gt; &amp;lt;virtual addr, data stream&amp;gt;" style="text;strokeColor=none;fillColor=none;align=left;verticalAlign=top;spacingLeft=4;spacingRight=4;overflow=hidden;rotatable=0;points=[[0,0.5],[1,0.5]];portConstraint=eastwest;whiteSpace=wrap;html=1;" parent="SqEzRoBcsGHss-kbt-hw-567" vertex="1">
          <mxGeometry y="208" width="670" height="26" as="geometry" />
        </mxCell>
        <mxCell id="SqEzRoBcsGHss-kbt-hw-576" value="# filter: pair&amp;lt;int, vector&amp;lt;unsigned char&amp;gt;*&amp;gt;&amp;nbsp; &amp;lt;virtual addr, data stream&amp;gt;" style="text;strokeColor=none;fillColor=none;align=left;verticalAlign=top;spacingLeft=4;spacingRight=4;overflow=hidden;rotatable=0;points=[[0,0.5],[1,0.5]];portConstraint=eastwest;whiteSpace=wrap;html=1;" parent="SqEzRoBcsGHss-kbt-hw-567" vertex="1">
          <mxGeometry y="234" width="670" height="26" as="geometry" />
        </mxCell>
        <mxCell id="SqEzRoBcsGHss-kbt-hw-577" value="" style="line;strokeWidth=1;fillColor=none;align=left;verticalAlign=middle;spacingTop=-1;spacingLeft=3;spacingRight=3;rotatable=0;labelPosition=right;points=[];portConstraint=eastwest;strokeColor=inherit;" parent="SqEzRoBcsGHss-kbt-hw-567" vertex="1">
          <mxGeometry y="260" width="670" height="8" as="geometry" />
        </mxCell>
        <mxCell id="SqEzRoBcsGHss-kbt-hw-578" value="+ memoryAllocate (mmu: MMU*): void" style="text;strokeColor=none;fillColor=none;align=left;verticalAlign=top;spacingLeft=4;spacingRight=4;overflow=hidden;rotatable=0;points=[[0,0.5],[1,0.5]];portConstraint=eastwest;whiteSpace=wrap;html=1;" parent="SqEzRoBcsGHss-kbt-hw-567" vertex="1">
          <mxGeometry y="268" width="670" height="26" as="geometry" />
        </mxCell>
        <mxCell id="SqEzRoBcsGHss-kbt-hw-579" value="+ memoryRelease (mmu: MMU*): PageRecord" style="text;strokeColor=none;fillColor=none;align=left;verticalAlign=top;spacingLeft=4;spacingRight=4;overflow=hidden;rotatable=0;points=[[0,0.5],[1,0.5]];portConstraint=eastwest;whiteSpace=wrap;html=1;" parent="SqEzRoBcsGHss-kbt-hw-567" vertex="1">
          <mxGeometry y="294" width="670" height="26" as="geometry" />
        </mxCell>
        <mxCell id="SqEzRoBcsGHss-kbt-hw-580" value="+ compileToKernel (app_id:int; model_id: int; cpntainer: vector&amp;lt;Kernel&amp;gt;&amp;amp;; dependency: vector&amp;lt;Kernel*&amp;gt;): vector&amp;lt;Kernel*&amp;gt;" style="text;strokeColor=none;fillColor=none;align=left;verticalAlign=top;spacingLeft=4;spacingRight=4;overflow=hidden;rotatable=0;points=[[0,0.5],[1,0.5]];portConstraint=eastwest;whiteSpace=wrap;html=1;" parent="SqEzRoBcsGHss-kbt-hw-567" vertex="1">
          <mxGeometry y="320" width="670" height="26" as="geometry" />
        </mxCell>
        <mxCell id="SqEzRoBcsGHss-kbt-hw-581" value="+ Compile (mmu: MMU*; targetKernel: Kernel*&amp;gt;): void" style="text;strokeColor=none;fillColor=none;align=left;verticalAlign=top;spacingLeft=4;spacingRight=4;overflow=hidden;rotatable=0;points=[[0,0.5],[1,0.5]];portConstraint=eastwest;whiteSpace=wrap;html=1;" parent="SqEzRoBcsGHss-kbt-hw-567" vertex="1">
          <mxGeometry y="346" width="670" height="26" as="geometry" />
        </mxCell>
        <mxCell id="SqEzRoBcsGHss-kbt-hw-582" value="- threadCompile (arg: void*): void" style="text;strokeColor=none;fillColor=none;align=left;verticalAlign=top;spacingLeft=4;spacingRight=4;overflow=hidden;rotatable=0;points=[[0,0.5],[1,0.5]];portConstraint=eastwest;whiteSpace=wrap;html=1;" parent="SqEzRoBcsGHss-kbt-hw-567" vertex="1">
          <mxGeometry y="372" width="670" height="26" as="geometry" />
        </mxCell>
        <mxCell id="SqEzRoBcsGHss-kbt-hw-583" value="- issueLayer (threadArg: ThreadArg*) = 0: void" style="text;strokeColor=none;fillColor=none;align=left;verticalAlign=top;spacingLeft=4;spacingRight=4;overflow=hidden;rotatable=0;points=[[0,0.5],[1,0.5]];portConstraint=eastwest;whiteSpace=wrap;html=1;" parent="SqEzRoBcsGHss-kbt-hw-567" vertex="1">
          <mxGeometry y="398" width="670" height="26" as="geometry" />
        </mxCell>
        <mxCell id="SqEzRoBcsGHss-kbt-hw-584" value="Conv2D" style="swimlane;fontStyle=1;align=center;verticalAlign=top;childLayout=stackLayout;horizontal=1;startSize=26;horizontalStack=0;resizeParent=1;resizeParentMax=0;resizeLast=0;collapsible=1;marginBottom=0;whiteSpace=wrap;html=1;" parent="UBFY9NKoFfWOAkmvo0KO-5" vertex="1">
          <mxGeometry x="2550" y="830" width="250" height="112" as="geometry" />
        </mxCell>
        <mxCell id="SqEzRoBcsGHss-kbt-hw-585" value="# stride: vector&amp;lt;int&amp;gt;" style="text;strokeColor=none;fillColor=none;align=left;verticalAlign=top;spacingLeft=4;spacingRight=4;overflow=hidden;rotatable=0;points=[[0,0.5],[1,0.5]];portConstraint=eastwest;whiteSpace=wrap;html=1;" parent="SqEzRoBcsGHss-kbt-hw-584" vertex="1">
          <mxGeometry y="26" width="250" height="26" as="geometry" />
        </mxCell>
        <mxCell id="SqEzRoBcsGHss-kbt-hw-586" value="# padding: vector&amp;lt;int&amp;gt;" style="text;strokeColor=none;fillColor=none;align=left;verticalAlign=top;spacingLeft=4;spacingRight=4;overflow=hidden;rotatable=0;points=[[0,0.5],[1,0.5]];portConstraint=eastwest;whiteSpace=wrap;html=1;" parent="SqEzRoBcsGHss-kbt-hw-584" vertex="1">
          <mxGeometry y="52" width="250" height="26" as="geometry" />
        </mxCell>
        <mxCell id="SqEzRoBcsGHss-kbt-hw-587" value="" style="line;strokeWidth=1;fillColor=none;align=left;verticalAlign=middle;spacingTop=-1;spacingLeft=3;spacingRight=3;rotatable=0;labelPosition=right;points=[];portConstraint=eastwest;strokeColor=inherit;" parent="SqEzRoBcsGHss-kbt-hw-584" vertex="1">
          <mxGeometry y="78" width="250" height="8" as="geometry" />
        </mxCell>
        <mxCell id="SqEzRoBcsGHss-kbt-hw-588" value="+ issueLayer (threadArg: ThreadArg*): void" style="text;strokeColor=none;fillColor=none;align=left;verticalAlign=top;spacingLeft=4;spacingRight=4;overflow=hidden;rotatable=0;points=[[0,0.5],[1,0.5]];portConstraint=eastwest;whiteSpace=wrap;html=1;" parent="SqEzRoBcsGHss-kbt-hw-584" vertex="1">
          <mxGeometry y="86" width="250" height="26" as="geometry" />
        </mxCell>
        <mxCell id="SqEzRoBcsGHss-kbt-hw-589" value="Pooling" style="swimlane;fontStyle=1;align=center;verticalAlign=top;childLayout=stackLayout;horizontal=1;startSize=26;horizontalStack=0;resizeParent=1;resizeParentMax=0;resizeLast=0;collapsible=1;marginBottom=0;whiteSpace=wrap;html=1;" parent="UBFY9NKoFfWOAkmvo0KO-5" vertex="1">
          <mxGeometry x="2550" y="980" width="250" height="60" as="geometry" />
        </mxCell>
        <mxCell id="SqEzRoBcsGHss-kbt-hw-590" value="" style="line;strokeWidth=1;fillColor=none;align=left;verticalAlign=middle;spacingTop=-1;spacingLeft=3;spacingRight=3;rotatable=0;labelPosition=right;points=[];portConstraint=eastwest;strokeColor=inherit;" parent="SqEzRoBcsGHss-kbt-hw-589" vertex="1">
          <mxGeometry y="26" width="250" height="8" as="geometry" />
        </mxCell>
        <mxCell id="SqEzRoBcsGHss-kbt-hw-591" value="+ issueLayer (threadArg: ThreadArg*): void" style="text;strokeColor=none;fillColor=none;align=left;verticalAlign=top;spacingLeft=4;spacingRight=4;overflow=hidden;rotatable=0;points=[[0,0.5],[1,0.5]];portConstraint=eastwest;whiteSpace=wrap;html=1;" parent="SqEzRoBcsGHss-kbt-hw-589" vertex="1">
          <mxGeometry y="34" width="250" height="26" as="geometry" />
        </mxCell>
        <mxCell id="SqEzRoBcsGHss-kbt-hw-592" value="Flatten" style="swimlane;fontStyle=1;align=center;verticalAlign=top;childLayout=stackLayout;horizontal=1;startSize=26;horizontalStack=0;resizeParent=1;resizeParentMax=0;resizeLast=0;collapsible=1;marginBottom=0;whiteSpace=wrap;html=1;" parent="UBFY9NKoFfWOAkmvo0KO-5" vertex="1">
          <mxGeometry x="2810" y="830" width="250" height="60" as="geometry" />
        </mxCell>
        <mxCell id="SqEzRoBcsGHss-kbt-hw-593" value="" style="line;strokeWidth=1;fillColor=none;align=left;verticalAlign=middle;spacingTop=-1;spacingLeft=3;spacingRight=3;rotatable=0;labelPosition=right;points=[];portConstraint=eastwest;strokeColor=inherit;" parent="SqEzRoBcsGHss-kbt-hw-592" vertex="1">
          <mxGeometry y="26" width="250" height="8" as="geometry" />
        </mxCell>
        <mxCell id="SqEzRoBcsGHss-kbt-hw-594" value="+ issueLayer (threadArg: ThreadArg*): void" style="text;strokeColor=none;fillColor=none;align=left;verticalAlign=top;spacingLeft=4;spacingRight=4;overflow=hidden;rotatable=0;points=[[0,0.5],[1,0.5]];portConstraint=eastwest;whiteSpace=wrap;html=1;" parent="SqEzRoBcsGHss-kbt-hw-592" vertex="1">
          <mxGeometry y="34" width="250" height="26" as="geometry" />
        </mxCell>
        <mxCell id="SqEzRoBcsGHss-kbt-hw-595" value="Dense" style="swimlane;fontStyle=1;align=center;verticalAlign=top;childLayout=stackLayout;horizontal=1;startSize=26;horizontalStack=0;resizeParent=1;resizeParentMax=0;resizeLast=0;collapsible=1;marginBottom=0;whiteSpace=wrap;html=1;" parent="UBFY9NKoFfWOAkmvo0KO-5" vertex="1">
          <mxGeometry x="3070" y="830" width="250" height="60" as="geometry" />
        </mxCell>
        <mxCell id="SqEzRoBcsGHss-kbt-hw-596" value="" style="line;strokeWidth=1;fillColor=none;align=left;verticalAlign=middle;spacingTop=-1;spacingLeft=3;spacingRight=3;rotatable=0;labelPosition=right;points=[];portConstraint=eastwest;strokeColor=inherit;" parent="SqEzRoBcsGHss-kbt-hw-595" vertex="1">
          <mxGeometry y="26" width="250" height="8" as="geometry" />
        </mxCell>
        <mxCell id="SqEzRoBcsGHss-kbt-hw-597" value="+ issueLayer (threadArg: ThreadArg*): void" style="text;strokeColor=none;fillColor=none;align=left;verticalAlign=top;spacingLeft=4;spacingRight=4;overflow=hidden;rotatable=0;points=[[0,0.5],[1,0.5]];portConstraint=eastwest;whiteSpace=wrap;html=1;" parent="SqEzRoBcsGHss-kbt-hw-595" vertex="1">
          <mxGeometry y="34" width="250" height="26" as="geometry" />
        </mxCell>
        <mxCell id="SqEzRoBcsGHss-kbt-hw-598" value="" style="endArrow=block;dashed=1;endFill=0;endSize=12;html=1;rounded=0;exitX=0.5;exitY=0;exitDx=0;exitDy=0;entryX=0.373;entryY=1.026;entryDx=0;entryDy=0;entryPerimeter=0;" parent="UBFY9NKoFfWOAkmvo0KO-5" source="SqEzRoBcsGHss-kbt-hw-584" target="SqEzRoBcsGHss-kbt-hw-583" edge="1">
          <mxGeometry width="160" relative="1" as="geometry">
            <mxPoint x="2610" y="790" as="sourcePoint" />
            <mxPoint x="2770" y="790" as="targetPoint" />
          </mxGeometry>
        </mxCell>
        <mxCell id="SqEzRoBcsGHss-kbt-hw-599" value="" style="endArrow=block;dashed=1;endFill=0;endSize=12;html=1;rounded=0;exitX=0.5;exitY=0;exitDx=0;exitDy=0;" parent="UBFY9NKoFfWOAkmvo0KO-5" source="SqEzRoBcsGHss-kbt-hw-592" target="SqEzRoBcsGHss-kbt-hw-583" edge="1">
          <mxGeometry width="160" relative="1" as="geometry">
            <mxPoint x="2685" y="840" as="sourcePoint" />
            <mxPoint x="2973" y="765" as="targetPoint" />
          </mxGeometry>
        </mxCell>
        <mxCell id="SqEzRoBcsGHss-kbt-hw-600" value="" style="endArrow=block;dashed=1;endFill=0;endSize=12;html=1;rounded=0;exitX=1;exitY=0.5;exitDx=0;exitDy=0;entryX=1;entryY=0.5;entryDx=0;entryDy=0;" parent="UBFY9NKoFfWOAkmvo0KO-5" source="SqEzRoBcsGHss-kbt-hw-608" target="SqEzRoBcsGHss-kbt-hw-574" edge="1">
          <mxGeometry width="160" relative="1" as="geometry">
            <mxPoint x="2945" y="840" as="sourcePoint" />
            <mxPoint x="3030" y="1030" as="targetPoint" />
            <Array as="points">
              <mxPoint x="3360" y="1245" />
              <mxPoint x="3360" y="525" />
            </Array>
          </mxGeometry>
        </mxCell>
        <mxCell id="SqEzRoBcsGHss-kbt-hw-601" value="" style="endArrow=block;dashed=1;endFill=0;endSize=12;html=1;rounded=0;exitX=0.5;exitY=0;exitDx=0;exitDy=0;" parent="UBFY9NKoFfWOAkmvo0KO-5" source="SqEzRoBcsGHss-kbt-hw-589" target="SqEzRoBcsGHss-kbt-hw-588" edge="1">
          <mxGeometry width="160" relative="1" as="geometry">
            <mxPoint x="2945" y="840" as="sourcePoint" />
            <mxPoint x="3044" y="764" as="targetPoint" />
          </mxGeometry>
        </mxCell>
        <mxCell id="SqEzRoBcsGHss-kbt-hw-602" value="" style="endArrow=block;dashed=1;endFill=0;endSize=12;html=1;rounded=0;exitX=0.5;exitY=0;exitDx=0;exitDy=0;entryX=0.645;entryY=1.077;entryDx=0;entryDy=0;entryPerimeter=0;" parent="UBFY9NKoFfWOAkmvo0KO-5" source="SqEzRoBcsGHss-kbt-hw-595" target="SqEzRoBcsGHss-kbt-hw-583" edge="1">
          <mxGeometry width="160" relative="1" as="geometry">
            <mxPoint x="3195" y="830" as="sourcePoint" />
            <mxPoint x="2983" y="758" as="targetPoint" />
          </mxGeometry>
        </mxCell>
        <mxCell id="SqEzRoBcsGHss-kbt-hw-603" value="LayerGroup" style="swimlane;fontStyle=1;align=center;verticalAlign=top;childLayout=stackLayout;horizontal=1;startSize=26;horizontalStack=0;resizeParent=1;resizeParentMax=0;resizeLast=0;collapsible=1;marginBottom=0;whiteSpace=wrap;html=1;" parent="UBFY9NKoFfWOAkmvo0KO-5" vertex="1">
          <mxGeometry x="2600" y="1120" width="670" height="242" as="geometry" />
        </mxCell>
        <mxCell id="SqEzRoBcsGHss-kbt-hw-604" value="+ groupType: const Group_t" style="text;strokeColor=none;fillColor=none;align=left;verticalAlign=top;spacingLeft=4;spacingRight=4;overflow=hidden;rotatable=0;points=[[0,0.5],[1,0.5]];portConstraint=eastwest;whiteSpace=wrap;html=1;" parent="SqEzRoBcsGHss-kbt-hw-603" vertex="1">
          <mxGeometry y="26" width="670" height="26" as="geometry" />
        </mxCell>
        <mxCell id="SqEzRoBcsGHss-kbt-hw-605" value="+ layers: vector&amp;lt;Layer*&amp;gt;" style="text;strokeColor=none;fillColor=none;align=left;verticalAlign=top;spacingLeft=4;spacingRight=4;overflow=hidden;rotatable=0;points=[[0,0.5],[1,0.5]];portConstraint=eastwest;whiteSpace=wrap;html=1;" parent="SqEzRoBcsGHss-kbt-hw-603" vertex="1">
          <mxGeometry y="52" width="670" height="26" as="geometry" />
        </mxCell>
        <mxCell id="SqEzRoBcsGHss-kbt-hw-606" value="" style="line;strokeWidth=1;fillColor=none;align=left;verticalAlign=middle;spacingTop=-1;spacingLeft=3;spacingRight=3;rotatable=0;labelPosition=right;points=[];portConstraint=eastwest;strokeColor=inherit;" parent="SqEzRoBcsGHss-kbt-hw-603" vertex="1">
          <mxGeometry y="78" width="670" height="8" as="geometry" />
        </mxCell>
        <mxCell id="SqEzRoBcsGHss-kbt-hw-607" value="+ addLayer (layer: Layer*): void" style="text;strokeColor=none;fillColor=none;align=left;verticalAlign=top;spacingLeft=4;spacingRight=4;overflow=hidden;rotatable=0;points=[[0,0.5],[1,0.5]];portConstraint=eastwest;whiteSpace=wrap;html=1;" parent="SqEzRoBcsGHss-kbt-hw-603" vertex="1">
          <mxGeometry y="86" width="670" height="26" as="geometry" />
        </mxCell>
        <mxCell id="SqEzRoBcsGHss-kbt-hw-608" value="+ memoryAllocate (mmu: MMU*): void" style="text;strokeColor=none;fillColor=none;align=left;verticalAlign=top;spacingLeft=4;spacingRight=4;overflow=hidden;rotatable=0;points=[[0,0.5],[1,0.5]];portConstraint=eastwest;whiteSpace=wrap;html=1;" parent="SqEzRoBcsGHss-kbt-hw-603" vertex="1">
          <mxGeometry y="112" width="670" height="26" as="geometry" />
        </mxCell>
        <mxCell id="SqEzRoBcsGHss-kbt-hw-609" value="+ compileToKernel (app_id:int; model_id: int; cpntainer: vector&amp;lt;Kernel&amp;gt;&amp;amp;; dependency: vector&amp;lt;Kernel*&amp;gt;); vector&amp;lt;Kernel*&amp;gt;" style="text;strokeColor=none;fillColor=none;align=left;verticalAlign=top;spacingLeft=4;spacingRight=4;overflow=hidden;rotatable=0;points=[[0,0.5],[1,0.5]];portConstraint=eastwest;whiteSpace=wrap;html=1;" parent="SqEzRoBcsGHss-kbt-hw-603" vertex="1">
          <mxGeometry y="138" width="670" height="26" as="geometry" />
        </mxCell>
        <mxCell id="SqEzRoBcsGHss-kbt-hw-610" value="+ issueLayer (threadArg: ThreadArg*): void" style="text;strokeColor=none;fillColor=none;align=left;verticalAlign=top;spacingLeft=4;spacingRight=4;overflow=hidden;rotatable=0;points=[[0,0.5],[1,0.5]];portConstraint=eastwest;whiteSpace=wrap;html=1;" parent="SqEzRoBcsGHss-kbt-hw-603" vertex="1">
          <mxGeometry y="164" width="670" height="26" as="geometry" />
        </mxCell>
        <mxCell id="SqEzRoBcsGHss-kbt-hw-611" value="- addCaseCade (layer: Layer*): void" style="text;strokeColor=none;fillColor=none;align=left;verticalAlign=top;spacingLeft=4;spacingRight=4;overflow=hidden;rotatable=0;points=[[0,0.5],[1,0.5]];portConstraint=eastwest;whiteSpace=wrap;html=1;" parent="SqEzRoBcsGHss-kbt-hw-603" vertex="1">
          <mxGeometry y="190" width="670" height="26" as="geometry" />
        </mxCell>
        <mxCell id="SqEzRoBcsGHss-kbt-hw-612" value="- addCaseCode (layer: Layer*): void" style="text;strokeColor=none;fillColor=none;align=left;verticalAlign=top;spacingLeft=4;spacingRight=4;overflow=hidden;rotatable=0;points=[[0,0.5],[1,0.5]];portConstraint=eastwest;whiteSpace=wrap;html=1;" parent="SqEzRoBcsGHss-kbt-hw-603" vertex="1">
          <mxGeometry y="216" width="670" height="26" as="geometry" />
        </mxCell>
        <mxCell id="SqEzRoBcsGHss-kbt-hw-613" value="" style="endArrow=open;endFill=1;endSize=12;html=1;rounded=0;entryX=0.505;entryY=1.045;entryDx=0;entryDy=0;entryPerimeter=0;exitX=0.115;exitY=-0.012;exitDx=0;exitDy=0;exitPerimeter=0;" parent="UBFY9NKoFfWOAkmvo0KO-5" source="SqEzRoBcsGHss-kbt-hw-603" target="SqEzRoBcsGHss-kbt-hw-591" edge="1">
          <mxGeometry width="160" relative="1" as="geometry">
            <mxPoint x="2740" y="1260" as="sourcePoint" />
            <mxPoint x="2900" y="1260" as="targetPoint" />
          </mxGeometry>
        </mxCell>
        <mxCell id="SqEzRoBcsGHss-kbt-hw-614" value="" style="endArrow=open;endFill=1;endSize=12;html=1;rounded=0;entryX=0.504;entryY=1.192;entryDx=0;entryDy=0;entryPerimeter=0;exitX=0.5;exitY=0;exitDx=0;exitDy=0;" parent="UBFY9NKoFfWOAkmvo0KO-5" source="SqEzRoBcsGHss-kbt-hw-603" target="SqEzRoBcsGHss-kbt-hw-594" edge="1">
          <mxGeometry width="160" relative="1" as="geometry">
            <mxPoint x="2936" y="1090" as="sourcePoint" />
            <mxPoint x="2934.5" y="1040" as="targetPoint" />
          </mxGeometry>
        </mxCell>
        <mxCell id="SqEzRoBcsGHss-kbt-hw-615" value="" style="endArrow=open;endFill=1;endSize=12;html=1;rounded=0;entryX=0.5;entryY=1;entryDx=0;entryDy=0;entryPerimeter=0;exitX=0.888;exitY=-0.004;exitDx=0;exitDy=0;exitPerimeter=0;" parent="UBFY9NKoFfWOAkmvo0KO-5" source="SqEzRoBcsGHss-kbt-hw-603" target="SqEzRoBcsGHss-kbt-hw-597" edge="1">
          <mxGeometry width="160" relative="1" as="geometry">
            <mxPoint x="3195" y="1090" as="sourcePoint" />
            <mxPoint x="3191" y="910" as="targetPoint" />
          </mxGeometry>
        </mxCell>
        <mxCell id="SqEzRoBcsGHss-kbt-hw-616" value="" style="endArrow=open;endFill=1;endSize=12;html=1;rounded=0;entryX=1;entryY=0.5;entryDx=0;entryDy=0;exitX=0.357;exitY=-0.004;exitDx=0;exitDy=0;exitPerimeter=0;" parent="UBFY9NKoFfWOAkmvo0KO-5" source="SqEzRoBcsGHss-kbt-hw-603" target="SqEzRoBcsGHss-kbt-hw-588" edge="1">
          <mxGeometry width="160" relative="1" as="geometry">
            <mxPoint x="2840" y="1115" as="sourcePoint" />
            <mxPoint x="2841" y="890" as="targetPoint" />
            <Array as="points">
              <mxPoint x="2840" y="929" />
            </Array>
          </mxGeometry>
        </mxCell>
        <mxCell id="SqEzRoBcsGHss-kbt-hw-617" value="ResNetBlock18" style="swimlane;fontStyle=1;align=center;verticalAlign=top;childLayout=stackLayout;horizontal=1;startSize=26;horizontalStack=0;resizeParent=1;resizeParentMax=0;resizeLast=0;collapsible=1;marginBottom=0;whiteSpace=wrap;html=1;" parent="UBFY9NKoFfWOAkmvo0KO-5" vertex="1">
          <mxGeometry x="2600" y="1400" width="290" height="86" as="geometry" />
        </mxCell>
        <mxCell id="SqEzRoBcsGHss-kbt-hw-618" value="" style="line;strokeWidth=1;fillColor=none;align=left;verticalAlign=middle;spacingTop=-1;spacingLeft=3;spacingRight=3;rotatable=0;labelPosition=right;points=[];portConstraint=eastwest;strokeColor=inherit;" parent="SqEzRoBcsGHss-kbt-hw-617" vertex="1">
          <mxGeometry y="26" width="290" height="8" as="geometry" />
        </mxCell>
        <mxCell id="SqEzRoBcsGHss-kbt-hw-619" value="- BasicBlock (input_size: vector&amp;lt;int&amp;gt;): void" style="text;strokeColor=none;fillColor=none;align=left;verticalAlign=top;spacingLeft=4;spacingRight=4;overflow=hidden;rotatable=0;points=[[0,0.5],[1,0.5]];portConstraint=eastwest;whiteSpace=wrap;html=1;" parent="SqEzRoBcsGHss-kbt-hw-617" vertex="1">
          <mxGeometry y="34" width="290" height="26" as="geometry" />
        </mxCell>
        <mxCell id="SqEzRoBcsGHss-kbt-hw-620" value="- BottleNeckBlock (input_size: vector&amp;lt;int&amp;gt;): void" style="text;strokeColor=none;fillColor=none;align=left;verticalAlign=top;spacingLeft=4;spacingRight=4;overflow=hidden;rotatable=0;points=[[0,0.5],[1,0.5]];portConstraint=eastwest;whiteSpace=wrap;html=1;" parent="SqEzRoBcsGHss-kbt-hw-617" vertex="1">
          <mxGeometry y="60" width="290" height="26" as="geometry" />
        </mxCell>
        <mxCell id="SqEzRoBcsGHss-kbt-hw-621" value="Inception" style="swimlane;fontStyle=1;align=center;verticalAlign=top;childLayout=stackLayout;horizontal=1;startSize=26;horizontalStack=0;resizeParent=1;resizeParentMax=0;resizeLast=0;collapsible=1;marginBottom=0;whiteSpace=wrap;html=1;" parent="UBFY9NKoFfWOAkmvo0KO-5" vertex="1">
          <mxGeometry x="2910" y="1400" width="360" height="100" as="geometry" />
        </mxCell>
        <mxCell id="SqEzRoBcsGHss-kbt-hw-622" value="" style="line;strokeWidth=1;fillColor=none;align=left;verticalAlign=middle;spacingTop=-1;spacingLeft=3;spacingRight=3;rotatable=0;labelPosition=right;points=[];portConstraint=eastwest;strokeColor=inherit;" parent="SqEzRoBcsGHss-kbt-hw-621" vertex="1">
          <mxGeometry y="26" width="360" height="8" as="geometry" />
        </mxCell>
        <mxCell id="SqEzRoBcsGHss-kbt-hw-623" value="- Inception (input_size: vector&amp;lt;int&amp;gt;; channel_1x1: int; &lt;br&gt;&lt;span style=&quot;white-space: pre;&quot;&gt; &lt;span style=&quot;white-space: pre;&quot;&gt; &lt;/span&gt; &lt;/span&gt;&amp;nbsp; cahnnel_reduce_3x3: int; channel_3x3: int; &lt;br&gt;&lt;span style=&quot;white-space: pre;&quot;&gt; &lt;/span&gt;&lt;span style=&quot;white-space: pre;&quot;&gt; &lt;/span&gt;&amp;nbsp; &amp;nbsp;channel_reduce_5x5: int; channel_5x5: int; &lt;br&gt;&amp;nbsp; &amp;nbsp;&lt;span style=&quot;white-space: pre;&quot;&gt; &lt;/span&gt;&lt;span style=&quot;white-space: pre;&quot;&gt; &lt;/span&gt;&amp;nbsp; &amp;nbsp;channel_pooling: int): void" style="text;strokeColor=none;fillColor=none;align=left;verticalAlign=top;spacingLeft=4;spacingRight=4;overflow=hidden;rotatable=0;points=[[0,0.5],[1,0.5]];portConstraint=eastwest;whiteSpace=wrap;html=1;" parent="SqEzRoBcsGHss-kbt-hw-621" vertex="1">
          <mxGeometry y="34" width="360" height="66" as="geometry" />
        </mxCell>
        <mxCell id="SqEzRoBcsGHss-kbt-hw-624" value="" style="endArrow=block;dashed=1;endFill=0;endSize=12;html=1;rounded=0;exitX=0.5;exitY=0;exitDx=0;exitDy=0;entryX=0.377;entryY=1.022;entryDx=0;entryDy=0;entryPerimeter=0;" parent="UBFY9NKoFfWOAkmvo0KO-5" source="SqEzRoBcsGHss-kbt-hw-617" target="SqEzRoBcsGHss-kbt-hw-612" edge="1">
          <mxGeometry width="160" relative="1" as="geometry">
            <mxPoint x="2789" y="1595" as="sourcePoint" />
            <mxPoint x="2964" y="1500" as="targetPoint" />
          </mxGeometry>
        </mxCell>
        <mxCell id="SqEzRoBcsGHss-kbt-hw-625" value="" style="endArrow=block;dashed=1;endFill=0;endSize=12;html=1;rounded=0;exitX=0.5;exitY=0;exitDx=0;exitDy=0;entryX=0.623;entryY=1.09;entryDx=0;entryDy=0;entryPerimeter=0;" parent="UBFY9NKoFfWOAkmvo0KO-5" source="SqEzRoBcsGHss-kbt-hw-621" target="SqEzRoBcsGHss-kbt-hw-612" edge="1">
          <mxGeometry width="160" relative="1" as="geometry">
            <mxPoint x="2745" y="1410" as="sourcePoint" />
            <mxPoint x="2894" y="1372" as="targetPoint" />
          </mxGeometry>
        </mxCell>
        <mxCell id="SqEzRoBcsGHss-kbt-hw-626" value="Model" style="swimlane;fontStyle=1;align=center;verticalAlign=top;childLayout=stackLayout;horizontal=1;startSize=26;horizontalStack=0;resizeParent=1;resizeParentMax=0;resizeLast=0;collapsible=1;marginBottom=0;whiteSpace=wrap;html=1;" parent="UBFY9NKoFfWOAkmvo0KO-5" vertex="1">
          <mxGeometry x="2070" y="770" width="380" height="510" as="geometry" />
        </mxCell>
        <mxCell id="SqEzRoBcsGHss-kbt-hw-627" value="+ appID: const int" style="text;strokeColor=none;fillColor=none;align=left;verticalAlign=top;spacingLeft=4;spacingRight=4;overflow=hidden;rotatable=0;points=[[0,0.5],[1,0.5]];portConstraint=eastwest;whiteSpace=wrap;html=1;" parent="SqEzRoBcsGHss-kbt-hw-626" vertex="1">
          <mxGeometry y="26" width="380" height="26" as="geometry" />
        </mxCell>
        <mxCell id="SqEzRoBcsGHss-kbt-hw-628" value="+ modelID: const int" style="text;strokeColor=none;fillColor=none;align=left;verticalAlign=top;spacingLeft=4;spacingRight=4;overflow=hidden;rotatable=0;points=[[0,0.5],[1,0.5]];portConstraint=eastwest;whiteSpace=wrap;html=1;" parent="SqEzRoBcsGHss-kbt-hw-626" vertex="1">
          <mxGeometry y="52" width="380" height="26" as="geometry" />
        </mxCell>
        <mxCell id="SqEzRoBcsGHss-kbt-hw-629" value="+ SM_budget: list&amp;lt;int&amp;gt;" style="text;strokeColor=none;fillColor=none;align=left;verticalAlign=top;spacingLeft=4;spacingRight=4;overflow=hidden;rotatable=0;points=[[0,0.5],[1,0.5]];portConstraint=eastwest;whiteSpace=wrap;html=1;" parent="SqEzRoBcsGHss-kbt-hw-626" vertex="1">
          <mxGeometry y="78" width="380" height="26" as="geometry" />
        </mxCell>
        <mxCell id="SqEzRoBcsGHss-kbt-hw-630" value="# numOfLayer: int" style="text;strokeColor=none;fillColor=none;align=left;verticalAlign=top;spacingLeft=4;spacingRight=4;overflow=hidden;rotatable=0;points=[[0,0.5],[1,0.5]];portConstraint=eastwest;whiteSpace=wrap;html=1;" parent="SqEzRoBcsGHss-kbt-hw-626" vertex="1">
          <mxGeometry y="104" width="380" height="26" as="geometry" />
        </mxCell>
        <mxCell id="SqEzRoBcsGHss-kbt-hw-631" value="# batchSize: int" style="text;strokeColor=none;fillColor=none;align=left;verticalAlign=top;spacingLeft=4;spacingRight=4;overflow=hidden;rotatable=0;points=[[0,0.5],[1,0.5]];portConstraint=eastwest;whiteSpace=wrap;html=1;" parent="SqEzRoBcsGHss-kbt-hw-626" vertex="1">
          <mxGeometry y="130" width="380" height="26" as="geometry" />
        </mxCell>
        <mxCell id="SqEzRoBcsGHss-kbt-hw-632" value="# modelGraph: LayerGroup*" style="text;strokeColor=none;fillColor=none;align=left;verticalAlign=top;spacingLeft=4;spacingRight=4;overflow=hidden;rotatable=0;points=[[0,0.5],[1,0.5]];portConstraint=eastwest;whiteSpace=wrap;html=1;" parent="SqEzRoBcsGHss-kbt-hw-626" vertex="1">
          <mxGeometry y="156" width="380" height="26" as="geometry" />
        </mxCell>
        <mxCell id="SqEzRoBcsGHss-kbt-hw-633" value="# kernelContainer: vector&amp;lt;Kernel&amp;gt;" style="text;strokeColor=none;fillColor=none;align=left;verticalAlign=top;spacingLeft=4;spacingRight=4;overflow=hidden;rotatable=0;points=[[0,0.5],[1,0.5]];portConstraint=eastwest;whiteSpace=wrap;html=1;" parent="SqEzRoBcsGHss-kbt-hw-626" vertex="1">
          <mxGeometry y="182" width="380" height="26" as="geometry" />
        </mxCell>
        <mxCell id="SqEzRoBcsGHss-kbt-hw-634" value="" style="line;strokeWidth=1;fillColor=none;align=left;verticalAlign=middle;spacingTop=-1;spacingLeft=3;spacingRight=3;rotatable=0;labelPosition=right;points=[];portConstraint=eastwest;strokeColor=inherit;" parent="SqEzRoBcsGHss-kbt-hw-626" vertex="1">
          <mxGeometry y="208" width="380" height="8" as="geometry" />
        </mxCell>
        <mxCell id="SqEzRoBcsGHss-kbt-hw-635" value="+ buildLayerGraph (model_type: const char*): void" style="text;strokeColor=none;fillColor=none;align=left;verticalAlign=top;spacingLeft=4;spacingRight=4;overflow=hidden;rotatable=0;points=[[0,0.5],[1,0.5]];portConstraint=eastwest;whiteSpace=wrap;html=1;" parent="SqEzRoBcsGHss-kbt-hw-626" vertex="1">
          <mxGeometry y="216" width="380" height="26" as="geometry" />
        </mxCell>
        <mxCell id="SqEzRoBcsGHss-kbt-hw-636" value="- LeNet (): void" style="text;strokeColor=none;fillColor=none;align=left;verticalAlign=top;spacingLeft=4;spacingRight=4;overflow=hidden;rotatable=0;points=[[0,0.5],[1,0.5]];portConstraint=eastwest;whiteSpace=wrap;html=1;" parent="SqEzRoBcsGHss-kbt-hw-626" vertex="1">
          <mxGeometry y="242" width="380" height="26" as="geometry" />
        </mxCell>
        <mxCell id="SqEzRoBcsGHss-kbt-hw-637" value="- ResNet18 (): void" style="text;strokeColor=none;fillColor=none;align=left;verticalAlign=top;spacingLeft=4;spacingRight=4;overflow=hidden;rotatable=0;points=[[0,0.5],[1,0.5]];portConstraint=eastwest;whiteSpace=wrap;html=1;" parent="SqEzRoBcsGHss-kbt-hw-626" vertex="1">
          <mxGeometry y="268" width="380" height="26" as="geometry" />
        </mxCell>
        <mxCell id="SqEzRoBcsGHss-kbt-hw-638" value="- VGG16 (): void" style="text;strokeColor=none;fillColor=none;align=left;verticalAlign=top;spacingLeft=4;spacingRight=4;overflow=hidden;rotatable=0;points=[[0,0.5],[1,0.5]];portConstraint=eastwest;whiteSpace=wrap;html=1;" parent="SqEzRoBcsGHss-kbt-hw-626" vertex="1">
          <mxGeometry y="294" width="380" height="26" as="geometry" />
        </mxCell>
        <mxCell id="SqEzRoBcsGHss-kbt-hw-639" value="- GoogleNet (): void" style="text;strokeColor=none;fillColor=none;align=left;verticalAlign=top;spacingLeft=4;spacingRight=4;overflow=hidden;rotatable=0;points=[[0,0.5],[1,0.5]];portConstraint=eastwest;whiteSpace=wrap;html=1;" parent="SqEzRoBcsGHss-kbt-hw-626" vertex="1">
          <mxGeometry y="320" width="380" height="26" as="geometry" />
        </mxCell>
        <mxCell id="SqEzRoBcsGHss-kbt-hw-640" style="line;strokeWidth=1;fillColor=none;align=left;verticalAlign=middle;spacingTop=-1;spacingLeft=3;spacingRight=3;rotatable=0;labelPosition=right;points=[];portConstraint=eastwest;strokeColor=inherit;" parent="SqEzRoBcsGHss-kbt-hw-626" vertex="1">
          <mxGeometry y="346" width="380" height="8" as="geometry" />
        </mxCell>
        <mxCell id="SqEzRoBcsGHss-kbt-hw-641" value="+ memoryAllocate (mmu: MMU*): void" style="text;strokeColor=none;fillColor=none;align=left;verticalAlign=top;spacingLeft=4;spacingRight=4;overflow=hidden;rotatable=0;points=[[0,0.5],[1,0.5]];portConstraint=eastwest;whiteSpace=wrap;html=1;" parent="SqEzRoBcsGHss-kbt-hw-626" vertex="1">
          <mxGeometry y="354" width="380" height="26" as="geometry" />
        </mxCell>
        <mxCell id="SqEzRoBcsGHss-kbt-hw-642" value="+ memoryRelease (mmu: MMU*): void" style="text;strokeColor=none;fillColor=none;align=left;verticalAlign=top;spacingLeft=4;spacingRight=4;overflow=hidden;rotatable=0;points=[[0,0.5],[1,0.5]];portConstraint=eastwest;whiteSpace=wrap;html=1;" parent="SqEzRoBcsGHss-kbt-hw-626" vertex="1">
          <mxGeometry y="380" width="380" height="26" as="geometry" />
        </mxCell>
        <mxCell id="SqEzRoBcsGHss-kbt-hw-643" value="+ setBatchSIze (batch_size: int): void" style="text;strokeColor=none;fillColor=none;align=left;verticalAlign=top;spacingLeft=4;spacingRight=4;overflow=hidden;rotatable=0;points=[[0,0.5],[1,0.5]];portConstraint=eastwest;whiteSpace=wrap;html=1;" parent="SqEzRoBcsGHss-kbt-hw-626" vertex="1">
          <mxGeometry y="406" width="380" height="26" as="geometry" />
        </mxCell>
        <mxCell id="SqEzRoBcsGHss-kbt-hw-644" value="+ compileToKernel (): vector&amp;lt;Kernel*&amp;gt;&amp;amp;" style="text;strokeColor=none;fillColor=none;align=left;verticalAlign=top;spacingLeft=4;spacingRight=4;overflow=hidden;rotatable=0;points=[[0,0.5],[1,0.5]];portConstraint=eastwest;whiteSpace=wrap;html=1;" parent="SqEzRoBcsGHss-kbt-hw-626" vertex="1">
          <mxGeometry y="432" width="380" height="26" as="geometry" />
        </mxCell>
        <mxCell id="SqEzRoBcsGHss-kbt-hw-645" value="+ findReadyKernels (): list&amp;lt;Kernel*&amp;gt;" style="text;strokeColor=none;fillColor=none;align=left;verticalAlign=top;spacingLeft=4;spacingRight=4;overflow=hidden;rotatable=0;points=[[0,0.5],[1,0.5]];portConstraint=eastwest;whiteSpace=wrap;html=1;" parent="SqEzRoBcsGHss-kbt-hw-626" vertex="1">
          <mxGeometry y="458" width="380" height="26" as="geometry" />
        </mxCell>
        <mxCell id="SqEzRoBcsGHss-kbt-hw-646" value="+ checkFinish (): bool" style="text;strokeColor=none;fillColor=none;align=left;verticalAlign=top;spacingLeft=4;spacingRight=4;overflow=hidden;rotatable=0;points=[[0,0.5],[1,0.5]];portConstraint=eastwest;whiteSpace=wrap;html=1;" parent="SqEzRoBcsGHss-kbt-hw-626" vertex="1">
          <mxGeometry y="484" width="380" height="26" as="geometry" />
        </mxCell>
        <mxCell id="SqEzRoBcsGHss-kbt-hw-647" value="" style="endArrow=open;endFill=1;endSize=12;html=1;rounded=0;exitX=1;exitY=0.5;exitDx=0;exitDy=0;entryX=0;entryY=0.5;entryDx=0;entryDy=0;" parent="UBFY9NKoFfWOAkmvo0KO-5" source="SqEzRoBcsGHss-kbt-hw-632" target="SqEzRoBcsGHss-kbt-hw-576" edge="1">
          <mxGeometry width="160" relative="1" as="geometry">
            <mxPoint x="3320" y="656.5" as="sourcePoint" />
            <mxPoint x="2600" y="577" as="targetPoint" />
            <Array as="points">
              <mxPoint x="2520" y="939" />
              <mxPoint x="2520" y="577" />
            </Array>
          </mxGeometry>
        </mxCell>
        <mxCell id="SqEzRoBcsGHss-kbt-hw-664" value="" style="endArrow=open;endFill=1;endSize=12;html=1;rounded=0;entryX=0;entryY=0.5;entryDx=0;entryDy=0;exitX=1;exitY=0.5;exitDx=0;exitDy=0;" parent="UBFY9NKoFfWOAkmvo0KO-5" source="SqEzRoBcsGHss-kbt-hw-683" target="SqEzRoBcsGHss-kbt-hw-573" edge="1">
          <mxGeometry width="160" relative="1" as="geometry">
            <mxPoint x="2450" y="499" as="sourcePoint" />
            <mxPoint x="2600" y="499" as="targetPoint" />
          </mxGeometry>
        </mxCell>
        <mxCell id="SqEzRoBcsGHss-kbt-hw-665" value="" style="endArrow=open;endFill=1;endSize=12;html=1;rounded=0;exitX=0.5;exitY=0;exitDx=0;exitDy=0;entryX=0.499;entryY=1.015;entryDx=0;entryDy=0;entryPerimeter=0;" parent="UBFY9NKoFfWOAkmvo0KO-5" source="SqEzRoBcsGHss-kbt-hw-626" target="SqEzRoBcsGHss-kbt-hw-692" edge="1">
          <mxGeometry width="160" relative="1" as="geometry">
            <mxPoint x="2230" y="690" as="sourcePoint" />
            <mxPoint x="2260" y="727.9999999999995" as="targetPoint" />
          </mxGeometry>
        </mxCell>
        <mxCell id="SqEzRoBcsGHss-kbt-hw-666" value="Application" style="swimlane;fontStyle=1;align=center;verticalAlign=top;childLayout=stackLayout;horizontal=1;startSize=26;horizontalStack=0;resizeParent=1;resizeParentMax=0;resizeLast=0;collapsible=1;marginBottom=0;whiteSpace=wrap;html=1;" parent="UBFY9NKoFfWOAkmvo0KO-5" vertex="1">
          <mxGeometry x="2070" y="1310" width="380" height="190" as="geometry" />
        </mxCell>
        <mxCell id="SqEzRoBcsGHss-kbt-hw-667" value="+ appID: const int" style="text;strokeColor=none;fillColor=none;align=left;verticalAlign=top;spacingLeft=4;spacingRight=4;overflow=hidden;rotatable=0;points=[[0,0.5],[1,0.5]];portConstraint=eastwest;whiteSpace=wrap;html=1;" parent="SqEzRoBcsGHss-kbt-hw-666" vertex="1">
          <mxGeometry y="26" width="380" height="26" as="geometry" />
        </mxCell>
        <mxCell id="SqEzRoBcsGHss-kbt-hw-668" value="+ modelType: const char*" style="text;strokeColor=none;fillColor=none;align=left;verticalAlign=top;spacingLeft=4;spacingRight=4;overflow=hidden;rotatable=0;points=[[0,0.5],[1,0.5]];portConstraint=eastwest;whiteSpace=wrap;html=1;" parent="SqEzRoBcsGHss-kbt-hw-666" vertex="1">
          <mxGeometry y="52" width="380" height="26" as="geometry" />
        </mxCell>
        <mxCell id="SqEzRoBcsGHss-kbt-hw-669" value="+ tasks: queue&amp;lt;Task&amp;gt;" style="text;strokeColor=none;fillColor=none;align=left;verticalAlign=top;spacingLeft=4;spacingRight=4;overflow=hidden;rotatable=0;points=[[0,0.5],[1,0.5]];portConstraint=eastwest;whiteSpace=wrap;html=1;" parent="SqEzRoBcsGHss-kbt-hw-666" vertex="1">
          <mxGeometry y="78" width="380" height="26" as="geometry" />
        </mxCell>
        <mxCell id="SqEzRoBcsGHss-kbt-hw-670" value="+ runningModels: list&amp;lt;Model*&amp;gt;" style="text;strokeColor=none;fillColor=none;align=left;verticalAlign=top;spacingLeft=4;spacingRight=4;overflow=hidden;rotatable=0;points=[[0,0.5],[1,0.5]];portConstraint=eastwest;whiteSpace=wrap;html=1;" parent="SqEzRoBcsGHss-kbt-hw-666" vertex="1">
          <mxGeometry y="104" width="380" height="26" as="geometry" />
        </mxCell>
        <mxCell id="SqEzRoBcsGHss-kbt-hw-671" value="+ isFinish: bool" style="text;strokeColor=none;fillColor=none;align=left;verticalAlign=top;spacingLeft=4;spacingRight=4;overflow=hidden;rotatable=0;points=[[0,0.5],[1,0.5]];portConstraint=eastwest;whiteSpace=wrap;html=1;" parent="SqEzRoBcsGHss-kbt-hw-666" vertex="1">
          <mxGeometry y="130" width="380" height="26" as="geometry" />
        </mxCell>
        <mxCell id="SqEzRoBcsGHss-kbt-hw-672" value="" style="line;strokeWidth=1;fillColor=none;align=left;verticalAlign=middle;spacingTop=-1;spacingLeft=3;spacingRight=3;rotatable=0;labelPosition=right;points=[];portConstraint=eastwest;strokeColor=inherit;" parent="SqEzRoBcsGHss-kbt-hw-666" vertex="1">
          <mxGeometry y="156" width="380" height="8" as="geometry" />
        </mxCell>
        <mxCell id="SqEzRoBcsGHss-kbt-hw-673" value="+ cycle (): void" style="text;strokeColor=none;fillColor=none;align=left;verticalAlign=top;spacingLeft=4;spacingRight=4;overflow=hidden;rotatable=0;points=[[0,0.5],[1,0.5]];portConstraint=eastwest;whiteSpace=wrap;html=1;" parent="SqEzRoBcsGHss-kbt-hw-666" vertex="1">
          <mxGeometry y="164" width="380" height="26" as="geometry" />
        </mxCell>
        <mxCell id="SqEzRoBcsGHss-kbt-hw-674" value="" style="endArrow=open;endFill=1;endSize=12;html=1;rounded=0;exitX=0.5;exitY=0;exitDx=0;exitDy=0;" parent="UBFY9NKoFfWOAkmvo0KO-5" source="SqEzRoBcsGHss-kbt-hw-666" target="SqEzRoBcsGHss-kbt-hw-646" edge="1">
          <mxGeometry width="160" relative="1" as="geometry">
            <mxPoint x="2150" y="1390" as="sourcePoint" />
            <mxPoint x="2590" y="1267" as="targetPoint" />
          </mxGeometry>
        </mxCell>
        <mxCell id="SqEzRoBcsGHss-kbt-hw-675" value="" style="endArrow=open;endFill=1;endSize=12;html=1;rounded=0;exitX=1;exitY=0.5;exitDx=0;exitDy=0;entryX=-0.001;entryY=0.333;entryDx=0;entryDy=0;entryPerimeter=0;" parent="UBFY9NKoFfWOAkmvo0KO-5" source="SqEzRoBcsGHss-kbt-hw-644" target="SqEzRoBcsGHss-kbt-hw-607" edge="1">
          <mxGeometry width="160" relative="1" as="geometry">
            <mxPoint x="2500" y="1200" as="sourcePoint" />
            <mxPoint x="2596.6499999999996" y="1214.19" as="targetPoint" />
          </mxGeometry>
        </mxCell>
        <mxCell id="SqEzRoBcsGHss-kbt-hw-547" value="Memory Controller" style="locked=1;" parent="0" />
        <mxCell id="SqEzRoBcsGHss-kbt-hw-548" value="MemoryController" style="swimlane;fontStyle=1;align=center;verticalAlign=top;childLayout=stackLayout;horizontal=1;startSize=26;horizontalStack=0;resizeParent=1;resizeParentMax=0;resizeLast=0;collapsible=1;marginBottom=0;whiteSpace=wrap;html=1;" parent="SqEzRoBcsGHss-kbt-hw-547" vertex="1">
          <mxGeometry x="1280" y="630" width="310" height="388" as="geometry" />
        </mxCell>
        <mxCell id="SqEzRoBcsGHss-kbt-hw-549" value="+ storageLimit: const unsigned long long" style="text;strokeColor=none;fillColor=none;align=left;verticalAlign=top;spacingLeft=4;spacingRight=4;overflow=hidden;rotatable=0;points=[[0,0.5],[1,0.5]];portConstraint=eastwest;whiteSpace=wrap;html=1;" parent="SqEzRoBcsGHss-kbt-hw-548" vertex="1">
          <mxGeometry y="26" width="310" height="26" as="geometry" />
        </mxCell>
        <mxCell id="SqEzRoBcsGHss-kbt-hw-550" value="+ pageFrameOffset: const unsigned" style="text;strokeColor=none;fillColor=none;align=left;verticalAlign=top;spacingLeft=4;spacingRight=4;overflow=hidden;rotatable=0;points=[[0,0.5],[1,0.5]];portConstraint=eastwest;whiteSpace=wrap;html=1;" parent="SqEzRoBcsGHss-kbt-hw-548" vertex="1">
          <mxGeometry y="52" width="310" height="26" as="geometry" />
        </mxCell>
        <mxCell id="SqEzRoBcsGHss-kbt-hw-551" value="- pageIndex: unsigned long long" style="text;strokeColor=none;fillColor=none;align=left;verticalAlign=top;spacingLeft=4;spacingRight=4;overflow=hidden;rotatable=0;points=[[0,0.5],[1,0.5]];portConstraint=eastwest;whiteSpace=wrap;html=1;" parent="SqEzRoBcsGHss-kbt-hw-548" vertex="1">
          <mxGeometry y="78" width="310" height="26" as="geometry" />
        </mxCell>
        <mxCell id="SqEzRoBcsGHss-kbt-hw-552" value="- mPages: map&amp;lt;unsigned long long, Page&amp;gt;" style="text;strokeColor=none;fillColor=none;align=left;verticalAlign=top;spacingLeft=4;spacingRight=4;overflow=hidden;rotatable=0;points=[[0,0.5],[1,0.5]];portConstraint=eastwest;whiteSpace=wrap;html=1;" parent="SqEzRoBcsGHss-kbt-hw-548" vertex="1">
          <mxGeometry y="104" width="310" height="26" as="geometry" />
        </mxCell>
        <mxCell id="SqEzRoBcsGHss-kbt-hw-553" value="- availablePageList: List&amp;lt;Page*&amp;gt;" style="text;strokeColor=none;fillColor=none;align=left;verticalAlign=top;spacingLeft=4;spacingRight=4;overflow=hidden;rotatable=0;points=[[0,0.5],[1,0.5]];portConstraint=eastwest;whiteSpace=wrap;html=1;" parent="SqEzRoBcsGHss-kbt-hw-548" vertex="1">
          <mxGeometry y="130" width="310" height="26" as="geometry" />
        </mxCell>
        <mxCell id="SqEzRoBcsGHss-kbt-hw-554" value="- usedPageList: List&amp;lt;Page*&amp;gt;" style="text;strokeColor=none;fillColor=none;align=left;verticalAlign=top;spacingLeft=4;spacingRight=4;overflow=hidden;rotatable=0;points=[[0,0.5],[1,0.5]];portConstraint=eastwest;whiteSpace=wrap;html=1;" parent="SqEzRoBcsGHss-kbt-hw-548" vertex="1">
          <mxGeometry y="156" width="310" height="26" as="geometry" />
        </mxCell>
        <mxCell id="SqEzRoBcsGHss-kbt-hw-555" style="line;strokeWidth=1;fillColor=none;align=left;verticalAlign=middle;spacingTop=-1;spacingLeft=3;spacingRight=3;rotatable=0;labelPosition=right;points=[];portConstraint=eastwest;strokeColor=inherit;" parent="SqEzRoBcsGHss-kbt-hw-548" vertex="1">
          <mxGeometry y="182" width="310" height="8" as="geometry" />
        </mxCell>
        <mxCell id="SqEzRoBcsGHss-kbt-hw-556" value="+ gmmu_to_mc_queue: List&amp;lt;MemoryAccess*&amp;gt;" style="text;strokeColor=none;fillColor=none;align=left;verticalAlign=top;spacingLeft=4;spacingRight=4;overflow=hidden;rotatable=0;points=[[0,0.5],[1,0.5]];portConstraint=eastwest;whiteSpace=wrap;html=1;" parent="SqEzRoBcsGHss-kbt-hw-548" vertex="1">
          <mxGeometry y="190" width="310" height="26" as="geometry" />
        </mxCell>
        <mxCell id="SqEzRoBcsGHss-kbt-hw-557" value="+ mc_to_gmmu_queue: List&amp;lt;MemoryAccess*&amp;gt;" style="text;strokeColor=none;fillColor=none;align=left;verticalAlign=top;spacingLeft=4;spacingRight=4;overflow=hidden;rotatable=0;points=[[0,0.5],[1,0.5]];portConstraint=eastwest;whiteSpace=wrap;html=1;" parent="SqEzRoBcsGHss-kbt-hw-548" vertex="1">
          <mxGeometry y="216" width="310" height="26" as="geometry" />
        </mxCell>
        <mxCell id="SqEzRoBcsGHss-kbt-hw-558" value="" style="line;strokeWidth=1;fillColor=none;align=left;verticalAlign=middle;spacingTop=-1;spacingLeft=3;spacingRight=3;rotatable=0;labelPosition=right;points=[];portConstraint=eastwest;strokeColor=inherit;" parent="SqEzRoBcsGHss-kbt-hw-548" vertex="1">
          <mxGeometry y="242" width="310" height="8" as="geometry" />
        </mxCell>
        <mxCell id="SqEzRoBcsGHss-kbt-hw-559" value="+ memoryAllocate (numByte: int): Page*" style="text;strokeColor=none;fillColor=none;align=left;verticalAlign=top;spacingLeft=4;spacingRight=4;overflow=hidden;rotatable=0;points=[[0,0.5],[1,0.5]];portConstraint=eastwest;whiteSpace=wrap;html=1;" parent="SqEzRoBcsGHss-kbt-hw-548" vertex="1">
          <mxGeometry y="250" width="310" height="26" as="geometry" />
        </mxCell>
        <mxCell id="SqEzRoBcsGHss-kbt-hw-560" value="+ memoryRelease (page: Page*): void" style="text;strokeColor=none;fillColor=none;align=left;verticalAlign=top;spacingLeft=4;spacingRight=4;overflow=hidden;rotatable=0;points=[[0,0.5],[1,0.5]];portConstraint=eastwest;whiteSpace=wrap;html=1;" parent="SqEzRoBcsGHss-kbt-hw-548" vertex="1">
          <mxGeometry y="276" width="310" height="26" as="geometry" />
        </mxCell>
        <mxCell id="SqEzRoBcsGHss-kbt-hw-561" value="+ refer (page_id: unsigned long long): Page*" style="text;strokeColor=none;fillColor=none;align=left;verticalAlign=top;spacingLeft=4;spacingRight=4;overflow=hidden;rotatable=0;points=[[0,0.5],[1,0.5]];portConstraint=eastwest;whiteSpace=wrap;html=1;" parent="SqEzRoBcsGHss-kbt-hw-548" vertex="1">
          <mxGeometry y="302" width="310" height="26" as="geometry" />
        </mxCell>
        <mxCell id="SqEzRoBcsGHss-kbt-hw-562" value="- createPage (): void" style="text;strokeColor=none;fillColor=none;align=left;verticalAlign=top;spacingLeft=4;spacingRight=4;overflow=hidden;rotatable=0;points=[[0,0.5],[1,0.5]];portConstraint=eastwest;whiteSpace=wrap;html=1;" parent="SqEzRoBcsGHss-kbt-hw-548" vertex="1">
          <mxGeometry y="328" width="310" height="26" as="geometry" />
        </mxCell>
        <mxCell id="SqEzRoBcsGHss-kbt-hw-563" style="line;strokeWidth=1;fillColor=none;align=left;verticalAlign=middle;spacingTop=-1;spacingLeft=3;spacingRight=3;rotatable=0;labelPosition=right;points=[];portConstraint=eastwest;strokeColor=inherit;" parent="SqEzRoBcsGHss-kbt-hw-548" vertex="1">
          <mxGeometry y="354" width="310" height="8" as="geometry" />
        </mxCell>
        <mxCell id="SqEzRoBcsGHss-kbt-hw-564" value="+ cycle (): void" style="text;strokeColor=none;fillColor=none;align=left;verticalAlign=top;spacingLeft=4;spacingRight=4;overflow=hidden;rotatable=0;points=[[0,0.5],[1,0.5]];portConstraint=eastwest;whiteSpace=wrap;html=1;" parent="SqEzRoBcsGHss-kbt-hw-548" vertex="1">
          <mxGeometry y="362" width="310" height="26" as="geometry" />
        </mxCell>
        <mxCell id="SqEzRoBcsGHss-kbt-hw-448" value="GPU" style="locked=1;" parent="0" />
        <mxCell id="SqEzRoBcsGHss-kbt-hw-449" value="GPU" style="swimlane;fontStyle=1;align=center;verticalAlign=top;childLayout=stackLayout;horizontal=1;startSize=26;horizontalStack=0;resizeParent=1;resizeParentMax=0;resizeLast=0;collapsible=1;marginBottom=0;whiteSpace=wrap;html=1;" parent="SqEzRoBcsGHss-kbt-hw-448" vertex="1">
          <mxGeometry x="1280" y="1050" width="310" height="406" as="geometry" />
        </mxCell>
        <mxCell id="SqEzRoBcsGHss-kbt-hw-450" value="+ commandQueue: queue&amp;lt;Kernel*&amp;gt;" style="text;strokeColor=none;fillColor=none;align=left;verticalAlign=top;spacingLeft=4;spacingRight=4;overflow=hidden;rotatable=0;points=[[0,0.5],[1,0.5]];portConstraint=eastwest;whiteSpace=wrap;html=1;" parent="SqEzRoBcsGHss-kbt-hw-449" vertex="1">
          <mxGeometry y="26" width="310" height="26" as="geometry" />
        </mxCell>
        <mxCell id="SqEzRoBcsGHss-kbt-hw-451" value="+ finishKernels: list&amp;lt;Kernel*&amp;gt;" style="text;strokeColor=none;fillColor=none;align=left;verticalAlign=top;spacingLeft=4;spacingRight=4;overflow=hidden;rotatable=0;points=[[0,0.5],[1,0.5]];portConstraint=eastwest;whiteSpace=wrap;html=1;" parent="SqEzRoBcsGHss-kbt-hw-449" vertex="1">
          <mxGeometry y="52" width="310" height="26" as="geometry" />
        </mxCell>
        <mxCell id="SqEzRoBcsGHss-kbt-hw-452" value="- runningKernels: list&amp;lt;Kernel*&amp;gt;" style="text;strokeColor=none;fillColor=none;align=left;verticalAlign=top;spacingLeft=4;spacingRight=4;overflow=hidden;rotatable=0;points=[[0,0.5],[1,0.5]];portConstraint=eastwest;whiteSpace=wrap;html=1;" parent="SqEzRoBcsGHss-kbt-hw-449" vertex="1">
          <mxGeometry y="78" width="310" height="26" as="geometry" />
        </mxCell>
        <mxCell id="SqEzRoBcsGHss-kbt-hw-453" value="- mGMMU: GMMU;" style="text;strokeColor=none;fillColor=none;align=left;verticalAlign=top;spacingLeft=4;spacingRight=4;overflow=hidden;rotatable=0;points=[[0,0.5],[1,0.5]];portConstraint=eastwest;whiteSpace=wrap;html=1;" parent="SqEzRoBcsGHss-kbt-hw-449" vertex="1">
          <mxGeometry y="104" width="310" height="26" as="geometry" />
        </mxCell>
        <mxCell id="SqEzRoBcsGHss-kbt-hw-454" value="- mSMs: map&amp;lt;int, SM&amp;gt;" style="text;strokeColor=none;fillColor=none;align=left;verticalAlign=top;spacingLeft=4;spacingRight=4;overflow=hidden;rotatable=0;points=[[0,0.5],[1,0.5]];portConstraint=eastwest;whiteSpace=wrap;html=1;" parent="SqEzRoBcsGHss-kbt-hw-449" vertex="1">
          <mxGeometry y="130" width="310" height="26" as="geometry" />
        </mxCell>
        <mxCell id="SqEzRoBcsGHss-kbt-hw-455" value="- mMC: MemoryController*" style="text;strokeColor=none;fillColor=none;align=left;verticalAlign=top;spacingLeft=4;spacingRight=4;overflow=hidden;rotatable=0;points=[[0,0.5],[1,0.5]];portConstraint=eastwest;whiteSpace=wrap;html=1;" parent="SqEzRoBcsGHss-kbt-hw-449" vertex="1">
          <mxGeometry y="156" width="310" height="26" as="geometry" />
        </mxCell>
        <mxCell id="SqEzRoBcsGHss-kbt-hw-456" style="line;strokeWidth=1;fillColor=none;align=left;verticalAlign=middle;spacingTop=-1;spacingLeft=3;spacingRight=3;rotatable=0;labelPosition=right;points=[];portConstraint=eastwest;strokeColor=inherit;" parent="SqEzRoBcsGHss-kbt-hw-449" vertex="1">
          <mxGeometry y="182" width="310" height="8" as="geometry" />
        </mxCell>
        <mxCell id="SqEzRoBcsGHss-kbt-hw-457" value="+ launchKernel (kernel: Kerenl*): bool" style="text;strokeColor=none;fillColor=none;align=left;verticalAlign=top;spacingLeft=4;spacingRight=4;overflow=hidden;rotatable=0;points=[[0,0.5],[1,0.5]];portConstraint=eastwest;whiteSpace=wrap;html=1;" parent="SqEzRoBcsGHss-kbt-hw-449" vertex="1">
          <mxGeometry y="190" width="310" height="26" as="geometry" />
        </mxCell>
        <mxCell id="SqEzRoBcsGHss-kbt-hw-458" value="+ getGMMU (): GMMU*" style="text;strokeColor=none;fillColor=none;align=left;verticalAlign=top;spacingLeft=4;spacingRight=4;overflow=hidden;rotatable=0;points=[[0,0.5],[1,0.5]];portConstraint=eastwest;whiteSpace=wrap;html=1;" parent="SqEzRoBcsGHss-kbt-hw-449" vertex="1">
          <mxGeometry y="216" width="310" height="26" as="geometry" />
        </mxCell>
        <mxCell id="SqEzRoBcsGHss-kbt-hw-459" value="+ getIdleSMs (): list&amp;lt;int&amp;gt;" style="text;strokeColor=none;fillColor=none;align=left;verticalAlign=top;spacingLeft=4;spacingRight=4;overflow=hidden;rotatable=0;points=[[0,0.5],[1,0.5]];portConstraint=eastwest;whiteSpace=wrap;html=1;" parent="SqEzRoBcsGHss-kbt-hw-449" vertex="1">
          <mxGeometry y="242" width="310" height="26" as="geometry" />
        </mxCell>
        <mxCell id="SqEzRoBcsGHss-kbt-hw-460" value="+ isIdle (): bool" style="text;strokeColor=none;fillColor=none;align=left;verticalAlign=top;spacingLeft=4;spacingRight=4;overflow=hidden;rotatable=0;points=[[0,0.5],[1,0.5]];portConstraint=eastwest;whiteSpace=wrap;html=1;" parent="SqEzRoBcsGHss-kbt-hw-449" vertex="1">
          <mxGeometry y="268" width="310" height="26" as="geometry" />
        </mxCell>
        <mxCell id="SqEzRoBcsGHss-kbt-hw-461" value="" style="line;strokeWidth=1;fillColor=none;align=left;verticalAlign=middle;spacingTop=-1;spacingLeft=3;spacingRight=3;rotatable=0;labelPosition=right;points=[];portConstraint=eastwest;strokeColor=inherit;" parent="SqEzRoBcsGHss-kbt-hw-449" vertex="1">
          <mxGeometry y="294" width="310" height="8" as="geometry" />
        </mxCell>
        <mxCell id="SqEzRoBcsGHss-kbt-hw-462" value="+ cycle (): void" style="text;strokeColor=none;fillColor=none;align=left;verticalAlign=top;spacingLeft=4;spacingRight=4;overflow=hidden;rotatable=0;points=[[0,0.5],[1,0.5]];portConstraint=eastwest;whiteSpace=wrap;html=1;" parent="SqEzRoBcsGHss-kbt-hw-449" vertex="1">
          <mxGeometry y="302" width="310" height="26" as="geometry" />
        </mxCell>
        <mxCell id="SqEzRoBcsGHss-kbt-hw-463" value="- Runtime_Block_Scheduling (): void" style="text;strokeColor=none;fillColor=none;align=left;verticalAlign=top;spacingLeft=4;spacingRight=4;overflow=hidden;rotatable=0;points=[[0,0.5],[1,0.5]];portConstraint=eastwest;whiteSpace=wrap;html=1;" parent="SqEzRoBcsGHss-kbt-hw-449" vertex="1">
          <mxGeometry y="328" width="310" height="26" as="geometry" />
        </mxCell>
        <mxCell id="SqEzRoBcsGHss-kbt-hw-464" value="- Memory_Allocation (): void" style="text;strokeColor=none;fillColor=none;align=left;verticalAlign=top;spacingLeft=4;spacingRight=4;overflow=hidden;rotatable=0;points=[[0,0.5],[1,0.5]];portConstraint=eastwest;whiteSpace=wrap;html=1;" parent="SqEzRoBcsGHss-kbt-hw-449" vertex="1">
          <mxGeometry y="354" width="310" height="26" as="geometry" />
        </mxCell>
        <mxCell id="SqEzRoBcsGHss-kbt-hw-465" value="- Check_Finish_Kernel (): void" style="text;strokeColor=none;fillColor=none;align=left;verticalAlign=top;spacingLeft=4;spacingRight=4;overflow=hidden;rotatable=0;points=[[0,0.5],[1,0.5]];portConstraint=eastwest;whiteSpace=wrap;html=1;" parent="SqEzRoBcsGHss-kbt-hw-449" vertex="1">
          <mxGeometry y="380" width="310" height="26" as="geometry" />
        </mxCell>
        <mxCell id="SqEzRoBcsGHss-kbt-hw-466" value="GMMU" style="swimlane;fontStyle=1;align=center;verticalAlign=top;childLayout=stackLayout;horizontal=1;startSize=26;horizontalStack=0;resizeParent=1;resizeParentMax=0;resizeLast=0;collapsible=1;marginBottom=0;whiteSpace=wrap;html=1;" parent="SqEzRoBcsGHss-kbt-hw-448" vertex="1">
          <mxGeometry x="790" y="330" width="430" height="440" as="geometry" />
        </mxCell>
        <mxCell id="SqEzRoBcsGHss-kbt-hw-467" value="- MHSRs: list&amp;lt;MemoryAccess*&amp;gt;" style="text;strokeColor=none;fillColor=none;align=left;verticalAlign=top;spacingLeft=4;spacingRight=4;overflow=hidden;rotatable=0;points=[[0,0.5],[1,0.5]];portConstraint=eastwest;whiteSpace=wrap;html=1;" parent="SqEzRoBcsGHss-kbt-hw-466" vertex="1">
          <mxGeometry y="26" width="430" height="26" as="geometry" />
        </mxCell>
        <mxCell id="SqEzRoBcsGHss-kbt-hw-468" value="- page_fault_process_queue: map&amp;lt;int, unordered_set&amp;lt;unsigned long long&amp;gt;&amp;gt;" style="text;strokeColor=none;fillColor=none;align=left;verticalAlign=top;spacingLeft=4;spacingRight=4;overflow=hidden;rotatable=0;points=[[0,0.5],[1,0.5]];portConstraint=eastwest;whiteSpace=wrap;html=1;" parent="SqEzRoBcsGHss-kbt-hw-466" vertex="1">
          <mxGeometry y="52" width="430" height="26" as="geometry" />
        </mxCell>
        <mxCell id="SqEzRoBcsGHss-kbt-hw-469" value="- page_fault_finish_queue: list&amp;lt;MemoryAccess*&amp;gt;" style="text;strokeColor=none;fillColor=none;align=left;verticalAlign=top;spacingLeft=4;spacingRight=4;overflow=hidden;rotatable=0;points=[[0,0.5],[1,0.5]];portConstraint=eastwest;whiteSpace=wrap;html=1;" parent="SqEzRoBcsGHss-kbt-hw-466" vertex="1">
          <mxGeometry y="78" width="430" height="26" as="geometry" />
        </mxCell>
        <mxCell id="SqEzRoBcsGHss-kbt-hw-470" value="- wait_cycle: unsigned long long" style="text;strokeColor=none;fillColor=none;align=left;verticalAlign=top;spacingLeft=4;spacingRight=4;overflow=hidden;rotatable=0;points=[[0,0.5],[1,0.5]];portConstraint=eastwest;whiteSpace=wrap;html=1;" parent="SqEzRoBcsGHss-kbt-hw-466" vertex="1">
          <mxGeometry y="104" width="430" height="26" as="geometry" />
        </mxCell>
        <mxCell id="SqEzRoBcsGHss-kbt-hw-471" value="- mCGroups: map&amp;lt;int, pair&amp;lt;int, LRU_TLB&amp;lt;unsigned long long, Page*&amp;gt;&amp;gt;&amp;gt;" style="text;strokeColor=none;fillColor=none;align=left;verticalAlign=top;spacingLeft=4;spacingRight=4;overflow=hidden;rotatable=0;points=[[0,0.5],[1,0.5]];portConstraint=eastwest;whiteSpace=wrap;html=1;" parent="SqEzRoBcsGHss-kbt-hw-466" vertex="1">
          <mxGeometry y="130" width="430" height="26" as="geometry" />
        </mxCell>
        <mxCell id="SqEzRoBcsGHss-kbt-hw-472" value="- mGPU: GPU*" style="text;strokeColor=none;fillColor=none;align=left;verticalAlign=top;spacingLeft=4;spacingRight=4;overflow=hidden;rotatable=0;points=[[0,0.5],[1,0.5]];portConstraint=eastwest;whiteSpace=wrap;html=1;" parent="SqEzRoBcsGHss-kbt-hw-466" vertex="1">
          <mxGeometry y="156" width="430" height="26" as="geometry" />
        </mxCell>
        <mxCell id="SqEzRoBcsGHss-kbt-hw-473" value="- mMC: MemoryController*" style="text;strokeColor=none;fillColor=none;align=left;verticalAlign=top;spacingLeft=4;spacingRight=4;overflow=hidden;rotatable=0;points=[[0,0.5],[1,0.5]];portConstraint=eastwest;whiteSpace=wrap;html=1;" parent="SqEzRoBcsGHss-kbt-hw-466" vertex="1">
          <mxGeometry y="182" width="430" height="26" as="geometry" />
        </mxCell>
        <mxCell id="SqEzRoBcsGHss-kbt-hw-474" value="" style="line;strokeWidth=1;fillColor=none;align=left;verticalAlign=middle;spacingTop=-1;spacingLeft=3;spacingRight=3;rotatable=0;labelPosition=right;points=[];portConstraint=eastwest;strokeColor=inherit;" parent="SqEzRoBcsGHss-kbt-hw-466" vertex="1">
          <mxGeometry y="208" width="430" height="8" as="geometry" />
        </mxCell>
        <mxCell id="SqEzRoBcsGHss-kbt-hw-475" value="- sm_to_gmmu_queue: list&amp;lt;MemoryAccess*&amp;gt;" style="text;strokeColor=none;fillColor=none;align=left;verticalAlign=top;spacingLeft=4;spacingRight=4;overflow=hidden;rotatable=0;points=[[0,0.5],[1,0.5]];portConstraint=eastwest;whiteSpace=wrap;html=1;" parent="SqEzRoBcsGHss-kbt-hw-466" vertex="1">
          <mxGeometry y="216" width="430" height="26" as="geometry" />
        </mxCell>
        <mxCell id="SqEzRoBcsGHss-kbt-hw-476" value="- gmmu_to_sm_queue: list&amp;lt;MemoryAccess*&amp;gt;" style="text;strokeColor=none;fillColor=none;align=left;verticalAlign=top;spacingLeft=4;spacingRight=4;overflow=hidden;rotatable=0;points=[[0,0.5],[1,0.5]];portConstraint=eastwest;whiteSpace=wrap;html=1;" parent="SqEzRoBcsGHss-kbt-hw-466" vertex="1">
          <mxGeometry y="242" width="430" height="26" as="geometry" />
        </mxCell>
        <mxCell id="SqEzRoBcsGHss-kbt-hw-477" style="line;strokeWidth=1;fillColor=none;align=left;verticalAlign=middle;spacingTop=-1;spacingLeft=3;spacingRight=3;rotatable=0;labelPosition=right;points=[];portConstraint=eastwest;strokeColor=inherit;" parent="SqEzRoBcsGHss-kbt-hw-466" vertex="1">
          <mxGeometry y="268" width="430" height="8" as="geometry" />
        </mxCell>
        <mxCell id="SqEzRoBcsGHss-kbt-hw-478" value="+ setCGroupSize (model_id: int; capacity: unsigned): void" style="text;strokeColor=none;fillColor=none;align=left;verticalAlign=top;spacingLeft=4;spacingRight=4;overflow=hidden;rotatable=0;points=[[0,0.5],[1,0.5]];portConstraint=eastwest;whiteSpace=wrap;html=1;" parent="SqEzRoBcsGHss-kbt-hw-466" vertex="1">
          <mxGeometry y="276" width="430" height="26" as="geometry" />
        </mxCell>
        <mxCell id="SqEzRoBcsGHss-kbt-hw-479" value="+ freeCGroup (model_id: int): void" style="text;strokeColor=none;fillColor=none;align=left;verticalAlign=top;spacingLeft=4;spacingRight=4;overflow=hidden;rotatable=0;points=[[0,0.5],[1,0.5]];portConstraint=eastwest;whiteSpace=wrap;html=1;" parent="SqEzRoBcsGHss-kbt-hw-466" vertex="1">
          <mxGeometry y="302" width="430" height="26" as="geometry" />
        </mxCell>
        <mxCell id="SqEzRoBcsGHss-kbt-hw-480" value="- getCGroup (model_id: int): pair&amp;lt;int, LRU_TLB&amp;lt;unsigned long long, Page*&amp;gt;&amp;gt;*" style="text;strokeColor=none;fillColor=none;align=left;verticalAlign=top;spacingLeft=4;spacingRight=4;overflow=hidden;rotatable=0;points=[[0,0.5],[1,0.5]];portConstraint=eastwest;whiteSpace=wrap;html=1;" parent="SqEzRoBcsGHss-kbt-hw-466" vertex="1">
          <mxGeometry y="328" width="430" height="26" as="geometry" />
        </mxCell>
        <mxCell id="SqEzRoBcsGHss-kbt-hw-481" style="line;strokeWidth=1;fillColor=none;align=left;verticalAlign=middle;spacingTop=-1;spacingLeft=3;spacingRight=3;rotatable=0;labelPosition=right;points=[];portConstraint=eastwest;strokeColor=inherit;" parent="SqEzRoBcsGHss-kbt-hw-466" vertex="1">
          <mxGeometry y="354" width="430" height="8" as="geometry" />
        </mxCell>
        <mxCell id="SqEzRoBcsGHss-kbt-hw-482" value="+ cycle (): void" style="text;strokeColor=none;fillColor=none;align=left;verticalAlign=top;spacingLeft=4;spacingRight=4;overflow=hidden;rotatable=0;points=[[0,0.5],[1,0.5]];portConstraint=eastwest;whiteSpace=wrap;html=1;" parent="SqEzRoBcsGHss-kbt-hw-466" vertex="1">
          <mxGeometry y="362" width="430" height="26" as="geometry" />
        </mxCell>
        <mxCell id="SqEzRoBcsGHss-kbt-hw-483" value="- Access_Processing (): void" style="text;strokeColor=none;fillColor=none;align=left;verticalAlign=top;spacingLeft=4;spacingRight=4;overflow=hidden;rotatable=0;points=[[0,0.5],[1,0.5]];portConstraint=eastwest;whiteSpace=wrap;html=1;" parent="SqEzRoBcsGHss-kbt-hw-466" vertex="1">
          <mxGeometry y="388" width="430" height="26" as="geometry" />
        </mxCell>
        <mxCell id="SqEzRoBcsGHss-kbt-hw-484" value="- Page_Fault_Handler (): void" style="text;strokeColor=none;fillColor=none;align=left;verticalAlign=top;spacingLeft=4;spacingRight=4;overflow=hidden;rotatable=0;points=[[0,0.5],[1,0.5]];portConstraint=eastwest;whiteSpace=wrap;html=1;" parent="SqEzRoBcsGHss-kbt-hw-466" vertex="1">
          <mxGeometry y="414" width="430" height="26" as="geometry" />
        </mxCell>
        <mxCell id="SqEzRoBcsGHss-kbt-hw-485" value="SM" style="swimlane;fontStyle=1;align=center;verticalAlign=top;childLayout=stackLayout;horizontal=1;startSize=26;horizontalStack=0;resizeParent=1;resizeParentMax=0;resizeLast=0;collapsible=1;marginBottom=0;whiteSpace=wrap;html=1;" parent="SqEzRoBcsGHss-kbt-hw-448" vertex="1">
          <mxGeometry x="790" y="1120" width="430" height="380" as="geometry" />
        </mxCell>
        <mxCell id="SqEzRoBcsGHss-kbt-hw-486" value="+ smID: const int" style="text;strokeColor=none;fillColor=none;align=left;verticalAlign=top;spacingLeft=4;spacingRight=4;overflow=hidden;rotatable=0;points=[[0,0.5],[1,0.5]];portConstraint=eastwest;whiteSpace=wrap;html=1;" parent="SqEzRoBcsGHss-kbt-hw-485" vertex="1">
          <mxGeometry y="26" width="430" height="26" as="geometry" />
        </mxCell>
        <mxCell id="SqEzRoBcsGHss-kbt-hw-487" value="- mWarps: map&amp;lt;int, Warp&amp;gt;" style="text;strokeColor=none;fillColor=none;align=left;verticalAlign=top;spacingLeft=4;spacingRight=4;overflow=hidden;rotatable=0;points=[[0,0.5],[1,0.5]];portConstraint=eastwest;whiteSpace=wrap;html=1;" parent="SqEzRoBcsGHss-kbt-hw-485" vertex="1">
          <mxGeometry y="52" width="430" height="26" as="geometry" />
        </mxCell>
        <mxCell id="SqEzRoBcsGHss-kbt-hw-488" value="- runningBlock: list&amp;lt;Block*&amp;gt;" style="text;strokeColor=none;fillColor=none;align=left;verticalAlign=top;spacingLeft=4;spacingRight=4;overflow=hidden;rotatable=0;points=[[0,0.5],[1,0.5]];portConstraint=eastwest;whiteSpace=wrap;html=1;" parent="SqEzRoBcsGHss-kbt-hw-485" vertex="1">
          <mxGeometry y="78" width="430" height="26" as="geometry" />
        </mxCell>
        <mxCell id="SqEzRoBcsGHss-kbt-hw-489" value="- mGMMU: GMMU*" style="text;strokeColor=none;fillColor=none;align=left;verticalAlign=top;spacingLeft=4;spacingRight=4;overflow=hidden;rotatable=0;points=[[0,0.5],[1,0.5]];portConstraint=eastwest;whiteSpace=wrap;html=1;" parent="SqEzRoBcsGHss-kbt-hw-485" vertex="1">
          <mxGeometry y="104" width="430" height="26" as="geometry" />
        </mxCell>
        <mxCell id="SqEzRoBcsGHss-kbt-hw-490" value="- resource: ComputingResource" style="text;strokeColor=none;fillColor=none;align=left;verticalAlign=top;spacingLeft=4;spacingRight=4;overflow=hidden;rotatable=0;points=[[0,0.5],[1,0.5]];portConstraint=eastwest;whiteSpace=wrap;html=1;" parent="SqEzRoBcsGHss-kbt-hw-485" vertex="1">
          <mxGeometry y="130" width="430" height="26" as="geometry" />
        </mxCell>
        <mxCell id="SqEzRoBcsGHss-kbt-hw-491" style="line;strokeWidth=1;fillColor=none;align=left;verticalAlign=middle;spacingTop=-1;spacingLeft=3;spacingRight=3;rotatable=0;labelPosition=right;points=[];portConstraint=eastwest;strokeColor=inherit;" parent="SqEzRoBcsGHss-kbt-hw-485" vertex="1">
          <mxGeometry y="156" width="430" height="8" as="geometry" />
        </mxCell>
        <mxCell id="SqEzRoBcsGHss-kbt-hw-492" value="+ setGMMU (gmmu: GMMU*)" style="text;strokeColor=none;fillColor=none;align=left;verticalAlign=top;spacingLeft=4;spacingRight=4;overflow=hidden;rotatable=0;points=[[0,0.5],[1,0.5]];portConstraint=eastwest;whiteSpace=wrap;html=1;" parent="SqEzRoBcsGHss-kbt-hw-485" vertex="1">
          <mxGeometry y="164" width="430" height="26" as="geometry" />
        </mxCell>
        <mxCell id="SqEzRoBcsGHss-kbt-hw-493" value="+ bindKernel (kernel: Kernel*): bool" style="text;strokeColor=none;fillColor=none;align=left;verticalAlign=top;spacingLeft=4;spacingRight=4;overflow=hidden;rotatable=0;points=[[0,0.5],[1,0.5]];portConstraint=eastwest;whiteSpace=wrap;html=1;" parent="SqEzRoBcsGHss-kbt-hw-485" vertex="1">
          <mxGeometry y="190" width="430" height="26" as="geometry" />
        </mxCell>
        <mxCell id="SqEzRoBcsGHss-kbt-hw-494" value="+ checkKernelComplete (kernel: Kernel*): bool" style="text;strokeColor=none;fillColor=none;align=left;verticalAlign=top;spacingLeft=4;spacingRight=4;overflow=hidden;rotatable=0;points=[[0,0.5],[1,0.5]];portConstraint=eastwest;whiteSpace=wrap;html=1;" parent="SqEzRoBcsGHss-kbt-hw-485" vertex="1">
          <mxGeometry y="216" width="430" height="26" as="geometry" />
        </mxCell>
        <mxCell id="SqEzRoBcsGHss-kbt-hw-495" value="+ checkBlockFinish (): void" style="text;strokeColor=none;fillColor=none;align=left;verticalAlign=top;spacingLeft=4;spacingRight=4;overflow=hidden;rotatable=0;points=[[0,0.5],[1,0.5]];portConstraint=eastwest;whiteSpace=wrap;html=1;" parent="SqEzRoBcsGHss-kbt-hw-485" vertex="1">
          <mxGeometry y="242" width="430" height="26" as="geometry" />
        </mxCell>
        <mxCell id="SqEzRoBcsGHss-kbt-hw-496" value="+ isComputing (): bool" style="text;strokeColor=none;fillColor=none;align=left;verticalAlign=top;spacingLeft=4;spacingRight=4;overflow=hidden;rotatable=0;points=[[0,0.5],[1,0.5]];portConstraint=eastwest;whiteSpace=wrap;html=1;" parent="SqEzRoBcsGHss-kbt-hw-485" vertex="1">
          <mxGeometry y="268" width="430" height="26" as="geometry" />
        </mxCell>
        <mxCell id="SqEzRoBcsGHss-kbt-hw-497" value="+ isIdle (): bool" style="text;strokeColor=none;fillColor=none;align=left;verticalAlign=top;spacingLeft=4;spacingRight=4;overflow=hidden;rotatable=0;points=[[0,0.5],[1,0.5]];portConstraint=eastwest;whiteSpace=wrap;html=1;" parent="SqEzRoBcsGHss-kbt-hw-485" vertex="1">
          <mxGeometry y="294" width="430" height="26" as="geometry" />
        </mxCell>
        <mxCell id="SqEzRoBcsGHss-kbt-hw-498" value="- recycleResource (block: Block*) void" style="text;strokeColor=none;fillColor=none;align=left;verticalAlign=top;spacingLeft=4;spacingRight=4;overflow=hidden;rotatable=0;points=[[0,0.5],[1,0.5]];portConstraint=eastwest;whiteSpace=wrap;html=1;" parent="SqEzRoBcsGHss-kbt-hw-485" vertex="1">
          <mxGeometry y="320" width="430" height="26" as="geometry" />
        </mxCell>
        <mxCell id="SqEzRoBcsGHss-kbt-hw-499" value="" style="line;strokeWidth=1;fillColor=none;align=left;verticalAlign=middle;spacingTop=-1;spacingLeft=3;spacingRight=3;rotatable=0;labelPosition=right;points=[];portConstraint=eastwest;strokeColor=inherit;" parent="SqEzRoBcsGHss-kbt-hw-485" vertex="1">
          <mxGeometry y="346" width="430" height="8" as="geometry" />
        </mxCell>
        <mxCell id="SqEzRoBcsGHss-kbt-hw-500" value="+ cycle (): void" style="text;strokeColor=none;fillColor=none;align=left;verticalAlign=top;spacingLeft=4;spacingRight=4;overflow=hidden;rotatable=0;points=[[0,0.5],[1,0.5]];portConstraint=eastwest;whiteSpace=wrap;html=1;" parent="SqEzRoBcsGHss-kbt-hw-485" vertex="1">
          <mxGeometry y="354" width="430" height="26" as="geometry" />
        </mxCell>
        <mxCell id="SqEzRoBcsGHss-kbt-hw-501" value="Warp" style="swimlane;fontStyle=1;align=center;verticalAlign=top;childLayout=stackLayout;horizontal=1;startSize=26;horizontalStack=0;resizeParent=1;resizeParentMax=0;resizeLast=0;collapsible=1;marginBottom=0;whiteSpace=wrap;html=1;" parent="SqEzRoBcsGHss-kbt-hw-448" vertex="1">
          <mxGeometry x="790" y="844" width="263" height="224" as="geometry" />
        </mxCell>
        <mxCell id="SqEzRoBcsGHss-kbt-hw-502" value="+ warpID: const int" style="text;strokeColor=none;fillColor=none;align=left;verticalAlign=top;spacingLeft=4;spacingRight=4;overflow=hidden;rotatable=0;points=[[0,0.5],[1,0.5]];portConstraint=eastwest;whiteSpace=wrap;html=1;" parent="SqEzRoBcsGHss-kbt-hw-501" vertex="1">
          <mxGeometry y="26" width="263" height="26" as="geometry" />
        </mxCell>
        <mxCell id="SqEzRoBcsGHss-kbt-hw-503" value="+ mthread: vector&amp;lt;AccessThread&amp;gt;" style="text;strokeColor=none;fillColor=none;align=left;verticalAlign=top;spacingLeft=4;spacingRight=4;overflow=hidden;rotatable=0;points=[[0,0.5],[1,0.5]];portConstraint=eastwest;whiteSpace=wrap;html=1;" parent="SqEzRoBcsGHss-kbt-hw-501" vertex="1">
          <mxGeometry y="52" width="263" height="26" as="geometry" />
        </mxCell>
        <mxCell id="SqEzRoBcsGHss-kbt-hw-504" value="+ record: warpRecord" style="text;strokeColor=none;fillColor=none;align=left;verticalAlign=top;spacingLeft=4;spacingRight=4;overflow=hidden;rotatable=0;points=[[0,0.5],[1,0.5]];portConstraint=eastwest;whiteSpace=wrap;html=1;" parent="SqEzRoBcsGHss-kbt-hw-501" vertex="1">
          <mxGeometry y="78" width="263" height="26" as="geometry" />
        </mxCell>
        <mxCell id="SqEzRoBcsGHss-kbt-hw-505" value="+ isIdle: bool" style="text;strokeColor=none;fillColor=none;align=left;verticalAlign=top;spacingLeft=4;spacingRight=4;overflow=hidden;rotatable=0;points=[[0,0.5],[1,0.5]];portConstraint=eastwest;whiteSpace=wrap;html=1;" parent="SqEzRoBcsGHss-kbt-hw-501" vertex="1">
          <mxGeometry y="104" width="263" height="26" as="geometry" />
        </mxCell>
        <mxCell id="SqEzRoBcsGHss-kbt-hw-506" value="+ isBusy: bool" style="text;strokeColor=none;fillColor=none;align=left;verticalAlign=top;spacingLeft=4;spacingRight=4;overflow=hidden;rotatable=0;points=[[0,0.5],[1,0.5]];portConstraint=eastwest;whiteSpace=wrap;html=1;" parent="SqEzRoBcsGHss-kbt-hw-501" vertex="1">
          <mxGeometry y="130" width="263" height="26" as="geometry" />
        </mxCell>
        <mxCell id="SqEzRoBcsGHss-kbt-hw-507" value="" style="line;strokeWidth=1;fillColor=none;align=left;verticalAlign=middle;spacingTop=-1;spacingLeft=3;spacingRight=3;rotatable=0;labelPosition=right;points=[];portConstraint=eastwest;strokeColor=inherit;" parent="SqEzRoBcsGHss-kbt-hw-501" vertex="1">
          <mxGeometry y="156" width="263" height="8" as="geometry" />
        </mxCell>
        <mxCell id="SqEzRoBcsGHss-kbt-hw-508" value="+ sm_to_gmmu_queue: list&amp;lt;MemoryAccess*&amp;gt;" style="text;strokeColor=none;fillColor=none;align=left;verticalAlign=top;spacingLeft=4;spacingRight=4;overflow=hidden;rotatable=0;points=[[0,0.5],[1,0.5]];portConstraint=eastwest;whiteSpace=wrap;html=1;" parent="SqEzRoBcsGHss-kbt-hw-501" vertex="1">
          <mxGeometry y="164" width="263" height="26" as="geometry" />
        </mxCell>
        <mxCell id="SqEzRoBcsGHss-kbt-hw-509" value="+ gmmu_to_sm_queue: list&amp;lt;MemoryAccess*&amp;gt;" style="text;strokeColor=none;fillColor=none;align=left;verticalAlign=top;spacingLeft=4;spacingRight=4;overflow=hidden;rotatable=0;points=[[0,0.5],[1,0.5]];portConstraint=eastwest;whiteSpace=wrap;html=1;" parent="SqEzRoBcsGHss-kbt-hw-501" vertex="1">
          <mxGeometry y="190" width="263" height="26" as="geometry" />
        </mxCell>
        <mxCell id="SqEzRoBcsGHss-kbt-hw-510" style="line;strokeWidth=1;fillColor=none;align=left;verticalAlign=middle;spacingTop=-1;spacingLeft=3;spacingRight=3;rotatable=0;labelPosition=right;points=[];portConstraint=eastwest;strokeColor=inherit;" parent="SqEzRoBcsGHss-kbt-hw-501" vertex="1">
          <mxGeometry y="216" width="263" height="8" as="geometry" />
        </mxCell>
        <mxCell id="SqEzRoBcsGHss-kbt-hw-511" value="Block" style="swimlane;fontStyle=1;align=center;verticalAlign=top;childLayout=stackLayout;horizontal=1;startSize=26;horizontalStack=0;resizeParent=1;resizeParentMax=0;resizeLast=0;collapsible=1;marginBottom=0;whiteSpace=wrap;html=1;" parent="SqEzRoBcsGHss-kbt-hw-448" vertex="1">
          <mxGeometry x="1077" y="956" width="143" height="112" as="geometry" />
        </mxCell>
        <mxCell id="SqEzRoBcsGHss-kbt-hw-512" value="+ blockID: const int" style="text;strokeColor=none;fillColor=none;align=left;verticalAlign=top;spacingLeft=4;spacingRight=4;overflow=hidden;rotatable=0;points=[[0,0.5],[1,0.5]];portConstraint=eastwest;whiteSpace=wrap;html=1;" parent="SqEzRoBcsGHss-kbt-hw-511" vertex="1">
          <mxGeometry y="26" width="143" height="26" as="geometry" />
        </mxCell>
        <mxCell id="SqEzRoBcsGHss-kbt-hw-513" value="+ warps: list&amp;lt;Warp*&amp;gt;" style="text;strokeColor=none;fillColor=none;align=left;verticalAlign=top;spacingLeft=4;spacingRight=4;overflow=hidden;rotatable=0;points=[[0,0.5],[1,0.5]];portConstraint=eastwest;whiteSpace=wrap;html=1;" parent="SqEzRoBcsGHss-kbt-hw-511" vertex="1">
          <mxGeometry y="52" width="143" height="26" as="geometry" />
        </mxCell>
        <mxCell id="SqEzRoBcsGHss-kbt-hw-514" value="+ runningKernel: Kernel*" style="text;strokeColor=none;fillColor=none;align=left;verticalAlign=top;spacingLeft=4;spacingRight=4;overflow=hidden;rotatable=0;points=[[0,0.5],[1,0.5]];portConstraint=eastwest;whiteSpace=wrap;html=1;" parent="SqEzRoBcsGHss-kbt-hw-511" vertex="1">
          <mxGeometry y="78" width="143" height="26" as="geometry" />
        </mxCell>
        <mxCell id="SqEzRoBcsGHss-kbt-hw-515" value="" style="line;strokeWidth=1;fillColor=none;align=left;verticalAlign=middle;spacingTop=-1;spacingLeft=3;spacingRight=3;rotatable=0;labelPosition=right;points=[];portConstraint=eastwest;strokeColor=inherit;" parent="SqEzRoBcsGHss-kbt-hw-511" vertex="1">
          <mxGeometry y="104" width="143" height="8" as="geometry" />
        </mxCell>
        <mxCell id="SqEzRoBcsGHss-kbt-hw-516" value="AccessThread" style="swimlane;fontStyle=0;childLayout=stackLayout;horizontal=1;startSize=25;horizontalStack=0;resizeParent=1;resizeParentMax=0;resizeLast=0;collapsible=1;marginBottom=0;whiteSpace=wrap;html=1;" parent="SqEzRoBcsGHss-kbt-hw-448" vertex="1">
          <mxGeometry x="1077" y="843.5" width="142" height="85" as="geometry" />
        </mxCell>
        <mxCell id="SqEzRoBcsGHss-kbt-hw-517" value="request: Request*" style="text;strokeColor=none;fillColor=none;align=left;verticalAlign=middle;spacingLeft=4;spacingRight=4;overflow=hidden;points=[[0,0.5],[1,0.5]];portConstraint=eastwest;rotatable=0;whiteSpace=wrap;html=1;" parent="SqEzRoBcsGHss-kbt-hw-516" vertex="1">
          <mxGeometry y="25" width="142" height="20" as="geometry" />
        </mxCell>
        <mxCell id="SqEzRoBcsGHss-kbt-hw-518" value="access: MemoryAccess*" style="text;strokeColor=none;fillColor=none;align=left;verticalAlign=middle;spacingLeft=4;spacingRight=4;overflow=hidden;points=[[0,0.5],[1,0.5]];portConstraint=eastwest;rotatable=0;whiteSpace=wrap;html=1;" parent="SqEzRoBcsGHss-kbt-hw-516" vertex="1">
          <mxGeometry y="45" width="142" height="20" as="geometry" />
        </mxCell>
        <mxCell id="SqEzRoBcsGHss-kbt-hw-519" value="state: Thread_State" style="text;strokeColor=none;fillColor=none;align=left;verticalAlign=middle;spacingLeft=4;spacingRight=4;overflow=hidden;points=[[0,0.5],[1,0.5]];portConstraint=eastwest;rotatable=0;whiteSpace=wrap;html=1;" parent="SqEzRoBcsGHss-kbt-hw-516" vertex="1">
          <mxGeometry y="65" width="142" height="20" as="geometry" />
        </mxCell>
        <mxCell id="SqEzRoBcsGHss-kbt-hw-520" value="" style="endArrow=open;endFill=1;endSize=12;html=1;rounded=0;exitX=1;exitY=0.5;exitDx=0;exitDy=0;entryX=0;entryY=0.725;entryDx=0;entryDy=0;entryPerimeter=0;" parent="SqEzRoBcsGHss-kbt-hw-448" source="SqEzRoBcsGHss-kbt-hw-502" target="SqEzRoBcsGHss-kbt-hw-517" edge="1">
          <mxGeometry width="160" relative="1" as="geometry">
            <mxPoint x="1080" y="980" as="sourcePoint" />
            <mxPoint x="1040" y="883" as="targetPoint" />
          </mxGeometry>
        </mxCell>
        <mxCell id="SqEzRoBcsGHss-kbt-hw-521" value="" style="endArrow=open;endFill=1;endSize=12;html=1;rounded=0;exitX=0;exitY=0.5;exitDx=0;exitDy=0;entryX=1;entryY=0.5;entryDx=0;entryDy=0;" parent="SqEzRoBcsGHss-kbt-hw-448" source="SqEzRoBcsGHss-kbt-hw-513" target="SqEzRoBcsGHss-kbt-hw-508" edge="1">
          <mxGeometry width="160" relative="1" as="geometry">
            <mxPoint x="990" y="990" as="sourcePoint" />
            <mxPoint x="1020" y="1020" as="targetPoint" />
          </mxGeometry>
        </mxCell>
        <mxCell id="SqEzRoBcsGHss-kbt-hw-522" value="" style="endArrow=open;endFill=1;endSize=12;html=1;rounded=0;exitX=0.837;exitY=0;exitDx=0;exitDy=0;exitPerimeter=0;" parent="SqEzRoBcsGHss-kbt-hw-448" source="SqEzRoBcsGHss-kbt-hw-485" edge="1">
          <mxGeometry width="160" relative="1" as="geometry">
            <mxPoint x="1150" y="1100" as="sourcePoint" />
            <mxPoint x="1150" y="1070" as="targetPoint" />
          </mxGeometry>
        </mxCell>
        <mxCell id="SqEzRoBcsGHss-kbt-hw-523" value="" style="endArrow=open;endFill=1;endSize=12;html=1;rounded=0;" parent="SqEzRoBcsGHss-kbt-hw-448" edge="1">
          <mxGeometry width="160" relative="1" as="geometry">
            <mxPoint x="920" y="1120" as="sourcePoint" />
            <mxPoint x="920" y="1070" as="targetPoint" />
          </mxGeometry>
        </mxCell>
        <mxCell id="SqEzRoBcsGHss-kbt-hw-524" value="" style="endArrow=open;endFill=1;endSize=12;html=1;rounded=0;exitX=0;exitY=0.5;exitDx=0;exitDy=0;entryX=0;entryY=0.5;entryDx=0;entryDy=0;" parent="SqEzRoBcsGHss-kbt-hw-448" source="SqEzRoBcsGHss-kbt-hw-489" target="SqEzRoBcsGHss-kbt-hw-479" edge="1">
          <mxGeometry width="160" relative="1" as="geometry">
            <mxPoint x="710" y="1160" as="sourcePoint" />
            <mxPoint x="760" y="840" as="targetPoint" />
            <Array as="points">
              <mxPoint x="750" y="1237" />
              <mxPoint x="750" y="645" />
            </Array>
          </mxGeometry>
        </mxCell>
        <mxCell id="SqEzRoBcsGHss-kbt-hw-525" value="CPU" style="locked=1;" parent="0" />
        <mxCell id="SqEzRoBcsGHss-kbt-hw-526" value="CPU" style="swimlane;fontStyle=1;align=center;verticalAlign=top;childLayout=stackLayout;horizontal=1;startSize=26;horizontalStack=0;resizeParent=1;resizeParentMax=0;resizeLast=0;collapsible=1;marginBottom=0;whiteSpace=wrap;html=1;" parent="SqEzRoBcsGHss-kbt-hw-525" vertex="1">
          <mxGeometry x="1680" y="630" width="320" height="276" as="geometry" />
        </mxCell>
        <mxCell id="SqEzRoBcsGHss-kbt-hw-527" value="- mMMU: MMU" style="text;strokeColor=none;fillColor=none;align=left;verticalAlign=top;spacingLeft=4;spacingRight=4;overflow=hidden;rotatable=0;points=[[0,0.5],[1,0.5]];portConstraint=eastwest;whiteSpace=wrap;html=1;" parent="SqEzRoBcsGHss-kbt-hw-526" vertex="1">
          <mxGeometry y="26" width="320" height="26" as="geometry" />
        </mxCell>
        <mxCell id="SqEzRoBcsGHss-kbt-hw-528" value="- mMC: MemoryController*" style="text;strokeColor=none;fillColor=none;align=left;verticalAlign=top;spacingLeft=4;spacingRight=4;overflow=hidden;rotatable=0;points=[[0,0.5],[1,0.5]];portConstraint=eastwest;whiteSpace=wrap;html=1;" parent="SqEzRoBcsGHss-kbt-hw-526" vertex="1">
          <mxGeometry y="52" width="320" height="26" as="geometry" />
        </mxCell>
        <mxCell id="SqEzRoBcsGHss-kbt-hw-529" value="- mGPU: GPU*" style="text;strokeColor=none;fillColor=none;align=left;verticalAlign=top;spacingLeft=4;spacingRight=4;overflow=hidden;rotatable=0;points=[[0,0.5],[1,0.5]];portConstraint=eastwest;whiteSpace=wrap;html=1;" parent="SqEzRoBcsGHss-kbt-hw-526" vertex="1">
          <mxGeometry y="78" width="320" height="26" as="geometry" />
        </mxCell>
        <mxCell id="SqEzRoBcsGHss-kbt-hw-530" value="- mAPPs: vector&amp;lt;Application*&amp;gt;" style="text;strokeColor=none;fillColor=none;align=left;verticalAlign=top;spacingLeft=4;spacingRight=4;overflow=hidden;rotatable=0;points=[[0,0.5],[1,0.5]];portConstraint=eastwest;whiteSpace=wrap;html=1;" parent="SqEzRoBcsGHss-kbt-hw-526" vertex="1">
          <mxGeometry y="104" width="320" height="26" as="geometry" />
        </mxCell>
        <mxCell id="SqEzRoBcsGHss-kbt-hw-531" value="" style="line;strokeWidth=1;fillColor=none;align=left;verticalAlign=middle;spacingTop=-1;spacingLeft=3;spacingRight=3;rotatable=0;labelPosition=right;points=[];portConstraint=eastwest;strokeColor=inherit;" parent="SqEzRoBcsGHss-kbt-hw-526" vertex="1">
          <mxGeometry y="130" width="320" height="8" as="geometry" />
        </mxCell>
        <mxCell id="SqEzRoBcsGHss-kbt-hw-532" value="+ check_All_Applications_Finish (): bool" style="text;strokeColor=none;fillColor=none;align=left;verticalAlign=top;spacingLeft=4;spacingRight=4;overflow=hidden;rotatable=0;points=[[0,0.5],[1,0.5]];portConstraint=eastwest;whiteSpace=wrap;html=1;" parent="SqEzRoBcsGHss-kbt-hw-526" vertex="1">
          <mxGeometry y="138" width="320" height="26" as="geometry" />
        </mxCell>
        <mxCell id="SqEzRoBcsGHss-kbt-hw-533" style="line;strokeWidth=1;fillColor=none;align=left;verticalAlign=middle;spacingTop=-1;spacingLeft=3;spacingRight=3;rotatable=0;labelPosition=right;points=[];portConstraint=eastwest;strokeColor=inherit;" parent="SqEzRoBcsGHss-kbt-hw-526" vertex="1">
          <mxGeometry y="164" width="320" height="8" as="geometry" />
        </mxCell>
        <mxCell id="SqEzRoBcsGHss-kbt-hw-534" value="+ cycle (): void" style="text;strokeColor=none;fillColor=none;align=left;verticalAlign=top;spacingLeft=4;spacingRight=4;overflow=hidden;rotatable=0;points=[[0,0.5],[1,0.5]];portConstraint=eastwest;whiteSpace=wrap;html=1;" parent="SqEzRoBcsGHss-kbt-hw-526" vertex="1">
          <mxGeometry y="172" width="320" height="26" as="geometry" />
        </mxCell>
        <mxCell id="SqEzRoBcsGHss-kbt-hw-535" value="- Dynamic_Batch_Admission (): void" style="text;strokeColor=none;fillColor=none;align=left;verticalAlign=top;spacingLeft=4;spacingRight=4;overflow=hidden;rotatable=0;points=[[0,0.5],[1,0.5]];portConstraint=eastwest;whiteSpace=wrap;html=1;" parent="SqEzRoBcsGHss-kbt-hw-526" vertex="1">
          <mxGeometry y="198" width="320" height="26" as="geometry" />
        </mxCell>
        <mxCell id="SqEzRoBcsGHss-kbt-hw-536" value="- Kernel_Inference_Scheduler (): void" style="text;strokeColor=none;fillColor=none;align=left;verticalAlign=top;spacingLeft=4;spacingRight=4;overflow=hidden;rotatable=0;points=[[0,0.5],[1,0.5]];portConstraint=eastwest;whiteSpace=wrap;html=1;" parent="SqEzRoBcsGHss-kbt-hw-526" vertex="1">
          <mxGeometry y="224" width="320" height="26" as="geometry" />
        </mxCell>
        <mxCell id="SqEzRoBcsGHss-kbt-hw-537" value="- Check_Finish_Kernel (): void" style="text;strokeColor=none;fillColor=none;align=left;verticalAlign=top;spacingLeft=4;spacingRight=4;overflow=hidden;rotatable=0;points=[[0,0.5],[1,0.5]];portConstraint=eastwest;whiteSpace=wrap;html=1;" parent="SqEzRoBcsGHss-kbt-hw-526" vertex="1">
          <mxGeometry y="250" width="320" height="26" as="geometry" />
        </mxCell>
        <mxCell id="SqEzRoBcsGHss-kbt-hw-538" value="MMU" style="swimlane;fontStyle=1;align=center;verticalAlign=top;childLayout=stackLayout;horizontal=1;startSize=26;horizontalStack=0;resizeParent=1;resizeParentMax=0;resizeLast=0;collapsible=1;marginBottom=0;whiteSpace=wrap;html=1;" parent="SqEzRoBcsGHss-kbt-hw-525" vertex="1">
          <mxGeometry x="1680" y="382" width="320" height="164" as="geometry" />
        </mxCell>
        <mxCell id="SqEzRoBcsGHss-kbt-hw-539" value="- mTLB: TLB&amp;lt;int, pair&amp;lt;Page*, int&amp;gt;&amp;gt;" style="text;strokeColor=none;fillColor=none;align=left;verticalAlign=top;spacingLeft=4;spacingRight=4;overflow=hidden;rotatable=0;points=[[0,0.5],[1,0.5]];portConstraint=eastwest;whiteSpace=wrap;html=1;" parent="SqEzRoBcsGHss-kbt-hw-538" vertex="1">
          <mxGeometry y="26" width="320" height="26" as="geometry" />
        </mxCell>
        <mxCell id="SqEzRoBcsGHss-kbt-hw-540" value="- mMC: MemoryController*" style="text;strokeColor=none;fillColor=none;align=left;verticalAlign=top;spacingLeft=4;spacingRight=4;overflow=hidden;rotatable=0;points=[[0,0.5],[1,0.5]];portConstraint=eastwest;whiteSpace=wrap;html=1;" parent="SqEzRoBcsGHss-kbt-hw-538" vertex="1">
          <mxGeometry y="52" width="320" height="26" as="geometry" />
        </mxCell>
        <mxCell id="SqEzRoBcsGHss-kbt-hw-541" value="" style="line;strokeWidth=1;fillColor=none;align=left;verticalAlign=middle;spacingTop=-1;spacingLeft=3;spacingRight=3;rotatable=0;labelPosition=right;points=[];portConstraint=eastwest;strokeColor=inherit;" parent="SqEzRoBcsGHss-kbt-hw-538" vertex="1">
          <mxGeometry y="78" width="320" height="8" as="geometry" />
        </mxCell>
        <mxCell id="SqEzRoBcsGHss-kbt-hw-542" value="+ memoryAllocate (va: int; numOfByte: int): void" style="text;strokeColor=none;fillColor=none;align=left;verticalAlign=top;spacingLeft=4;spacingRight=4;overflow=hidden;rotatable=0;points=[[0,0.5],[1,0.5]];portConstraint=eastwest;whiteSpace=wrap;html=1;" parent="SqEzRoBcsGHss-kbt-hw-538" vertex="1">
          <mxGeometry y="86" width="320" height="26" as="geometry" />
        </mxCell>
        <mxCell id="SqEzRoBcsGHss-kbt-hw-543" value="+ memoryRelease (va: int)" style="text;strokeColor=none;fillColor=none;align=left;verticalAlign=top;spacingLeft=4;spacingRight=4;overflow=hidden;rotatable=0;points=[[0,0.5],[1,0.5]];portConstraint=eastwest;whiteSpace=wrap;html=1;" parent="SqEzRoBcsGHss-kbt-hw-538" vertex="1">
          <mxGeometry y="112" width="320" height="26" as="geometry" />
        </mxCell>
        <mxCell id="SqEzRoBcsGHss-kbt-hw-544" value="+ addressTranslate (va: int): vector&amp;lt;unsigned long long&amp;gt;" style="text;strokeColor=none;fillColor=none;align=left;verticalAlign=top;spacingLeft=4;spacingRight=4;overflow=hidden;rotatable=0;points=[[0,0.5],[1,0.5]];portConstraint=eastwest;whiteSpace=wrap;html=1;" parent="SqEzRoBcsGHss-kbt-hw-538" vertex="1">
          <mxGeometry y="138" width="320" height="26" as="geometry" />
        </mxCell>
        <mxCell id="SqEzRoBcsGHss-kbt-hw-545" value="" style="endArrow=open;endFill=1;endSize=12;html=1;rounded=0;exitX=0.5;exitY=0;exitDx=0;exitDy=0;entryX=0.503;entryY=1.173;entryDx=0;entryDy=0;entryPerimeter=0;" parent="SqEzRoBcsGHss-kbt-hw-525" source="SqEzRoBcsGHss-kbt-hw-526" target="SqEzRoBcsGHss-kbt-hw-544" edge="1">
          <mxGeometry width="160" relative="1" as="geometry">
            <mxPoint x="1940" y="526" as="sourcePoint" />
            <mxPoint x="2100" y="526" as="targetPoint" />
          </mxGeometry>
        </mxCell>
        <mxCell id="1" value="GPGPU Start" style="locked=1;" parent="0" />
        <mxCell id="SqEzRoBcsGHss-kbt-hw-213" value="" style="endArrow=open;endFill=1;endSize=12;html=1;rounded=0;exitX=0.5;exitY=0;exitDx=0;exitDy=0;entryX=0.501;entryY=1.062;entryDx=0;entryDy=0;entryPerimeter=0;" parent="1" source="SqEzRoBcsGHss-kbt-hw-449" target="SqEzRoBcsGHss-kbt-hw-564" edge="1">
          <mxGeometry width="160" relative="1" as="geometry">
            <mxPoint x="1435" y="1050" as="sourcePoint" />
            <mxPoint x="1435" y="1020" as="targetPoint" />
          </mxGeometry>
        </mxCell>
        <mxCell id="SqEzRoBcsGHss-kbt-hw-268" value="" style="endArrow=open;endFill=1;endSize=12;html=1;rounded=0;exitX=0;exitY=0.5;exitDx=0;exitDy=0;entryX=1.006;entryY=0.169;entryDx=0;entryDy=0;entryPerimeter=0;" parent="1" source="SqEzRoBcsGHss-kbt-hw-543" target="SqEzRoBcsGHss-kbt-hw-549" edge="1">
          <mxGeometry width="160" relative="1" as="geometry">
            <mxPoint x="1680" y="506.9999999999998" as="sourcePoint" />
            <mxPoint x="1592.17" y="659.4319999999998" as="targetPoint" />
            <Array as="points">
              <mxPoint x="1650" y="507" />
              <mxPoint x="1650" y="660" />
            </Array>
          </mxGeometry>
        </mxCell>
        <mxCell id="SqEzRoBcsGHss-kbt-hw-269" value="" style="endArrow=open;endFill=1;endSize=12;html=1;rounded=0;entryX=0;entryY=0.5;entryDx=0;entryDy=0;exitX=1.001;exitY=0.786;exitDx=0;exitDy=0;exitPerimeter=0;" parent="1" source="SqEzRoBcsGHss-kbt-hw-470" target="SqEzRoBcsGHss-kbt-hw-698" edge="1">
          <mxGeometry width="160" relative="1" as="geometry">
            <mxPoint x="1220" y="455.00800000000004" as="sourcePoint" />
            <mxPoint x="1280" y="455" as="targetPoint" />
          </mxGeometry>
        </mxCell>
        <mxCell id="SqEzRoBcsGHss-kbt-hw-270" value="" style="endArrow=block;startArrow=block;endFill=1;startFill=1;html=1;rounded=0;exitX=0.997;exitY=1.078;exitDx=0;exitDy=0;exitPerimeter=0;entryX=-0.001;entryY=0.169;entryDx=0;entryDy=0;entryPerimeter=0;" parent="1" source="SqEzRoBcsGHss-kbt-hw-479" target="SqEzRoBcsGHss-kbt-hw-549" edge="1">
          <mxGeometry width="160" relative="1" as="geometry">
            <mxPoint x="1220" y="660" as="sourcePoint" />
            <mxPoint x="1280" y="660" as="targetPoint" />
          </mxGeometry>
        </mxCell>
        <mxCell id="SqEzRoBcsGHss-kbt-hw-355" value="" style="endArrow=open;endFill=1;endSize=12;html=1;rounded=0;exitX=0;exitY=0.5;exitDx=0;exitDy=0;entryX=1.006;entryY=0.809;entryDx=0;entryDy=0;entryPerimeter=0;" parent="1" source="SqEzRoBcsGHss-kbt-hw-459" target="SqEzRoBcsGHss-kbt-hw-492" edge="1">
          <mxGeometry width="160" relative="1" as="geometry">
            <mxPoint x="1275.9699999999998" y="1237.3220000000001" as="sourcePoint" />
            <mxPoint x="1280" y="1320" as="targetPoint" />
          </mxGeometry>
        </mxCell>
        <mxCell id="SqEzRoBcsGHss-kbt-hw-359" value="GPGPU" style="swimlane;fontStyle=1;align=center;verticalAlign=top;childLayout=stackLayout;horizontal=1;startSize=26;horizontalStack=0;resizeParent=1;resizeParentMax=0;resizeLast=0;collapsible=1;marginBottom=0;whiteSpace=wrap;html=1;" parent="1" vertex="1">
          <mxGeometry x="1680" y="943" width="320" height="164" as="geometry" />
        </mxCell>
        <mxCell id="SqEzRoBcsGHss-kbt-hw-360" value="+ mMC: MemoryController" style="text;strokeColor=none;fillColor=none;align=left;verticalAlign=top;spacingLeft=4;spacingRight=4;overflow=hidden;rotatable=0;points=[[0,0.5],[1,0.5]];portConstraint=eastwest;whiteSpace=wrap;html=1;" parent="SqEzRoBcsGHss-kbt-hw-359" vertex="1">
          <mxGeometry y="26" width="320" height="26" as="geometry" />
        </mxCell>
        <mxCell id="SqEzRoBcsGHss-kbt-hw-368" value="+ mCPU: CPU" style="text;strokeColor=none;fillColor=none;align=left;verticalAlign=top;spacingLeft=4;spacingRight=4;overflow=hidden;rotatable=0;points=[[0,0.5],[1,0.5]];portConstraint=eastwest;whiteSpace=wrap;html=1;" parent="SqEzRoBcsGHss-kbt-hw-359" vertex="1">
          <mxGeometry y="52" width="320" height="26" as="geometry" />
        </mxCell>
        <mxCell id="SqEzRoBcsGHss-kbt-hw-367" value="+ mGPU: GPU" style="text;strokeColor=none;fillColor=none;align=left;verticalAlign=top;spacingLeft=4;spacingRight=4;overflow=hidden;rotatable=0;points=[[0,0.5],[1,0.5]];portConstraint=eastwest;whiteSpace=wrap;html=1;" parent="SqEzRoBcsGHss-kbt-hw-359" vertex="1">
          <mxGeometry y="78" width="320" height="26" as="geometry" />
        </mxCell>
        <mxCell id="SqEzRoBcsGHss-kbt-hw-366" value="+ mGMMU: GMMU*" style="text;strokeColor=none;fillColor=none;align=left;verticalAlign=top;spacingLeft=4;spacingRight=4;overflow=hidden;rotatable=0;points=[[0,0.5],[1,0.5]];portConstraint=eastwest;whiteSpace=wrap;html=1;" parent="SqEzRoBcsGHss-kbt-hw-359" vertex="1">
          <mxGeometry y="104" width="320" height="26" as="geometry" />
        </mxCell>
        <mxCell id="SqEzRoBcsGHss-kbt-hw-361" value="" style="line;strokeWidth=1;fillColor=none;align=left;verticalAlign=middle;spacingTop=-1;spacingLeft=3;spacingRight=3;rotatable=0;labelPosition=right;points=[];portConstraint=eastwest;strokeColor=inherit;" parent="SqEzRoBcsGHss-kbt-hw-359" vertex="1">
          <mxGeometry y="130" width="320" height="8" as="geometry" />
        </mxCell>
        <mxCell id="SqEzRoBcsGHss-kbt-hw-362" value="+ run (): void" style="text;strokeColor=none;fillColor=none;align=left;verticalAlign=top;spacingLeft=4;spacingRight=4;overflow=hidden;rotatable=0;points=[[0,0.5],[1,0.5]];portConstraint=eastwest;whiteSpace=wrap;html=1;" parent="SqEzRoBcsGHss-kbt-hw-359" vertex="1">
          <mxGeometry y="138" width="320" height="26" as="geometry" />
        </mxCell>
        <mxCell id="SqEzRoBcsGHss-kbt-hw-365" value="" style="endArrow=open;endFill=1;endSize=12;html=1;rounded=0;entryX=1;entryY=0.5;entryDx=0;entryDy=0;exitX=-0.007;exitY=0.792;exitDx=0;exitDy=0;exitPerimeter=0;" parent="1" source="SqEzRoBcsGHss-kbt-hw-540" target="SqEzRoBcsGHss-kbt-hw-698" edge="1">
          <mxGeometry width="160" relative="1" as="geometry">
            <mxPoint x="1676.8000000000002" y="454.2539999999999" as="sourcePoint" />
            <mxPoint x="1620" y="455" as="targetPoint" />
          </mxGeometry>
        </mxCell>
        <mxCell id="SqEzRoBcsGHss-kbt-hw-369" value="" style="endArrow=block;startArrow=block;endFill=1;startFill=1;html=1;rounded=0;exitX=1.001;exitY=0.216;exitDx=0;exitDy=0;exitPerimeter=0;entryX=0;entryY=0.5;entryDx=0;entryDy=0;" parent="1" source="SqEzRoBcsGHss-kbt-hw-454" target="SqEzRoBcsGHss-kbt-hw-367" edge="1">
          <mxGeometry width="160" relative="1" as="geometry">
            <mxPoint x="1591.5499999999997" y="1185.5900000000001" as="sourcePoint" />
            <mxPoint x="1710" y="1186" as="targetPoint" />
            <Array as="points">
              <mxPoint x="1630" y="1186" />
              <mxPoint x="1630" y="1034" />
            </Array>
          </mxGeometry>
        </mxCell>
        <mxCell id="SqEzRoBcsGHss-kbt-hw-371" value="" style="endArrow=block;startArrow=block;endFill=1;startFill=1;html=1;rounded=0;exitX=0.5;exitY=0;exitDx=0;exitDy=0;entryX=0.499;entryY=1.015;entryDx=0;entryDy=0;entryPerimeter=0;" parent="1" source="SqEzRoBcsGHss-kbt-hw-359" target="SqEzRoBcsGHss-kbt-hw-537" edge="1">
          <mxGeometry width="160" relative="1" as="geometry">
            <mxPoint x="1600" y="1195" as="sourcePoint" />
            <mxPoint x="1840" y="906" as="targetPoint" />
          </mxGeometry>
        </mxCell>
        <mxCell id="SqEzRoBcsGHss-kbt-hw-372" value="" style="endArrow=open;endFill=1;endSize=12;html=1;rounded=0;exitX=0;exitY=0.5;exitDx=0;exitDy=0;entryX=1;entryY=0.5;entryDx=0;entryDy=0;" parent="1" target="SqEzRoBcsGHss-kbt-hw-483" edge="1">
          <mxGeometry width="160" relative="1" as="geometry">
            <mxPoint x="1280" y="1167" as="sourcePoint" />
            <mxPoint x="1500" y="980" as="targetPoint" />
            <Array as="points">
              <mxPoint x="1250" y="1167" />
              <mxPoint x="1250" y="731" />
            </Array>
          </mxGeometry>
        </mxCell>
        <mxCell id="SqEzRoBcsGHss-kbt-hw-375" value="" style="endArrow=open;endFill=1;endSize=12;html=1;rounded=0;exitX=1;exitY=0.5;exitDx=0;exitDy=0;entryX=0;entryY=0.5;entryDx=0;entryDy=0;" parent="1" source="SqEzRoBcsGHss-kbt-hw-528" target="SqEzRoBcsGHss-kbt-hw-684" edge="1">
          <mxGeometry width="160" relative="1" as="geometry">
            <mxPoint x="2000" y="695" as="sourcePoint" />
            <mxPoint x="2070" y="525" as="targetPoint" />
            <Array as="points">
              <mxPoint x="2020" y="695" />
              <mxPoint x="2020" y="525" />
            </Array>
          </mxGeometry>
        </mxCell>
        <mxCell id="SqEzRoBcsGHss-kbt-hw-377" value="" style="endArrow=open;endFill=1;endSize=12;html=1;rounded=0;entryX=0;entryY=0.5;entryDx=0;entryDy=0;exitX=1;exitY=0.5;exitDx=0;exitDy=0;" parent="1" source="SqEzRoBcsGHss-kbt-hw-534" target="SqEzRoBcsGHss-kbt-hw-673" edge="1">
          <mxGeometry width="160" relative="1" as="geometry">
            <mxPoint x="2000" y="815" as="sourcePoint" />
            <mxPoint x="2070" y="1487" as="targetPoint" />
            <Array as="points">
              <mxPoint x="2050" y="815" />
              <mxPoint x="2050" y="1487" />
            </Array>
          </mxGeometry>
        </mxCell>
        <mxCell id="SqEzRoBcsGHss-kbt-hw-383" value="" style="endArrow=oval;endFill=1;endSize=8;html=1;rounded=0;exitX=1;exitY=0.5;exitDx=0;exitDy=0;" parent="1" source="SqEzRoBcsGHss-kbt-hw-500" edge="1">
          <mxGeometry width="160" relative="1" as="geometry">
            <mxPoint x="1220" y="1487" as="sourcePoint" />
            <mxPoint x="2030" y="1330" as="targetPoint" />
            <Array as="points">
              <mxPoint x="2030" y="1486" />
            </Array>
          </mxGeometry>
        </mxCell>
        <mxCell id="SqEzRoBcsGHss-kbt-hw-384" value="" style="endArrow=block;startArrow=block;endFill=1;startFill=1;html=1;rounded=0;exitX=1.001;exitY=0.33;exitDx=0;exitDy=0;exitPerimeter=0;" parent="1" source="SqEzRoBcsGHss-kbt-hw-564" edge="1">
          <mxGeometry width="160" relative="1" as="geometry">
            <mxPoint x="1590" y="1000" as="sourcePoint" />
            <mxPoint x="1680" y="1000" as="targetPoint" />
          </mxGeometry>
        </mxCell>
        <mxCell id="SqEzRoBcsGHss-kbt-hw-385" value="" style="ellipse;html=1;shape=startState;fillColor=#000000;strokeColor=#ff0000;" parent="1" vertex="1">
          <mxGeometry x="1825" y="1150" width="30" height="30" as="geometry" />
        </mxCell>
        <mxCell id="SqEzRoBcsGHss-kbt-hw-386" value="" style="edgeStyle=orthogonalEdgeStyle;html=1;verticalAlign=bottom;endArrow=open;endSize=8;strokeColor=#ff0000;rounded=0;entryX=0.5;entryY=1;entryDx=0;entryDy=0;" parent="1" source="SqEzRoBcsGHss-kbt-hw-385" target="SqEzRoBcsGHss-kbt-hw-359" edge="1">
          <mxGeometry relative="1" as="geometry">
            <mxPoint x="1840" y="1120" as="targetPoint" />
          </mxGeometry>
        </mxCell>
        <mxCell id="SqEzRoBcsGHss-kbt-hw-388" value="&lt;b&gt;START&lt;/b&gt;" style="rounded=0;whiteSpace=wrap;html=1;fillColor=none;" parent="1" vertex="1">
          <mxGeometry x="1770" y="1190" width="140" height="30" as="geometry" />
        </mxCell>
        <mxCell id="SqEzRoBcsGHss-kbt-hw-703" value="" style="group" parent="1" vertex="1" connectable="0">
          <mxGeometry x="2030" y="663" width="11" height="668" as="geometry" />
        </mxCell>
        <mxCell id="SqEzRoBcsGHss-kbt-hw-379" value="" style="shape=requiredInterface;html=1;verticalLabelPosition=bottom;sketch=0;" parent="SqEzRoBcsGHss-kbt-hw-703" vertex="1">
          <mxGeometry x="1" y="142" width="10" height="20" as="geometry" />
        </mxCell>
        <mxCell id="SqEzRoBcsGHss-kbt-hw-381" value="" style="endArrow=open;endFill=1;endSize=12;html=1;rounded=0;entryX=0;entryY=0.5;entryDx=0;entryDy=0;exitX=0.004;exitY=0;exitDx=0;exitDy=0;exitPerimeter=0;" parent="SqEzRoBcsGHss-kbt-hw-703" source="SqEzRoBcsGHss-kbt-hw-379" target="SqEzRoBcsGHss-kbt-hw-690" edge="1">
          <mxGeometry width="160" relative="1" as="geometry">
            <mxPoint y="142" as="sourcePoint" />
            <mxPoint x="40" as="targetPoint" />
            <Array as="points">
              <mxPoint />
            </Array>
          </mxGeometry>
        </mxCell>
        <mxCell id="SqEzRoBcsGHss-kbt-hw-382" value="" style="endArrow=none;endFill=0;endSize=12;html=1;rounded=0;entryX=0;entryY=1;entryDx=0;entryDy=0;entryPerimeter=0;exitX=1;exitY=0.5;exitDx=0;exitDy=0;" parent="SqEzRoBcsGHss-kbt-hw-703" source="SqEzRoBcsGHss-kbt-hw-460" target="SqEzRoBcsGHss-kbt-hw-379" edge="1">
          <mxGeometry width="160" relative="1" as="geometry">
            <mxPoint x="-420" y="677" as="sourcePoint" />
            <mxPoint x="50" y="357" as="targetPoint" />
            <Array as="points">
              <mxPoint y="668" />
            </Array>
          </mxGeometry>
        </mxCell>
      </root>
    </mxGraphModel>
  </diagram>
  <diagram id="Bjir6Afe0Ng_HyPeL62_" name="Flow Chart">
    <mxGraphModel dx="1434" dy="870" grid="1" gridSize="10" guides="1" tooltips="1" connect="1" arrows="1" fold="1" page="1" pageScale="1" pageWidth="850" pageHeight="1100" math="0" shadow="0">
      <root>
        <mxCell id="0" />
        <mxCell id="1" parent="0" />
      </root>
    </mxGraphModel>
  </diagram>
</mxfile>
